<?xml version="1.0" encoding="UTF-8"?>
<!DOCTYPE svg PUBLIC "-//W3C//DTD SVG 1.0//EN" "http://www.w3.org/TR/2001/REC-SVG-20010904/DTD/svg10.dtd">
<svg version="1.0" xmlns="http://www.w3.org/2000/svg" x="0px" y="0px" width="1024px" height="768px"
	 viewBox="0 0 1024 768" enable-background="new 0 0 1024 768" xml:space="preserve">
<path id="path9" fill="#D1EBE8" d="
	M-42.473-251.413c-2.434-6.385-3.863-13.071-4.286-20.056l-0.476,0.106c-1.659,6.139-1.059,12.788,1.799,19.95H-42.473z
	 M87.811,118.586l0.053-3.757c-0.07-1.411-0.441-2.558-1.111-3.44c-1.411,0.071-2.469,0.777-3.175,2.117
	c-0.6,1.165-0.794,2.487-0.582,3.969c0.211,1.411,0.741,2.312,1.587,2.699C85.536,120.563,86.611,120.033,87.811,118.586z
	 M0.284,167.324l-0.265-0.477v6.562l1.006,1.746c5.08,8.397,11.218,16.528,18.415,24.395c7.374,7.974,15.029,14.728,22.966,20.268
	c8.467,5.961,16.475,9.983,24.024,12.065c-0.283-1.623-3.951-4.516-11.007-8.678c-1.799-1.059-4.463-2.576-7.991-4.551l-5.239-3.016
	c-7.832-3.316-17.462-12.859-28.893-28.628C8.822,180.834,4.483,174.274,0.284,167.324z M294.241,173.885
	c-1.023,2.929-1.746,5.962-2.169,9.102h11.536c3.635-13.441,10.531-27.394,20.691-41.858c-15.134,8.678-25.013,19.191-29.633,31.539
	L294.241,173.885z M318.637,100.753c2.716,9.807,5.451,21.538,8.202,35.19c3.88-12.947,2.928-27.94-2.857-44.979
	c-4.974-14.817-13.352-30.586-25.136-47.309c-10.16-14.428-21.979-28.434-35.455-42.017l-2.593-2.646h-4.287l3.704,3.281
	l9.049,7.197c16.298,16.793,29.086,36.337,38.364,58.633C311.687,77.875,315.355,88.759,318.637,100.753z M215.87,64.188
	c-1.834,2.61-2.135,4.691-0.899,6.244l0.053,0.106c1.447,1.693,4.41,2.487,8.89,2.381c4.374-0.141,8.591-1.077,12.647-2.805
	c4.41-1.87,7.056-4.11,7.938-6.721c-1.905-1.376-6.332-2.24-13.282-2.593l-13.124,0.635L215.87,64.188z M256.987,111.284
	c-0.177-1.94-1.357-6.615-3.545-14.023c-2.011-6.879-2.927-10.636-2.751-11.271l-8.361-6.297c-6.245-1.376-11.253-0.6-15.029,2.328
	c-3.387,2.611-5.485,6.649-6.297,12.118l4.233,5.768c1.305,2.011,2.346,4.127,3.123,6.35l4.657,6.879
	c1.799,2.787,3.246,4.797,4.339,6.032c1.729,1.87,3.545,3.104,5.451,3.705l7.726-0.212c1.834-1.976,3.157-3.721,3.969-5.239
	C255.277,116.046,256.105,114.001,256.987,111.284z M228.147,93.133c-0.07-2.47,0.405-4.445,1.429-5.927
	c2.47-3.599,7.497-3.881,15.082-0.847c3.845,4.797,6.28,8.925,7.303,12.383c1.34,4.374,1.058,9.137-0.847,14.288
	c-1.834,1.87-3.845,2.823-6.033,2.857c-1.976,0-4.004-0.723-6.085-2.169c-1.905-1.376-3.704-3.263-5.397-5.662
	c-1.588-2.293-2.875-4.746-3.863-7.356C228.747,97.983,228.218,95.461,228.147,93.133z M104.69,84.137l-2.011-0.317
	c-1.235,1.763-1.746,3.21-1.535,4.339c0.177,0.952,0.812,1.499,1.905,1.64c1.023,0.141,1.976-0.141,2.857-0.847
	c1.058-0.811,1.604-1.887,1.64-3.228L104.69,84.137z M133.425,94.615l0.159,0.106l1.429,1.005c1.164-0.388,1.94-0.881,2.329-1.481
	c0.282-0.529,0.476-1.429,0.582-2.699l-1.059-0.741c-1.376-0.211-2.469,0.053-3.281,0.794
	C132.737,92.41,132.685,93.416,133.425,94.615L133.425,94.615z M136.864,90.805h-0.053H136.864z M124.429,100.277
	c0.458-0.918,0.512-1.588,0.159-2.011c-0.211-0.352-0.741-0.6-1.587-0.741l-2.329-0.265c-0.952-0.141-1.675-0.37-2.169-0.688
	c-2.151,1.305-3.615,2.312-4.392,3.017c-1.093,1.058-1.993,2.504-2.699,4.339c0.529,1.517,1.182,2.363,1.958,2.54l3.228-0.476
	l4.074-3.175L124.429,100.277z M128.768,136.631c1.023,1.517,2.963,3.81,5.821,6.879l6.35,7.144
	c2.011,2.576,2.981,4.622,2.911,6.139c-0.106,1.834-1.711,3.087-4.815,3.757c-4.27,0-5.239,0.987-2.911,2.963l3.175,2.169
	l2.276,1.27l10.583-0.847c4.268-0.564,7.638-1.5,10.107-2.805l0.371-2.646l-0.423-1.64c-0.564-0.494-1.535-0.882-2.911-1.164
	l-3.81-0.529l-3.281-0.741c-0.917-0.423-1.394-0.987-1.429-1.693c-3.916-1.199-7.903-3.81-11.959-7.832l-5.027-5.503l-4.657-5.451
	L128.768,136.631z M166.711,147.056c-1.94-3.246-4.233-8.308-6.879-15.188c-2.61-6.985-4.709-11.8-6.297-14.446
	c-2.751-4.587-6.104-7.567-10.054-8.943c-4.657-1.659-10.618-1.252-17.886,1.217c-0.917,1.341-1.199,3.175-0.847,5.503l1.323,5.98
	c4.127-5.892,8.644-8.626,13.547-8.202c4.303,0.352,8.22,2.945,11.748,7.779c3.387,4.585,5.469,9.842,6.244,15.769
	c0.882,6.386-0.07,11.731-2.857,16.034l3.439,0.212l3.969-0.794c1.799-0.317,2.963-0.794,3.492-1.429
	C166.04,150.055,166.392,148.89,166.711,147.056z M120.089,120.862l-3.175-1.958c-0.847-0.318-2.188-0.318-4.022,0
	c-3.315,6.032-4.233,10.865-2.751,14.499c1.235,3.034,4.551,5.821,9.948,8.361l2.805-1.799l0.953-1.376
	c0.035-2.223-0.582-5.221-1.852-8.996C120.761,125.749,120.125,122.837,120.089,120.862z M99.769,101.865l-1.058,1.058l-1.482,1.905
	c-0.635,4.41-0.547,7.39,0.265,8.943c0.741,1.235,1.799,1.27,3.175,0.106c1.34-1.164,2.293-2.857,2.857-5.08
	c0.67-2.505,0.476-4.692-0.582-6.562C101.393,101.635,100.334,101.512,99.769,101.865z M171.05,180.341
	c0.247-0.6-0.089-1.5-1.006-2.699l-5.344-0.688l-5.398,0.529C154.326,186.892,167.038,186.801,171.05,180.341L171.05,180.341z"/>
<path id="path11" fill="#219199" d="
	M0.021,53.286c1.375,0.106,2.751,0.106,4.127,0c5.503-0.529,10.812-2.945,15.928-7.25c4.48-3.775,8.59-8.766,12.33-14.976
	c3.316-5.468,5.962-11.236,7.938-17.304c-0.105-0.775,0.741-2.663,2.54-5.662c1.624-2.717,3.669-5.75,6.139-9.102h-0.529
	l-2.911,3.122c-3.916,4.163-8.255,8.29-13.018,12.383C25.016,21.06,16.425,27.55,6.794,33.972l-6.297,0.265H0.126H0.021V53.286z
	 M254.288-1.007l1.482,1.323c2.469,2.188,4.251,4.093,5.345,5.715c3.069,4.621,1.993,8.925-3.228,12.912l-0.371,0.529
	c-0.141,1.093-0.088,2.064,0.159,2.911l1.323,2.751l1.746,0.847c1.376-1.659,2.963-4.392,4.763-8.202l3.757-8.308l-9.049-7.197
	l-3.704-3.281H254.288z M235.291,30.162c0.67-2.117,0.617-3.828-0.159-5.133c-0.635-1.199-1.799-2.011-3.493-2.434
	c-1.482-0.388-3.21-0.423-5.186-0.106c-1.87,0.317-3.598,0.9-5.186,1.747c-1.411,0.67-2.681,1.64-3.81,2.91l-2.963,3.969
	c1.27,1.411,2.487,2.347,3.651,2.805l2.699-0.106c0.741-0.6,1.165-1.622,1.27-3.069c0.106-1.587-0.193-3.528-0.899-5.821
	c1.447,0.211,3.792,1.129,7.038,2.751c2.823,1.376,4.921,2.558,6.297,3.545L235.291,30.162z M215.976,87.947
	c-0.283,1.659,1.235,5.045,4.551,10.16l4.022,5.927l2.857,4.657l0.635-0.476l0.318-1.958c-0.777-2.223-1.817-4.339-3.123-6.35
	l-4.233-5.768C219.416,91.529,217.74,89.464,215.976,87.947z M172.531,177.748l0.899-5.45c3.528-1.659,6.191-2.487,7.991-2.487
	c-1.023-0.67-2.028-2.063-3.016-4.18c-0.459-1.023-0.883-2.17-1.27-3.44l1.534-0.159c0.741-0.564,1.059-1.763,0.953-3.598
	l-2.434-1.111l-1.111,0.793c-0.529-2.717-0.953-5.803-1.27-9.26c-1.693-1.376-3.298-3.017-4.815-4.921
	c-1.693-2.188-2.857-4.233-3.493-6.139c-1.553-5.009,0.9-7.867,7.355-8.572c0.071-3.317-0.582-5.803-1.958-7.461
	c-0.917-1.235-2.928-2.681-6.032-4.339c0.741-3.352,0.388-5.186-1.059-5.503c-1.27-0.247-2.91,0.564-4.921,2.434l5.768,3.334
	l-3.81,8.467c-1.658,3.246-1.993,2.893-1.005-1.059c-1.235-1.728-1.922-3.246-2.064-4.551c-0.141-1.658,1.006-1.87,3.44-0.635
	c0.388-0.564,0.458-1.059,0.211-1.482l-1.164-1.164l-1.535-1.217c-0.529-0.564-0.847-1.129-0.953-1.693
	c-2.293-1.623-6.155-3.298-11.589-5.027l-12.171-3.757c-3.527-1.27-4.939-2.363-4.233-3.281c0.917-1.164,5.01-2.381,12.277-3.651
	c2.929-4.164,3.298-7.038,1.111-8.625c-1.729-1.27-5.062-1.693-10.001-1.27c-3.421,0.282-7.549,0.97-12.383,2.063l-4.339,1.059
	l-1.693,0.37l3.387-1.64c1.481-0.812,2.663-1.57,3.545-2.275c2.575-2.082,3.14-4.304,1.693-6.667
	c0.07-3.175-0.635-4.305-2.117-3.387l-1.693,1.481l-1.111,1.164c-2.894,0.247-6.527-0.353-10.901-1.799l-5.186-1.853l-4.445-1.481
	c-2.927-0.847-4.745-0.582-5.45,0.794c-0.882,1.657-0.423,5.221,1.375,10.689c0.811,0.354,1.482,0.495,2.011,0.423l1.481-0.847
	l1.641-1.587l2.646-1.852c1.763-1.235,3.016-1.641,3.757-1.217c0.6,0.318,1.059,1.411,1.376,3.281l3.016-0.37l5.345-0.899
	c4.516-0.495,5.169,1.075,1.958,4.709c-4.021-1.517-7.126-1.059-9.313,1.376c-1.763,1.94-2.699,4.779-2.805,8.52
	c-0.07,3.387,0.477,5.821,1.641,7.303c0.564,0.706,1.146,0.917,1.746,0.635c0.741-0.317,1.429-1.252,2.064-2.805
	c0.706-1.834,1.604-3.281,2.699-4.339c0.777-0.706,2.241-1.711,4.392-3.017l6.139-0.317c1.657,0.388,2.927,1.023,3.81,1.905
	c0.811,0.847,0.899,1.517,0.264,2.011l-4.286,0.106l-3.757,2.54l-4.075,3.175l-7.726,12.171c-3.845,6.209-6.067,9.525-6.667,9.949
	l2.222,2.328c1.235,3.246,2.029,6.104,2.381,8.573c0.354,2.293,0.283,3.792-0.211,4.498c-0.529,0.741-1.359,0.476-2.487-0.794
	c-1.235-1.447-2.664-3.916-4.286-7.408l-3.757,7.038l0.423,1.111c1.376,0.952,2.416,2.345,3.122,4.18l1.429,5.186
	c0.883-1.27,1.711-1.852,2.487-1.746l1.376,0.37l1.958,0.847c0.493-0.282,1.058-0.741,1.693-1.376l1.534-1.693
	c1.234-1.27,2.205-1.657,2.911-1.164l1.005-0.899c0.777-1.093,2.487-1.659,5.133-1.693c2.434-0.035,5.062,0.37,7.884,1.217
	c2.928,0.847,5.168,1.923,6.721,3.228c1.764,1.482,2.257,2.963,1.482,4.445c0.917,1.058,1.693,2.24,2.328,3.545
	c0.741,1.411,1.235,2.293,1.482,2.646c3.104-0.67,4.709-1.923,4.815-3.757c0.07-1.517-0.9-3.563-2.911-6.139l-6.35-7.144
	c-2.857-3.069-4.797-5.363-5.821-6.879l-3.017-4.233c-0.741-1.164-1.217-2.151-1.429-2.963c-0.211-0.881-0.193-1.923,0.053-3.122
	l1.481-4.868l0.212-0.265l-1.323-5.98c-0.352-2.328-0.07-4.163,0.847-5.503c7.268-2.469,13.229-2.875,17.886-1.217
	c3.951,1.376,7.303,4.356,10.054,8.943c1.588,2.646,3.688,7.461,6.297,14.447c2.646,6.879,4.939,11.942,6.879,15.187
	c0.706,0.847,1.075,1.764,1.111,2.751c0.035,0.847-0.195,1.588-0.688,2.223c-0.529,0.6-1.217,0.918-2.064,0.953
	c-0.917,0.035-1.887-0.299-2.911-1.005l-3.969,0.794l-3.439-0.212l-3.969,2.328c0.035,0.706,0.511,1.271,1.429,1.693l3.281,0.741
	l3.81,0.529c1.376,0.282,2.347,0.67,2.911,1.164c1.164,0,2.063,0.37,2.699,1.111c0.564,0.6,0.812,1.305,0.741,2.117
	c0,0.847-0.299,1.393-0.899,1.64c-0.67,0.317-1.5,0.124-2.487-0.582c-2.469,1.305-5.839,2.241-10.107,2.805l-10.583,0.847
	c-1.765,0.564-2.717,1.111-2.858,1.641c-0.177,0.529,0.405,1.411,1.747,2.646l0.899-0.159l6.773-1.375l11.536-1.482
	c10.02-0.741,12.417,1.164,7.197,5.715l-5.345,0.476l-6.615,0.847c-5.292,1.093-7.797,3.439-7.514,7.038l1.058,0.688h8.52
	c-1.093-0.812-1.94-1.834-2.54-3.069c-0.706-1.411-0.723-2.381-0.053-2.911c0.812-0.706,2.452-0.547,4.921,0.477l5.397-0.529
	l5.345,0.688L172.531,177.748z M181.421,169.811c0.211,0.106,0.405,0.195,0.582,0.265l0.582,0.053
	c-0.035-0.177-0.334-0.282-0.899-0.317H181.421z M174.965,148.591c1.976-0.917,2.505-4.304,1.587-10.16
	c-0.317-2.082-0.757-4.109-1.323-6.085c-0.529-1.799-0.899-2.77-1.111-2.911c-1.129,3.246-1.447,6.439-0.953,9.578l0.9,4.339
	L174.965,148.591z M86.434,85.989c-3.104,0.529-5.327-0.423-6.667-2.857l-0.212-0.159l-0.159,1.005l-1.005,7.991
	c0.67,0.035,1.553-0.141,2.646-0.529c1.129-0.389,2.187-0.882,3.175-1.482C86.682,88.406,87.422,87.083,86.434,85.989z
	 M31.93,197.222c-11.748-8.29-20.144-16.986-25.189-26.088c-3.387-6.104-5.627-13.229-6.72-21.379v17.092l0.264,0.477
	c4.199,6.95,8.538,13.511,13.018,19.685c11.43,15.77,21.061,25.313,28.893,28.628l2.857-1.799c-0.988-0.881-2.117-1.746-3.387-2.593
	l-2.593-1.799c-1.587-1.27-2.699-3.298-3.333-6.085l-2.54-3.069C32.177,198.88,31.753,197.857,31.93,197.222z M59.024,83.926
	c2.187-4.903,4.568-11.466,7.144-19.686l2.329-7.62l1.429-3.916c-8.326-3.069-15.046-3.951-20.162-2.646
	c-4.516,1.093-7.885,3.951-10.107,8.572c-1.834,3.81-2.928,9.049-3.281,15.717c-0.211,4.445-0.105,10.707,0.317,18.786
	C44.1,103.717,51.544,100.647,59.024,83.926z M258.998,134.779c2.222-1.199,3.492-2.293,3.81-3.281l0.265-1.905
	c0.105-1.058,0.264-2.011,0.476-2.857c-0.917-1.164-1.394-2.257-1.429-3.281l0.37-2.752c0.177-1.199,0-2.416-0.529-3.651
	c-0.67-1.657-2.047-3.615-4.128-5.874l-0.847,0.106c-0.881,2.717-1.711,4.762-2.487,6.138c-0.812,1.517-2.135,3.263-3.969,5.239
	l-1.111,1.164l-1.059,0.953c-0.635,0.67-0.652,1.394-0.053,2.169l2.751-0.476c0.495,0.071,1.306,0.512,2.435,1.323
	c2.151-1.164,3.651-0.546,4.498,1.853l0.635,2.963L258.998,134.779z M250.69,85.989c0.635-0.917,0.652-1.87,0.053-2.857
	l-0.847-1.376l-0.635-1.481l-6.668-3.122l-1.005,1.111l0.741,1.429L250.69,85.989z M125.857,23.388
	c-1.657-1.341-2.151-3.087-1.481-5.239c-4.305-2.258-8.062-3.246-11.271-2.964c-2.611,0.212-5.133,1.359-7.567,3.44l-6.297,6.773
	c-2.787,3.069-5.327,5.363-7.62,6.879c-2.787,3.598-3.775,6.967-2.963,10.107c0.635,2.329,2.416,4.746,5.344,7.25l3.81,2.963
	l3.493,2.699c2.293,1.976,3.21,3.686,2.752,5.133c6.279,6.421,11.06,8.925,14.34,7.514c2.47-1.058,4.321-4.639,5.557-10.742
	l1.323-7.885c0.529-3.351,0.971-5.786,1.323-7.302c0.564-2.363,1.235-4.022,2.011-4.975c0.952-1.129,2.135-1.411,3.545-0.847
	c2.61-2.751,3.669-4.939,3.175-6.562c-0.317-1.129-1.64-2.241-3.969-3.334l-2.857-1.323
	C127.375,24.446,126.494,23.917,125.857,23.388z M132.049,72.39c3.069,0.423,5.592,0.211,7.567-0.635
	c2.257-0.987,2.875-2.469,1.852-4.445c-5.151-3.633-10.142-4.815-14.976-3.545c-2.153,2.222-2.487,4.18-1.005,5.874
	C126.758,71.049,128.945,71.966,132.049,72.39z M152.634,80.856c1.235-0.917,1.5-3.405,0.794-7.461l-4.551-2.805
	c-2.293,0.494-3.333,1.799-3.122,3.916c0.212,1.834,1.146,3.527,2.805,5.08C150.218,81.174,151.577,81.597,152.634,80.856
	L152.634,80.856z M129.403,64.822l4.921,2.17c0.741,1.234,0.618,2.027-0.37,2.381l-3.493-0.211
	c-1.447-0.493-2.363-1.129-2.752-1.905C127.251,66.375,127.815,65.563,129.403,64.822z M189.517,129.223
	c0.318-0.106-0.105-0.741-1.27-1.905c-1.976-2.046-5.115-4.691-9.419-7.938c2.681,3.457,5.467,6.279,8.361,8.467
	C188.459,128.834,189.236,129.294,189.517,129.223z M178.829,119.38l-1.852-2.487c-4.445-6.35-7.285-12.929-8.52-19.738
	c-5.609-2.328-7.337-0.881-5.186,4.339c0.67,1.553,1.799,3.687,3.387,6.403l2.646,4.604L178.829,119.38z M223.067,178.913
	c0.706-0.847,0.688-2.152-0.053-3.916l-2.752-1.27l-1.376-0.053c-1.023,1.481-1.288,2.822-0.793,4.021
	c0.458,0.987,1.252,1.641,2.381,1.958C221.638,179.9,222.503,179.653,223.067,178.913L223.067,178.913z M133.425,94.615
	c-0.741-1.199-0.688-2.205,0.159-3.016c0.812-0.741,1.887-1.005,3.228-0.794l1.111,0.741c1.905,1.34,3.14,2.558,3.704,3.651
	c0.493,0.916,0.441,1.587-0.159,2.011l-2.646,0.211c-1.27-0.247-2.54-0.811-3.81-1.693l-1.429-1.005
	C132.596,95.921,132.543,95.885,133.425,94.615z M136.812,90.805c0.388-0.458,0.405-0.458,0.053,0H136.812z M112.893,118.904
	c1.588-2.047,3.122-3.035,4.604-2.964c1.728,0.036,2.593,1.676,2.593,4.921c0.036,1.976,0.67,4.887,1.905,8.731
	c1.27,3.775,1.887,6.773,1.852,8.996c0.987,1.023,1.623,1.94,1.905,2.751c0.283,0.741,0.195,1.306-0.264,1.693
	c-0.389,0.354-1.059,0.441-2.011,0.265c-0.987-0.211-2.117-0.723-3.387-1.534c-5.397-2.54-8.713-5.327-9.948-8.361
	C108.659,129.769,109.577,124.937,112.893,118.904z M159.407,86.413c-1.411,0.67-2.082,1.587-2.011,2.752
	c0.07,0.987,0.564,1.817,1.481,2.487c0.953,0.67,1.747,0.741,2.381,0.212c0.777-0.6,0.987-1.94,0.635-4.022L159.407,86.413z
	 M164.54,129.435c0.389-0.6,1.182-0.881,2.381-0.847l0.688,2.646c-0.458,0.776-1.023,1.111-1.693,1.005
	c-0.564-0.106-1.023-0.476-1.376-1.111C164.223,130.493,164.223,129.929,164.54,129.435z M168.191,182.987h0.582l-0.105-0.106
	L168.191,182.987z"/>
<path id="path15" fill="#003D51" d="M40.343,13.757L50.556-0.689l0.211-0.317h-1.746c-2.47,3.352-4.516,6.385-6.139,9.102
	C41.083,11.094,40.237,12.981,40.343,13.757z"/>
<path id="path17" fill="#000017" stroke="#000017" stroke-width="0.7" d="M164.487-1.007l0.371,1.852
	c1.728,0.317,3.069-0.299,4.021-1.852H164.487z M257.887,18.943c0.141-1.305-0.283-2.028-1.27-2.169
	c-0.847-0.177-2.011,0.105-3.493,0.847c-1.376,0.635-2.717,1.481-4.021,2.54c-1.306,1.093-2.223,2.117-2.752,3.069
	c0.635,0.177,1.5,0.035,2.593-0.424l3.175-1.693l3.122-1.587l2.275-0.053L257.887,18.943z M258.998,25.134
	c-0.741,1.058-2.029,2.152-3.863,3.281c-1.905,1.164-3.987,2.082-6.244,2.752c-5.609,1.728-10.142,1.394-13.6-1.005l-0.741,1.058
	c-5.927,9.208-10.795,15.91-14.605,20.109c-3.281,3.598-6.156,5.715-8.625,6.35l-3.175,0.159l-3.122-0.688
	c-2.893-0.741-5.45-0.917-7.673-0.529c-1.764-1.728-2.84-3.511-3.228-5.345c-1.235-1.587-2.469-2.664-3.704-3.228
	c-5.363-2.363-10.072,4.975-14.129,22.014c0.987,0.67,1.834,3.511,2.54,8.52c0.987,6.738,1.799,11.184,2.434,13.335
	c1.411,4.833,3.457,7.638,6.138,8.414c3.387,0.917,7.956-1.27,13.706-6.562c1.341-0.247,2.682-0.881,4.022-1.905l3.439-3.122
	l3.334-3.069c1.27-0.953,2.505-1.464,3.704-1.535c-0.6-5.009-0.794-9.542-0.582-13.6l-0.053-0.106
	c-1.235-1.553-0.935-3.633,0.899-6.244l0.423-1.958c1.411-5.327,3.828-9.189,7.25-11.589c3.175-2.223,6.933-3.034,11.271-2.435
	c4.199,0.529,8.449,2.294,12.753,5.292c4.41,3.034,8.326,6.967,11.748,11.801c3.704,5.15,6.474,10.83,8.308,17.039
	c2.011,6.773,2.751,13.742,2.222,20.902c-0.564,7.903-2.664,15.735-6.297,23.496c-0.212,0.847-0.371,1.799-0.477,2.857l-0.264,1.905
	c-0.318,0.987-1.588,2.082-3.81,3.281c-2.152,0.67-3.582,0.423-4.287-0.741c-0.493-0.847-0.688-2.487-0.582-4.921l-2.381-0.477
	l-2.381,0.265l-2.011-0.053c-0.6-0.247-1.005-0.777-1.217-1.587c-4.127-0.741-7.779-3.017-10.954-6.827l-3.916-5.45l-4.233-5.768
	c-4.974-1.482-9.472-2.099-13.494-1.852c-3.599,0.177-6.615,1.058-9.049,2.646c-2.222,1.447-3.774,3.334-4.657,5.663
	c-0.812,2.222-0.864,4.533-0.159,6.932c0.741,2.505,2.153,4.745,4.233,6.72c2.329,2.117,5.221,3.722,8.679,4.816
	c8.29,2.504,18.415,1.622,30.375-2.646c4.692,2.469,5.786,4.885,3.281,7.25c-1.623,1.553-5.379,3.369-11.271,5.451l-6.085,2.222
	c-1.905,0.741-3.14,1.394-3.704,1.958c-1.305,1.27,1.252,2.363,7.673,3.281c1.834-2.611,3.633-3.582,5.398-2.911
	c1.34,0.493,2.769,2.028,4.286,4.604l3.599,6.456c1.234,2.011,2.257,2.841,3.069,2.487c7.903,5.539,12.595,12.436,14.076,20.691
	h15.399l-2.011-4.975c-5.821-14.64-7.531-21.255-5.133-19.844c4.48,11.184,8.237,19.456,11.271,24.818h9.261
	c0.423-3.14,1.146-6.173,2.169-9.102l0.053-0.476l0.952-12.277c0.564-7.514,1.111-13.547,1.641-18.098
	c1.799-14.534,4.728-24.694,8.784-30.48c1.834-0.211,1.816-4.656-0.053-13.335c-1.483-7.126-4.111-16.651-7.886-28.575
	c-3.069-9.667-6.332-19.245-9.79-28.734c-3.14-8.713-4.957-13.317-5.451-13.812c-4.127-4.093-7.461-6.527-10.001-7.303
	c-1.905-0.6-3.421-0.229-4.551,1.111l-1.27,1.905l-1.059,1.799c-0.812,1.165-1.817,1.323-3.016,0.477l-1.852-0.106L258.998,25.134z
	 M214.494,31.114c-2.011-1.199-4.233-1.481-6.667-0.847c-2.046,0.529-3.951,1.624-5.715,3.281c-1.624,1.481-2.628,2.945-3.017,4.392
	c-0.423,1.517,0.035,2.399,1.376,2.646C204.105,38.681,208.779,35.524,214.494,31.114z M94.584,88.265
	c-3-0.775-4.992-0.758-5.98,0.053l-0.423,0.476l-0.317,1.005c0,0.564,0.141,1.252,0.423,2.064c0.564,1.411,1.535,3.016,2.911,4.815
	c1.27,1.553,2.487,2.805,3.651,3.757c1.164-1.482,1.693-3.511,1.587-6.085C96.366,91.811,95.748,89.781,94.584,88.265z
	 M88.18,88.794l-0.053,0.053L88.18,88.794z M80.137,112.607c-1.657-1.164-2.981-2.894-3.969-5.186l-1.587-4.127
	c-0.177-0.389-0.371-0.512-0.582-0.371l-0.794,1.588l-3.439,11.06c4.092,9.137,2.892,14.693-3.599,16.669
	c-2.575,0.777-6.173,1.059-10.795,0.847l-13.441-1.587l-13.388-1.852c-4.693-0.529-8.308-0.6-10.848-0.212
	c-3.069,0.458-4.957,1.624-5.662,3.493c-0.741,2.046-0.036,5.098,2.117,9.155c-0.812,0.635-2.011,1.199-3.599,1.693
	c-1.305,0.387-2.205,0.935-2.699,1.64c1.341,1.165,2.363,2.558,3.069,4.181c0.529,1.2,0.97,2.787,1.323,4.763l0.899,4.868
	c0.459,1.87,1.077,3.458,1.853,4.763c0.352,0.211,1.481,1.834,3.387,4.869c2.151,3.245,4.233,6.667,6.244,10.266
	c5.68,9.949,8.113,15.981,7.303,18.098c-0.177,0.635,0.247,1.659,1.27,3.069l2.54,3.069c1.093,0.247,2.416,0.829,3.969,1.746
	c1.622,0.953,3.087,2.011,4.392,3.175c3.281,2.928,4.303,5.257,3.069,6.985c1.834,1.27,5.591,3.053,11.271,5.345
	c6.245,2.54,12.471,4.728,18.68,6.562c7.479,2.187,13.67,3.475,18.574,3.863c5.856,0.423,9.473-0.476,10.848-2.699
	c-0.177-0.317,3.299,0.177,10.425,1.482c7.337,1.305,15.029,2.874,23.072,4.709c4.009-13.396-11.16-51.542,7.038-51.542
	l-0.265-0.371c-2.047-2.187-3.352-4.516-3.916-6.985l-0.529-2.54c-0.211-0.847-0.547-1.517-1.005-2.011l-0.899,0.159
	c-2.999,2.576-6.491,3.74-10.478,3.493c-3.492-0.247-7.25-1.535-11.271-3.863c-3.458-2.047-6.863-4.71-10.213-7.991
	c-2.963-2.928-5.45-5.892-7.461-8.89c-2.045-0.881-4.392-1.658-7.038-2.328c-2.117-0.6-3.369-1.023-3.757-1.27
	c-0.529-0.423-0.354-1.111,0.529-2.064l5.715-4.868l-0.423-1.111c-4.657-3.846-8.52-8.238-11.589-13.177
	C80.631,122.961,79.184,117.44,80.137,112.607z M0.021,71.754c8.537,3.669,14.111,5.257,16.722,4.763
	c2.434-0.423,2.082-2.451-1.058-6.085c-2.963-3.527-7.515-7.426-13.653-11.695l-2.011-1.376V71.754z M0.496,34.236l6.297-0.265
	c9.631-6.421,18.222-12.912,25.771-19.474l-0.371-0.423c3.951-3.317,8.449-8.343,13.494-15.082H0.02v35.243H0.496z M9.016,127.477
	c1.411,0.987,3.069,0.389,4.974-1.799c-0.529-1.271-0.917-2.699-1.164-4.287l-0.37-4.498c-1.905-1.375-3.405-1.305-4.498,0.212
	c-0.882,1.27-1.217,3.104-1.005,5.503C7.164,125.042,7.852,126.665,9.016,127.477z M85.536,138.06
	c0.847,1.659,1.005,2.981,0.476,3.969c-0.423,0.847-1.146,1.217-2.169,1.111c-1.023-0.07-1.747-0.564-2.17-1.481
	c-0.458-1.093-0.265-2.417,0.582-3.969L85.536,138.06z M277.254,27.622l3.704,2.117c1.27,2.469,1.711,4.939,1.323,7.408
	c-0.318,2.257-1.182,3.81-2.593,4.657c-1.447,0.882-2.981,0.564-4.604-0.953c-1.87-1.763-3.458-4.921-4.763-9.472
	c0-3.916,1.164-5.662,3.493-5.239C274.697,26.316,275.844,26.81,277.254,27.622z M267.994,49.317
	c1.235,3.493,3.246,6.403,6.033,8.731l3.704,2.646l3.757,2.381c2.857,1.976,4.869,4.198,6.033,6.667
	c1.623,3.317,2.24,7.832,1.852,13.547c-0.6,0.812-2.505-0.265-5.715-3.228c-2.822-2.575-6.227-6.191-10.213-10.848
	c-3.739-4.41-7.073-8.644-10.001-12.7c-3.069-4.268-4.833-7.161-5.292-8.678c1.199-1.729,2.805-2.223,4.815-1.482l2.593,1.376
	L267.994,49.317z M293.024,86.995c0.635-1.728,1.675-2.275,3.122-1.64c1.376,2.187,2.311,4.109,2.805,5.768
	c0.6,1.834,0.899,4.003,0.899,6.509c-1.728,1.411-3.263,1.499-4.604,0.265c-1.165-1.059-1.958-2.77-2.381-5.133
	C292.442,90.469,292.495,88.547,293.024,86.995z M285.087,123.349c-0.706,1.553-1.852,2.152-3.44,1.799
	c-1.552-0.389-2.558-1.465-3.016-3.228c-0.529-2.047,0.07-4.304,1.799-6.773l1.958-0.423l2.117,0.423
	C285.739,118.745,285.934,121.479,285.087,123.349z M273.286,126.63c1.093,1.976,1.111,3.81,0.053,5.503
	c-0.881,1.447-2.135,2.329-3.757,2.646c-1.659,0.283-2.646-0.229-2.963-1.535c-0.389-1.553,0.458-3.81,2.54-6.773l2.169-0.317
	L273.286,126.63z M249.261,80.274c1.87-0.741,4.268-0.759,7.197-0.053l5.662,1.641c0.67,0.141,1.04,0.071,1.111-0.211
	c0.105-0.318-0.124-0.936-0.688-1.853c-1.023-1.728-3.845-5.467-8.467-11.218l-3.651-2.699l0.476,1.323
	c0.354,1.341,0.124,2.699-0.688,4.075c-1.693,2.717-5.997,3.599-12.912,2.646l-2.169-0.318c-0.423-0.069-0.511-0.018-0.265,0.159
	l7.726,3.387L249.261,80.274z M250.425,65.881l-0.794-1.005l-0.159-0.106l-0.265-0.106l0.265,0.317l0.106,0.106L250.425,65.881z
	 M249.208,64.664h0.053H249.208z M256.565,44.608c-0.847,0.529-1.94,0.334-3.281-0.582c-1.375-0.917-2.099-1.923-2.169-3.016
	c-0.071-1.306,1.005-2.153,3.228-2.54l2.434,1.429C257.587,42.403,257.516,43.973,256.565,44.608z M239.101,55.297
	c0.105,0.811,0.987,1.746,2.646,2.805c1.693,1.058,3.035,1.517,4.022,1.375c1.164-0.141,1.235-1.199,0.211-3.175l-3.069-2.17
	C240.301,53.887,239.031,54.275,239.101,55.297z M234.497,154.465c-1.235,1.199-1.535,2.874-0.899,5.027
	c0.282,0.953,0.706,1.764,1.27,2.434c0.635,0.706,1.34,1.111,2.117,1.217c1.87,0.317,3.651-1.023,5.345-4.022
	c-0.953-0.67-1.394-1.375-1.323-2.116l0.953-2.805C238.466,152.894,235.98,152.983,234.497,154.465z M214.706,144.833l-0.953,0.477
	l-2.911,0.159c-2.328,3.845-3.476,6.35-3.439,7.514c0.071,0.881,0.865,0.812,2.381-0.211c1.411-0.918,2.839-2.188,4.286-3.811
	c1.517-1.693,2.241-2.857,2.17-3.492C215.642,145.009,215.129,144.799,214.706,144.833z M102.205,128.112
	c-8.326-7.232-12.118-9.702-11.377-7.409c0.458,1.411,3.581,6.104,9.366,14.076c0.953,0.035,1.783-0.458,2.487-1.481l1.746-2.858
	L102.205,128.112z M114.004,147.162l-1.005,0.899c-0.6,1.729-0.371,3.74,0.688,6.033c0.953,2.011,2.381,3.863,4.286,5.556
	c1.905,1.693,3.757,2.735,5.557,3.122c2.011,0.423,3.51-0.07,4.498-1.481l-3.281-1.958l-3.122-1.746
	c-2.011-1.411-2.54-3.334-1.587-5.768c-0.458-1.659-1.164-2.84-2.117-3.545C116.967,147.532,115.663,147.162,114.004,147.162z"/>
<path id="path19" fill="#4CA5A3" d="M223.755-1.007v0.211l0.159-0.211H223.755z M174.806,148.855l0.159-0.265l-0.899-5.239
	l-0.9-4.339c-0.493-3.14-0.176-6.332,0.953-9.578l-0.265-0.211c-6.456,0.706-8.908,3.563-7.355,8.572
	c0.635,1.905,1.799,3.951,3.493,6.139C171.508,145.839,173.113,147.479,174.806,148.855z M159.883,114.353h-1.111
	c0.106,0.564,0.423,1.129,0.953,1.693l1.535,1.217l1.164,1.164c0.247,0.423,0.177,0.917-0.211,1.482
	c0.741,1.552,1.058,2.54,0.953,2.963c-0.106,0.529-0.883,1.27-2.329,2.222c-0.987,3.951-0.653,4.305,1.005,1.059l3.81-8.467
	L159.883,114.353z M125.857,121.444l-1.481,4.868c-0.247,1.199-0.265,2.241-0.053,3.122c0.212,0.812,0.688,1.799,1.429,2.963
	l3.016,4.233l0.371-0.529l-1.217-7.673C127.392,124.76,126.704,122.432,125.857,121.444L125.857,121.444z"/>
<path id="path21" fill="#1E7070" stroke="#1E7070" stroke-width="0.5" d="
	M200.471,40.586c-3.352,2.011-5.415,4.393-6.191,7.144c-0.317,1.2-0.371,2.381-0.159,3.545c0.388,1.834,1.464,3.617,3.228,5.345
	c2.223-0.388,4.78-0.211,7.673,0.529l3.122,0.688l3.175-0.159c2.469-0.635,5.345-2.752,8.625-6.35
	c3.81-4.199,8.678-10.901,14.605-20.109c-1.375-0.987-3.476-2.169-6.297-3.545c-3.246-1.623-5.592-2.54-7.038-2.751
	c0.706,2.293,1.005,4.233,0.899,5.821c-0.105,1.447-0.529,2.469-1.27,3.069l-2.699,0.106c-1.164-0.458-2.381-1.394-3.651-2.805
	C208.779,35.524,204.105,38.681,200.471,40.586L200.471,40.586z M215.605,84.137c-0.106,0.6-0.07,1.235,0.106,1.905l0.265,1.905
	c1.763,1.517,3.439,3.582,5.027,6.191c0.811-5.469,2.911-9.507,6.297-12.118c3.775-2.928,8.784-3.704,15.029-2.328l-0.741-1.429
	l1.005-1.111l-7.726-3.387c-0.247-0.177-0.159-0.23,0.265-0.159l2.169,0.318c6.914,0.953,11.218,0.07,12.912-2.646
	c-0.493-2.752-0.741-4.851-0.741-6.297l-0.211-0.317l0.211,0.106l0.212-1.746c0.564-1.306,2.029,0.546,4.392,5.556
	c4.622,5.75,7.443,9.49,8.467,11.218c0.564,0.918,0.793,1.535,0.688,1.853c-0.071,0.282-0.441,0.352-1.111,0.211l-5.662-1.641
	c-2.929-0.706-5.327-0.688-7.197,0.053l0.635,1.481l0.847,1.376c0.6,0.987,0.582,1.94-0.053,2.857
	c-0.177,0.635,0.741,4.392,2.751,11.271c2.188,7.409,3.369,12.083,3.546,14.023l0.847-0.106c2.082,2.257,3.458,4.215,4.127,5.874
	c0.529,1.235,0.706,2.452,0.529,3.651l-0.37,2.752c0.035,1.023,0.511,2.117,1.429,3.281c3.633-7.761,5.733-15.594,6.297-23.496
	c0.529-7.161-0.212-14.129-2.223-20.902c-1.834-6.209-4.604-11.888-8.308-17.039c-3.422-4.833-7.337-8.767-11.748-11.801
	c-4.304-2.998-8.555-4.763-12.753-5.292c-4.339-0.6-8.096,0.212-11.271,2.435c-3.422,2.399-5.839,6.261-7.25,11.589l-0.423,1.958
	l2.223-2.752l13.124-0.635c6.95,0.353,11.377,1.217,13.282,2.593c-0.882,2.611-3.527,4.851-7.938,6.721
	c-4.057,1.728-8.273,2.664-12.647,2.805c-4.48,0.105-7.443-0.688-8.89-2.381C214.813,74.595,215.007,79.128,215.605,84.137
	L215.605,84.137z M249.261,64.664h-0.053H249.261z M227.406,108.691l-0.371,0.529l4.233,5.768l3.916,5.45
	c3.175,3.81,6.826,6.086,10.954,6.827l2.169-0.318c-0.6-0.775-0.582-1.499,0.053-2.169l1.059-0.953l1.111-1.164l-7.726,0.212
	c-1.905-0.6-3.722-1.834-5.451-3.705c-1.093-1.234-2.54-3.246-4.339-6.032l-4.657-6.879l-0.318,1.958L227.406,108.691
	L227.406,108.691z M170.89,182.987l0.318-0.106c1.129-0.494,2.027-1.164,2.699-2.011c0.741-0.953,0.865-1.729,0.37-2.329
	c-0.317-0.388-0.899-0.652-1.746-0.794l-2.487-0.105c0.918,1.199,1.252,2.099,1.005,2.699l-2.381,2.54l0.105,0.106H170.89z
	 M94.849,87.259l-0.265,1.005c1.164,1.517,1.781,3.546,1.852,6.086c0.106,2.575-0.423,4.604-1.587,6.085
	c-0.529,0.529-1.411,0.264-2.646-0.794l-2.434-2.381c-1.765,0.354-2.735-0.211-2.911-1.693c-0.106-0.987,0.159-2.646,0.794-4.974
	l0.211-0.794l0.265-0.953l0.159-0.635l0.371-2.064c0-1.058-0.741-1.111-2.223-0.159c0.987,1.093,0.247,2.417-2.223,3.969
	c-0.987,0.6-2.046,1.093-3.175,1.482c-1.093,0.388-1.976,0.564-2.646,0.529c-0.741,1.693-1.023,3.492-0.847,5.397
	c0.141,1.27,0.564,2.945,1.27,5.027c0.812,2.329,1.305,3.969,1.482,4.921c0.388,1.87,0.335,3.633-0.159,5.292
	c-0.952,4.833,0.495,10.354,4.339,16.563c3.069,4.939,6.932,9.332,11.589,13.177l3.757-7.038l0.37-0.529
	c-5.786-7.973-8.908-12.665-9.366-14.076c-0.741-2.293,3.051,0.177,11.377,7.409c0.6-0.423,2.822-3.74,6.667-9.949l7.726-12.171
	l-3.228,0.476c-0.777-0.177-1.429-1.023-1.958-2.54c-0.635,1.553-1.323,2.487-2.064,2.805c-0.6,0.283-1.182,0.071-1.746-0.635
	c-1.164-1.482-1.711-3.916-1.641-7.303c0.106-3.74,1.042-6.58,2.805-8.52c2.188-2.435,5.292-2.894,9.313-1.376
	c3.21-3.633,2.558-5.204-1.958-4.709l-5.344,0.899l-3.017,0.37c-0.317-1.87-0.776-2.963-1.376-3.281
	c-0.741-0.423-1.993-0.018-3.757,1.217l-2.646,1.852l-1.641,1.587l-1.481,0.847C96.33,87.754,95.66,87.612,94.849,87.259
	L94.849,87.259z M87.863,114.83l-0.053,3.757c-1.2,1.447-2.276,1.976-3.228,1.587c-0.847-0.387-1.376-1.288-1.588-2.699
	c-0.211-1.481-0.018-2.804,0.583-3.969c0.706-1.34,1.763-2.045,3.175-2.117C87.422,112.271,87.793,113.418,87.863,114.83z
	 M101.039,153.988c2.011,2.999,4.498,5.962,7.461,8.89c3.352,3.281,6.755,5.945,10.213,7.991c4.021,2.328,7.779,3.615,11.271,3.863
	c3.987,0.247,7.479-0.917,10.478-3.493c-1.341-1.234-1.923-2.117-1.747-2.646c0.141-0.529,1.093-1.077,2.858-1.641l-2.276-1.27
	l-3.175-2.169c-2.329-1.976-1.359-2.963,2.911-2.963c-0.247-0.354-0.741-1.235-1.482-2.646c-0.635-1.305-1.411-2.487-2.328-3.545
	c-0.812,0.706-1.834,0.917-3.069,0.635c-0.741-0.211-1.976-0.741-3.704-1.587c-1.765-0.882-3.123-1.447-4.075-1.693l-4.339,0.106
	c-0.953,2.434-0.423,4.357,1.587,5.768l3.122,1.746l3.281,1.958c-0.988,1.411-2.487,1.905-4.498,1.481
	c-1.799-0.387-3.651-1.429-5.557-3.122c-1.905-1.693-3.333-3.545-4.286-5.556c-1.059-2.293-1.288-4.304-0.688-6.033
	c-0.706-0.493-1.675-0.106-2.911,1.164l-1.534,1.693c-0.635,0.635-1.2,1.093-1.693,1.376l-1.958-0.847l-1.376-0.37
	c-0.776-0.106-1.604,0.476-2.487,1.746V153.988z M140.041,234.529c-8.043-1.834-15.734-3.405-23.072-4.709
	c-7.125-1.306-10.601-1.799-10.424-1.482c-1.376,2.223-4.991,3.122-10.848,2.699c-4.903-0.388-11.096-1.675-18.574-3.863
	c-6.209-1.834-12.436-4.022-18.68-6.562c-5.68-2.293-9.438-4.075-11.271-5.345l-2.117-1.429l-2.857,1.799l5.239,3.016
	c3.527,1.976,6.191,3.493,7.99,4.551c7.056,4.162,10.725,7.056,11.007,8.678l4.075,2.487c1.411,0.741,2.875,1.234,4.392,1.481
	c7.02-0.6,15.152,0.018,24.395,1.852c7.02,1.376,15.646,3.688,25.877,6.932l14.87,4.816V234.529z M86.011,142.029
	c0.529-0.987,0.37-2.31-0.477-3.969l-3.281-0.37c-0.847,1.552-1.04,2.875-0.582,3.969c0.423,0.917,1.146,1.411,2.169,1.481
	C84.864,143.246,85.587,142.875,86.011,142.029z M262.596,26.087c3.775-4.869,7.374-7.215,10.795-7.038
	c3.669,0.141,6.702,3.157,9.102,9.049c0.494,0.494,2.312,5.098,5.451,13.812c3.457,9.49,6.72,19.068,9.79,28.734
	c3.775,11.923,6.403,21.449,7.886,28.575c1.869,8.679,1.887,13.124,0.053,13.335c-4.057,5.786-6.985,15.946-8.785,30.48
	c-0.529,4.551-1.075,10.584-1.64,18.098l-0.953,12.277l-0.053,0.476l0.423-1.217c4.621-12.347,14.5-22.86,29.633-31.539l1.746-2.434
	c0.495-0.882,0.76-1.799,0.794-2.752c-2.751-13.652-5.486-25.382-8.202-35.19c-3.28-11.994-6.95-22.878-11.008-32.65
	c-9.277-22.296-22.065-41.841-38.364-58.633l-3.757,8.308c-1.799,3.81-3.387,6.543-4.763,8.202L262.596,26.087z M282.812,182.987
	c-3.035-5.363-6.792-13.636-11.271-24.818c-2.399-1.411-0.688,5.204,5.133,19.844l2.011,4.975H282.812z M280.958,29.738
	l-3.704-2.117c-1.411-0.812-2.558-1.306-3.439-1.482c-2.329-0.423-3.493,1.323-3.493,5.239c1.305,4.551,2.894,7.708,4.763,9.472
	c1.622,1.517,3.157,1.834,4.604,0.953c1.411-0.847,2.275-2.399,2.593-4.657C282.67,34.677,282.229,32.207,280.958,29.738z
	 M274.026,58.049c-2.787-2.328-4.797-5.239-6.033-8.731l-2.434-1.587l-2.593-1.376c-2.011-0.741-3.617-0.247-4.815,1.482
	c0.458,1.517,2.222,4.41,5.292,8.678c2.929,4.057,6.262,8.29,10.001,12.7c3.987,4.657,7.392,8.273,10.213,10.848
	c3.21,2.963,5.115,4.04,5.715,3.228c0.388-5.715-0.229-10.23-1.852-13.547c-1.164-2.469-3.175-4.691-6.033-6.667l-3.757-2.381
	L274.026,58.049z M296.146,85.354c-1.447-0.635-2.487-0.089-3.122,1.64c-0.529,1.553-0.582,3.476-0.159,5.768
	c0.423,2.363,1.217,4.075,2.381,5.133c1.34,1.234,2.875,1.146,4.604-0.265c0-2.505-0.299-4.675-0.899-6.509
	C298.458,89.464,297.522,87.542,296.146,85.354z M281.646,125.148c1.587,0.353,2.735-0.247,3.44-1.799
	c0.847-1.87,0.652-4.604-0.583-8.202l-2.117-0.423l-1.958,0.423c-1.729,2.469-2.329,4.727-1.799,6.773
	C279.09,123.684,280.095,124.76,281.646,125.148z M273.338,132.133c1.059-1.693,1.042-3.527-0.053-5.503l-1.958-0.476l-2.169,0.317
	c-2.082,2.963-2.929,5.221-2.54,6.773c0.317,1.305,1.305,1.817,2.963,1.535C271.205,134.462,272.457,133.58,273.338,132.133
	L273.338,132.133z M321.07,121.497c1.658,5.538,2.1,9.931,1.322,13.176c-0.6,2.717-1.923,4.215-3.969,4.498
	c-1.87,0.247-3.633-0.547-5.291-2.381c-1.729-2.046-2.559-4.568-2.486-7.567c1.27-1.799,2.945-3.582,5.026-5.345
	C318.213,121.727,320.013,120.933,321.07,121.497z M134.324,66.992l-4.921-2.17c-1.587,0.741-2.151,1.553-1.693,2.435
	c0.389,0.775,1.306,1.411,2.752,1.905l3.493,0.211C134.942,69.021,135.065,68.227,134.324,66.992L134.324,66.992z M253.283,44.026
	c1.341,0.917,2.434,1.111,3.281,0.582c0.953-0.635,1.023-2.206,0.212-4.709l-2.434-1.429c-2.223,0.387-3.299,1.234-3.228,2.54
	C251.184,42.103,251.907,43.108,253.283,44.026z M241.747,58.102c-1.657-1.059-2.54-1.994-2.646-2.805
	c-0.071-1.023,1.199-1.411,3.81-1.165l3.069,2.17c1.023,1.976,0.953,3.033-0.211,3.175C244.781,59.619,243.44,59.16,241.747,58.102z
	 M254.129,129.117c-0.106,2.434,0.089,4.075,0.582,4.921c0.706,1.164,2.135,1.411,4.287,0.741l-0.371-2.169l-0.635-2.963
	c-0.847-2.399-2.347-3.017-4.498-1.853L254.129,129.117z M102.68,83.82l2.011,0.317l2.857,1.587
	c-0.036,1.341-0.582,2.417-1.64,3.228c-0.882,0.706-1.834,0.988-2.857,0.847c-1.093-0.141-1.729-0.688-1.905-1.64
	C100.935,87.031,101.446,85.583,102.68,83.82z M133.583,94.721l-0.159-0.106C132.543,95.885,132.596,95.921,133.583,94.721z
	 M136.812,90.805h0.053C137.218,90.347,137.2,90.347,136.812,90.805z M137.924,91.546c-0.106,1.27-0.3,2.169-0.582,2.699
	c-0.389,0.6-1.165,1.093-2.329,1.481c1.27,0.883,2.54,1.447,3.81,1.693l2.646-0.211c0.6-0.423,0.652-1.093,0.159-2.011
	C141.063,94.104,139.828,92.887,137.924,91.546z M124.642,96.255l-6.139,0.317c0.494,0.318,1.217,0.547,2.17,0.688l2.328,0.265
	c0.847,0.141,1.376,0.389,1.587,0.741c0.354,0.423,0.3,1.093-0.159,2.011l4.287-0.106c0.635-0.495,0.546-1.165-0.265-2.011
	C127.569,97.279,126.299,96.644,124.642,96.255z M117.497,115.94c-1.482-0.07-3.016,0.918-4.604,2.964
	c1.834-0.318,3.175-0.318,4.022,0l3.175,1.958C120.089,117.616,119.226,115.976,117.497,115.94z M120.089,141.765
	c1.27,0.811,2.399,1.323,3.387,1.534c0.953,0.177,1.624,0.089,2.011-0.265c0.458-0.387,0.546-0.952,0.264-1.693
	c-0.282-0.811-0.917-1.728-1.905-2.751l-0.953,1.376L120.089,141.765z M98.711,102.923l1.058-1.058
	c0.564-0.354,1.624-0.23,3.175,0.37c1.058,1.87,1.252,4.057,0.582,6.562c-0.564,2.223-1.517,3.916-2.857,5.08
	c-1.376,1.164-2.435,1.129-3.175-0.106c-0.812-1.553-0.899-4.533-0.265-8.943L98.711,102.923z M162.212,119.91
	c-2.434-1.235-3.581-1.023-3.44,0.635c0.142,1.305,0.829,2.823,2.064,4.551c1.447-0.952,2.223-1.693,2.329-2.222
	C163.27,122.45,162.953,121.462,162.212,119.91z M166.921,128.588c-1.199-0.035-1.993,0.247-2.381,0.847
	c-0.317,0.494-0.317,1.059,0,1.693c0.354,0.635,0.812,1.005,1.376,1.111c0.67,0.106,1.235-0.229,1.693-1.005L166.921,128.588z
	 M162.159,151.978c1.023,0.706,1.994,1.04,2.911,1.005c0.847-0.035,1.535-0.354,2.064-0.953c0.493-0.635,0.723-1.376,0.688-2.223
	c-0.036-0.987-0.406-1.905-1.111-2.751c-0.318,1.834-0.67,2.999-1.059,3.493C165.124,151.184,163.958,151.66,162.159,151.978z
	 M162.635,160.656l-0.371,2.646c0.987,0.706,1.817,0.899,2.487,0.582c0.6-0.247,0.899-0.793,0.899-1.64
	c0.071-0.812-0.177-1.517-0.741-2.117c-0.635-0.741-1.535-1.111-2.699-1.111L162.635,160.656z M159.301,177.484
	c-2.469-1.023-4.109-1.182-4.921-0.477c-0.67,0.529-0.652,1.5,0.053,2.911c0.6,1.235,1.447,2.257,2.54,3.069h2.91
	c-0.847-0.635-1.34-1.183-1.481-1.641C158.226,180.712,158.525,179.424,159.301,177.484L159.301,177.484z"/>
<path id="path23" fill="#00003D" d="M272.492,20.795c2.54,0.777,5.874,3.21,10.001,7.303c-2.399-5.892-5.433-8.908-9.102-9.049
	c-3.423-0.177-7.02,2.169-10.795,7.038c1.2,0.847,2.205,0.688,3.017-0.477l1.058-1.799l1.27-1.905
	C269.07,20.566,270.587,20.195,272.492,20.795z"/>
<path id="path25" fill="#000033" d="M322.393,134.673c0.777-3.246,0.335-7.638-1.322-13.176c-1.058-0.564-2.857,0.229-5.397,2.381
	c-2.081,1.763-3.758,3.545-5.026,5.345c-0.071,2.998,0.758,5.521,2.486,7.567c1.658,1.834,3.421,2.629,5.291,2.381
	C320.47,138.889,321.794,137.389,322.393,134.673z"/>
<path id="path27" fill="#000031" d="M254.077,68.58c-2.363-5.01-3.828-6.862-4.392-5.556l-0.212,1.746l0.159,0.106l0.794,1.005
	L254.077,68.58z M250.425,65.881l-0.847-0.794l-0.106-0.106c0,1.447,0.247,3.545,0.741,6.297c0.812-1.376,1.042-2.734,0.688-4.075
	L250.425,65.881z M249.473,64.981l-0.211-0.317L249.473,64.981z"/>
<path id="path31" fill="#219199" d="
	M148.453,182.987c10.901,7.337,18.275,7.374,22.12,0.105C158.22,181.549,152.573,182.95,148.453,182.987z M205.234,215.214
	c4.516-0.812,6.456-1.87,5.821-3.175c-0.529-1.129-2.329-2.047-5.397-2.752c-3.069-0.706-5.098-0.67-6.085,0.106
	c-1.165,0.881,0.087,2.628,3.757,5.239L205.234,215.214z M173.959,258.659l6.297,2.063c0.741-1.023,1.976-1.111,3.704-0.264
	c1.34,0.635,2.611,1.569,3.81,2.804l1.535-0.899l1.323-1.058c0.953-0.812,1.834-0.918,2.646-0.318
	c0.812-0.881,2.293-1.375,4.445-1.481l2.752-0.053l2.487-0.212c0.741-1.976,0.159-3.599-1.747-4.868
	c-1.447-1.059-3.828-1.958-7.144-2.699l-8.467-1.587c-3.035-0.529-4.939-1.058-5.715-1.587c-0.141-0.141-1.076,1.181-2.805,3.969
	C175.284,255.36,174.242,257.424,173.959,258.659L173.959,258.659z M205.975,280.355l5.451,3.598
	c0.706,0.423,1.605,0.865,2.699,1.323l2.857-1.852l-2.805-2.699l-1.958-2.223c-1.447-1.517-3.387-2.733-5.821-3.651l-1.164-0.053
	c-0.706,1.482-0.688,2.717,0.053,3.704l0.741,0.9C206.204,279.686,206.186,280.003,205.975,280.355L205.975,280.355z
	 M433.996,569.073c0.883-4.198,1.323-9.031,1.323-14.501l-4.233-36.617l-0.106-0.317c-3.916-19.616-9.843-40.606-17.78-62.974
	l-1.641-2.697c-0.74-1.094-1.358-1.288-1.852-0.582c0.847,7.16,1.2,13.67,1.059,19.526l-0.212,5.927l0.106,5.08
	c0.317,3.492,1.482,7.797,3.493,12.912c2.152,5.503,6.085,13.934,11.8,25.293c-0.563,2.33-0.864,4.834-0.899,7.515l1.058,0.741
	c0.283,2.539,0.265,4.232-0.053,5.08c-0.176,0.458-0.424,0.582-0.74,0.37l0.211,1.481c0.354,2.752,1.358,7.779,3.017,15.082
	c1.446,6.173,2.24,10.988,2.381,14.446c0.211,5.08-0.636,9.471-2.54,13.175l-0.371,0.529l2.381,0.529L433.996,569.073
	L433.996,569.073z M212.219,201.085c0.141-0.529,0.088-1.076-0.159-1.641l-1.005-1.64c-0.423-0.777-0.706-1.553-0.847-2.329
	c-3.775-2.469-6.439-3.527-7.991-3.175c-1.305,0.282-1.622,1.411-0.952,3.387c0.67,1.905,1.887,3.651,3.651,5.239
	c2.011,1.763,3.969,2.575,5.874,2.434C211.602,202.444,212.078,201.685,212.219,201.085L212.219,201.085z M210.684,253.738
	c1.482,0.635,2.611-0.354,3.387-2.963l-2.063-2.963c-1.059-1.305-1.641-2.241-1.747-2.805c-2.187-1.553-3.51-1.658-3.969-0.317
	c-0.353,1.129-0.035,2.787,0.953,4.974C208.304,251.886,209.45,253.245,210.684,253.738z M377.374,360.102
	c-1.199-0.388-1.888,0.035-2.064,1.27l6.033,12.171l5.98,12.118l9.102,21.114l1.429,4.868c0.706,2.046,1.518,3.404,2.434,4.074
	c0.636-1.27,0.67-2.857,0.106-4.761c-0.247-0.883-0.917-2.435-2.011-4.657l-2.117-5.29l-2.116-5.717
	c-1.764-4.621-3.493-8.079-5.187-10.371C386.318,377.229,382.454,368.957,377.374,360.102L377.374,360.102z M367.427,374.812
	l1.746,1.536l1.164,2.063c4.729,3.281,6.279,2.277,4.657-3.016c-0.424-1.586-1.305-3.916-2.646-6.984l-2.276-5.662
	c-0.705-0.529-1.146-0.423-1.322,0.317c-0.106,0.423-0.123,1.481-0.053,3.175C368.838,370.403,368.414,373.26,367.427,374.812
	L367.427,374.812z M334.617,409.897l-4.604,0.739c-1.835,0.177-3.246-0.088-4.234-0.792c-0.812,1.657-1.835,3.191-3.068,4.604
	l-3.863,4.074l-0.105,0.741c0.423,0.741,2.521,1.411,6.297,2.011c3.951,0.529,7.497,0.617,10.637,0.265
	c3.81-0.423,5.856-1.481,6.138-3.175C342.167,416.318,339.768,413.496,334.617,409.897z M305.672,421.327l-0.529-0.37
	c-1.234-0.6-3.069-0.794-5.503-0.582l-5.08-0.317c-0.317,2.575,1.517,7.196,5.503,13.864l4.763,7.726
	c1.728,2.823,2.875,4.923,3.44,6.299l3.757,4.868l1.482,0.741l2.804,1.164c0.389-6.985,0.9-11.731,1.536-14.236l0.157-0.529
	c-0.635,0.564-1.693,0-3.175-1.693C312.428,435.438,309.375,429.794,305.672,421.327L305.672,421.327z M318.001,439.954l0.106-0.105
	l0.212-0.477L318.001,439.954z M400.605,416.301c-0.705,4.057-1.712,8.131-3.017,12.224l-1.481,4.763
	c1.093-1.588,3.934-0.494,8.52,3.279l0.477,0.372c0.459-0.601,0.881-0.829,1.27-0.689c0.424,0.142,0.899-0.176,1.429-0.952
	l-2.963-9.896C403.64,421.662,402.229,418.629,400.605,416.301z M400.129,522.929c1.129,2.153,2.347,3.422,3.651,3.811
	c1.165,0.282,2.1-0.107,2.805-1.164c0.706-1.059,0.917-2.294,0.636-3.704c-0.318-1.659-1.235-3-2.752-4.023
	c-1.481,0.46-2.505,1.023-3.068,1.693C400.87,520.212,400.447,521.342,400.129,522.929z M346.735,506.736
	c-2.081-1.481-3.899-3.581-5.451-6.297c-0.952-1.729-2.116-4.393-3.492-7.992c-1.446-3.81-2.594-6.509-3.44-8.095
	c-1.447-2.823-3.157-5.027-5.133-6.616c0.776-1.129,2.839-1.799,6.191-2.011l4.762-0.317l5.187-0.689
	c4.093-0.881,7.32-2.609,9.685-5.186c3.033-3.387,4.834-8.308,5.397-14.764c1.059-1.271,1.587-2.752,1.587-4.445
	c0-1.588-0.405-2.964-1.217-4.128c-0.847-1.233-1.87-1.869-3.069-1.903c-1.34-0.071-2.663,0.688-3.969,2.275
	c0.459,0.776,1.41,1.904,2.857,3.387c1.27,1.233,2.116,2.54,2.54,3.916c-2.787,3.914-5.31,5.944-7.567,6.084
	c-3.104,0.177-5.838-3.228-8.202-10.213l-14.446,3.599l-12.064,2.168l7.037,13.124l-2.434-1.429c-0.74-0.317-0.916,0.105-0.529,1.27
	c1.977,2.787,3.899,6.051,5.769,9.79l4.71,9.896c1.904,3.986,3.651,7.303,5.238,9.948c2.187,3.563,4.621,6.845,7.303,9.843
	l1.481,0.053L346.735,506.736z M341.338,402.542c1.093,4.021,2.628,7.337,4.604,9.948c1.729,2.258,3.44,3.581,5.134,3.969
	c1.693,0.353,2.823-0.282,3.387-1.905c0.635-1.763,0.37-4.286-0.794-7.567c-2.434-1.728-4.356-2.874-5.769-3.439
	C345.959,402.736,343.772,402.4,341.338,402.542z M343.401,429.688c-1.904,0.353-3.457,1.288-4.657,2.805
	c-1.164,1.517-1.534,3.157-1.111,4.921c0.495,1.977,1.993,3.67,4.498,5.08c1.411-0.847,3.053-1.569,4.922-2.168
	c1.764-0.601,2.805-1.023,3.122-1.271c0.741-0.494,1.059-1.287,0.953-2.381c-0.142-1.164-0.776-3.052-1.904-5.662
	C347.424,429.706,345.483,429.264,343.401,429.688z M357.267,424.873c-0.812,1.976-0.812,3.774,0,5.397
	c0.705,1.376,1.712,2.24,3.016,2.593c1.341,0.317,2.24-0.053,2.698-1.111c0.564-1.27,0.247-3.175-0.953-5.715l-2.328-1.323
	L357.267,424.873z M398.065,490.385c-0.988-2.188-2.081-3.704-3.28-4.551c0.105,2.505,0.528,5.08,1.271,7.726
	c1.093,3.847,2.47,4.605,4.127,2.275L398.065,490.385z M389.176,461.598c-1.87-0.776-3.44-0.141-4.709,1.905
	c2.751,1.199,4.479,2.046,5.186,2.54c0.6,0.387,0.847,0.828,0.74,1.321c-0.176,0.813-0.194,1.465-0.053,1.958
	c0.317,1.166,1.252,2.664,2.805,4.498c1.729,0.424,2.559-0.282,2.486-2.116c-0.035-1.659-0.705-3.563-2.011-5.716
	C392.244,463.696,390.763,462.232,389.176,461.598L389.176,461.598z M376.476,467.207c-0.776-0.564-1.341-0.899-1.693-1.006
	l-2.382-0.37c-2.823,0.882-4.039,2.47-3.651,4.763c0.388,1.976,1.623,3.704,3.704,5.186c0.917,0.635,1.782,1.023,2.594,1.164
	c0.917,0.143,1.623-0.069,2.117-0.635C378.361,474.968,378.133,471.935,376.476,467.207z M374.623,468.159
	c1.023,2.823,1.429,4.551,1.217,5.188c-0.283,0.882-1.781,0.704-4.498-0.529c0.459-0.777,0.688-1.57,0.688-2.383l-0.158-1.586
	c-0.07-0.389,0.053-0.637,0.371-0.741L374.623,468.159L374.623,468.159z"/>
<path id="path33" fill="#1E7070" stroke="#1E7070" stroke-width="0.7" d="
	M217.669,232.835c-0.458-0.6-0.829-1.429-1.111-2.487l-0.582-2.169c-0.247-0.529-0.688-0.67-1.323-0.423
	c-0.67,0.247-1.781,1.093-3.333,2.54c-0.212,0.812-0.3,1.358-0.265,1.64l0.741,1.482c1.306,1.447,2.293,2.311,2.963,2.593
	c1.023,0.459,2.117,0.124,3.281-1.005L217.669,232.835z M140.041,234.529v14.923c11.131,3.597,22.957,7.429,33.92,9.208
	c0.283-1.235,1.323-3.299,3.122-6.191c1.729-2.787,2.664-4.109,2.805-3.969l0.318-1.005c-2.364-3.14-15.417-7.392-39.159-12.753
	L140.041,234.529z M180.257,260.723l7.302,2.805c1.976,1.659,5.01,4.445,9.102,8.361l9.313,8.467
	c0.211-0.354,0.229-0.67,0.053-0.953l-0.741-0.9c-0.741-0.987-0.758-2.222-0.053-3.704l-3.493-2.963l-4.181-3.333
	c-3.246-2.858-4.675-5.363-4.286-7.515c-0.812-0.6-1.693-0.493-2.646,0.318l-1.323,1.058l-1.535,0.899
	c-1.199-1.234-2.47-2.169-3.81-2.804C182.232,259.612,180.998,259.699,180.257,260.723z M214.124,285.276
	c12.982,13.054,23.884,25.983,32.703,38.789c12.242,17.71,18.645,32.72,19.209,45.033l3.916,6.563
	c4.41,3.916,8.943,10.97,13.6,21.166l5.503,12.33c2.117,4.657,3.951,8.291,5.503,10.901l5.08,0.317
	c2.434-0.212,4.269-0.018,5.503,0.582c1.305-5.115-0.954-13.723-6.773-25.824c-4.939-10.301-12.189-22.648-21.749-37.042
	c-8.009-12.065-16.757-24.307-26.247-36.725c-8.397-11.007-15.206-19.333-20.426-24.977c-2.082-1.481-4.675-3.81-7.779-6.985
	c-1.458-1.871-3.714-3.821-4.71-5.609l-0.476-0.371L214.124,285.276z M344.936,516.685l0.424,1.376l4.181,11.431l6.826,15.505
	l7.674,17.196l9.472,25.19l0.476,1.534l0.529,1.801l1.271,5.186l-0.106-0.899l-3.81-21.749l-0.74-3.759l-1.376-5.927l-4.498-16.087
	c-2.045-6.456-4.604-12.982-7.673-19.579c-2.646-5.857-6.173-12.859-10.583-21.009l-0.265-0.158l-1.271,1.27l-1.481-0.053v0.107
	c-0.318,1.693-0.106,4.109,0.635,7.248L344.936,516.685L344.936,516.685z M375.787,595.902l0.158,1.059l0.158,0.899l1.111,11.536
	l0.317,1.534c0.106-4.163-0.388-8.819-1.481-13.97l-0.212-0.954L375.787,595.902L375.787,595.902z M377.533,610.931v0.106
	l-0.105,2.064c-0.318,4.656-1.464,8.643-3.44,11.959c0.07,1.658,0.758,3.122,2.064,4.393c1.198,1.129,2.751,1.958,4.656,2.487
	l5.609,0.527c1.904-0.21,3.439-0.775,4.604-1.693l1.059-1.534c-1.588,0.282-3.176,0.018-4.763-0.794
	c-3.176-1.729-5.804-5.468-7.885-11.219l-1.481-4.973L377.533,610.931z M399.653,620.139c-3.704,4.162-6.262,7.196-7.673,9.102
	c1.977-0.388,3.969-1.605,5.979-3.651c2.716-2.717,5.311-6.809,7.778-12.276L399.653,620.139z M405.738,613.313l8.573-9.686
	l0.317-0.37c4.269-4.939,7.69-9.084,10.267-12.436l2.275-3.069l1.693-2.593c1.199-1.94,1.87-3.439,2.011-4.498
	c0.106-0.67,0-1.164-0.317-1.481l-0.159-0.107l-2.381-0.529c-4.938,3.423-10.071,5.486-15.398,6.191l-5.716,0.265l-3.969-0.105
	c-1.058,0-1.729,0.194-2.011,0.582c-0.283,0.459-0.176,1.287,0.317,2.487c0.671,1.622,3.511,6.614,8.521,14.976
	C408.455,606.821,407.114,610.277,405.738,613.313L405.738,613.313z M282.812,182.987h-4.128
	c4.233,10.337,10.725,25.382,19.474,45.139l22.966,52.124c6.985,16.298,10.143,24.959,9.473,25.982
	c0.706,3.81,2.77,6.879,6.191,9.208c1.233,0.812,2.945,1.747,5.133,2.805l5.82,2.752c4.938,2.504,8.785,5.45,11.536,8.837
	c3.88,4.693,6.509,10.972,7.885,18.839l2.117,3.439l0.106,0.053l1.8,2.963l0.317,0.528l3.81,5.716
	c0.177-1.235,0.866-1.659,2.065-1.27c-0.564-3.28-1.519-6.792-2.858-10.531c-4.022-6.667-8.448-13.671-13.282-21.009l-19.367-28.787
	c-7.479-11.077-13.247-19.879-17.305-26.406c-5.644-9.243-10.179-17.604-13.601-25.083c-1.34-2.963-2.557-5.874-3.65-8.731
	c-4.304-7.973-7.69-15.31-10.16-22.014c-3.81-10.337-5.662-19.773-5.557-28.311l0.053-0.635c-0.882,1.764-1.993,2.293-3.334,1.587
	C286.869,189.372,285.033,186.974,282.812,182.987L282.812,182.987z M307.313,239.556l-0.053-0.053L307.313,239.556z
	 M242.276,254.69c1.976,1.411,3.511,1.693,4.604,0.847c1.27-0.987,1.235-3.422-0.106-7.303l-3.493-2.117
	c-2.963,0.67-4.357,1.993-4.18,3.969C239.278,251.78,240.336,253.314,242.276,254.69z M238.572,258.289
	c-1.517,0.706-2.206,1.57-2.064,2.593c0.141,0.881,0.741,1.587,1.799,2.117l2.487-0.053c0.635-0.635,0.547-1.852-0.265-3.651
	L238.572,258.289L238.572,258.289z M272.387,267.443c-11.924-5.221-18.839-5.609-20.744-1.164
	c-1.517,3.563,0.211,10.319,5.186,20.268c3.21,6.35,8.449,15.151,15.716,26.406l6.932,10.795c2.046,3.281,3.281,5.485,3.704,6.615
	c6.739,9.631,10.602,12.735,11.589,9.313c0.882-2.893-0.229-9.931-3.333-21.114c-2.646-9.56-6.033-19.861-10.16-30.904
	C277.254,276.897,274.291,270.159,272.387,267.443z M361.923,347.296c-3.847,0.812-4.429,5.187-1.747,13.124
	c0.988,2.823,2.275,5.768,3.863,8.837c1.375,2.646,2.504,4.498,3.387,5.555c0.987-1.552,1.411-4.409,1.271-8.573
	c-0.07-1.693-0.054-2.751,0.053-3.175c0.177-0.741,0.617-0.847,1.322-0.318c0.67-2.047-0.053-4.797-2.169-8.256
	C366.139,351.529,364.145,349.131,361.923,347.296L361.923,347.296z M349.275,402.754c-1.164-1.165-2.84-3.317-5.027-6.457
	l-4.551-6.402c-1.305-1.553-1.922-1.623-1.852-0.212c0.07,1.659,1.094,5.591,3.069,11.801l0.424,1.059
	c2.434-0.142,4.62,0.194,6.562,1.004c1.411,0.564,3.334,1.712,5.769,3.439c0.106-0.316-0.034-0.651-0.423-1.004L349.275,402.754z
	 M325.779,409.845c-2.822-2.153-5.08-4.886-6.773-8.202c-1.233-2.471-2.363-5.715-3.387-9.737l-2.486-10.053
	c-1.094-3.775-2.47-6.828-4.127-9.156c-3.246-1.411-4.904-0.177-4.974,3.704c-0.035,3.211,1.005,8.061,3.123,14.553
	c1.728,5.186,3.915,10.83,6.562,16.934c2.257,5.186,3.969,8.731,5.133,10.635l3.863-4.074
	C323.945,413.037,324.969,411.502,325.779,409.845z M396.107,433.287c-0.247,1.658-0.212,3.051,0.106,4.179l0.37,1.059h1.271h0.423
	h0.529l2.223-0.053l1.852-0.053l1.746-1.853C400.041,432.793,397.201,431.699,396.107,433.287L396.107,433.287z M396.583,438.525
	l0.054,0.053L396.583,438.525z M406.743,440.061c0.847,1.799,1.482,3.651,1.905,5.555c0.353,1.341,0.705,3.265,1.058,5.77
	c0.494-0.706,1.111-0.513,1.852,0.582l1.641,2.697l-2.17-9.049l-3.228-10.317c-0.529,0.776-1.006,1.093-1.429,0.952
	c-0.389-0.141-0.812,0.088-1.271,0.689L406.743,440.061z M425.054,527.639l-0.529-0.317c-0.528,0.776-0.724,1.851-0.582,3.228
	c0.142,1.13,0.459,2.065,0.953,2.805l0.423,0.477c0.317,0.212,0.564,0.088,0.74-0.37c0.317-0.847,0.335-2.54,0.053-5.08
	L425.054,527.639L425.054,527.639z M336.204,351.901c1.342,0.21-1.815-6.844-9.472-21.168c-2.54-1.588-4.252-2.17-5.133-1.747
	c-0.882,0.459-0.97,2.1-0.265,4.922C330.119,345.727,335.076,351.723,336.204,351.901z M310.222,346.555
	c0.424,2.082,1.322,4.076,2.699,5.98c1.48,2.01,2.998,3.157,4.551,3.44c2.117-0.812,2.84-2.823,2.169-6.034l-1.164-3.81
	l-1.165-3.069c-2.857-1.553-4.921-1.869-6.191-0.954C310.1,342.887,309.799,344.367,310.222,346.555L310.222,346.555z
	 M330.913,366.135c-0.847,0.775-0.882,2.116-0.106,4.021c0.74,1.658,2.029,3.581,3.862,5.768c1.765,2.047,3.705,3.934,5.821,5.662
	c2.222,1.764,4.18,3,5.873,3.705l3.969-0.158c1.834-2.151-0.053-8.59-5.662-19.316l-3.069-0.369l-4.656,0.369
	C333.947,365.146,331.937,365.252,330.913,366.135L330.913,366.135z M296.728,362.642c1.976,1.129,3.599,0.67,4.87-1.377
	c-0.423-1.164-1.042-2.257-1.852-3.28l-2.381-2.593l-2.329-2.594c-0.741-1.022-1.288-2.117-1.64-3.28
	c-2.011-0.882-3.051-0.388-3.122,1.481c-0.035,1.693,0.6,3.793,1.905,6.297C293.589,359.908,295.105,361.689,296.728,362.642z
	 M400.183,495.835c-1.658,2.33-3.034,1.571-4.127-2.275c-0.741-2.646-1.165-5.221-1.271-7.726l-0.529-0.317
	c-1.446,0.739-2.293,1.905-2.54,3.492c-0.177,1.411,0.088,2.929,0.793,4.551c0.741,1.553,1.712,2.857,2.911,3.916
	c1.271,1.059,2.506,1.553,3.704,1.481L400.183,495.835z M393.145,473.821c-1.553-1.834-2.487-3.332-2.805-4.498
	c-0.142-0.493-0.123-1.146,0.053-1.958c0.106-0.493-0.142-0.934-0.74-1.321c-0.705-0.494-2.434-1.341-5.187-2.54l0.583,3.122
	l1.217,1.586l1.535,1.483l2.064,2.168C391.698,473.697,392.791,474.351,393.145,473.821L393.145,473.821z M375.84,473.346
	c0.212-0.637-0.193-2.364-1.217-5.188l-2.382-0.053c-0.318,0.105-0.441,0.353-0.371,0.741l0.158,1.586
	c0,0.812-0.229,1.605-0.688,2.383C374.059,474.05,375.557,474.227,375.84,473.346L375.84,473.346z"/>
<path id="path29" fill="#00035C" stroke="#00035C" stroke-width="0.5" d="
	M148.453,182.987h-1.375c1.622,2.187,3.351,4.85,5.186,7.99l5.133,8.731c4.162,7.197,7.708,12.312,10.636,15.346
	c4.304,4.48,9.014,6.862,14.129,7.144c6.033,0.317,13.089-2.206,21.167-7.567c-3.669-2.611-4.921-4.357-3.757-5.239
	c0.987-0.777,3.016-0.812,6.085-0.106c3.069,0.706,4.868,1.624,5.397,2.752c0.635,1.305-1.305,2.363-5.821,3.175
	c-0.6,0.882,0.035,2.911,1.905,6.085c1.834,2.999,3.423,4.921,4.763,5.768l-1.005,1.746c-0.247,0.6-0.106,1.093,0.423,1.482
	c1.553-1.447,2.664-2.293,3.333-2.54c0.635-0.247,1.077-0.106,1.323,0.423l0.582,2.169c0.283,1.059,0.653,1.888,1.111,2.487
	c0.07-0.67,0.547-1.059,1.429-1.164l3.228-0.212c3.316-0.177,5.485-1.358,6.509-3.545c1.764,1.376,3.934,1.887,6.509,1.535
	c2.434-0.389,5.062-1.5,7.885-3.334c2.787-1.834,5.468-4.197,8.043-7.091c2.681-3.033,4.991-6.35,6.932-9.949
	c4.48-8.255,6.28-16.246,5.397-23.971l-0.317-2.117H170.89l-0.317,0.105C166.728,190.36,159.355,190.325,148.453,182.987z
	 M180.204,247.494l-0.317,1.005c0.777,0.529,2.681,1.058,5.715,1.587l8.467,1.587c3.315,0.741,5.697,1.641,7.144,2.699
	c1.905,1.27,2.487,2.892,1.747,4.868l4.498,4.075c1.199,1.164,1.94,2.223,2.223,3.175c0.354,1.023,0.247,2.188-0.317,3.493
	c-0.493,1.2-1.482,2.823-2.963,4.869c2.434,0.917,4.374,2.134,5.821,3.651l1.958,2.223c3.114,4.222,4.269,4.284,7.991,8.679
	c3.104,3.175,5.697,5.503,7.779,6.985c1.693-1.728,2.963-2.751,3.81-3.069c0.741-0.283,1.27-0.106,1.587,0.529l0.794,2.223
	c0.352,1.058,0.829,1.799,1.429,2.223c1.94-1.341,3.545-3.334,4.815-5.98c1.411-2.963,2.064-6.155,1.958-9.578
	c-0.141-4.021-1.359-7.938-3.651-11.748c-2.681-4.445-6.721-8.555-12.118-12.33c-0.211-1.305-0.829-1.764-1.852-1.376
	c-0.882,0.354-1.587,1.042-2.117,2.064c-1.693,2.434-3.334,2.892-4.921,1.375c-1.411-1.375-2.169-3.527-2.275-6.456
	c-0.07-3.175,0.794-5.451,2.593-6.827c2.188-1.728,5.38-1.604,9.578,0.371c6.173-4.974,6.368-8.432,0.582-10.372
	c-1.587-0.529-4.039-1.023-7.355-1.482l-4.763-0.953c-1.164,1.129-2.257,1.465-3.281,1.005c-0.67-0.282-1.657-1.146-2.963-2.593
	c-2.54,6.844-5.363,9.613-8.467,8.308c-1.164-0.494-2.487-1.624-3.969-3.387l-3.916-5.08c-1.552-2.011-2.839-3.405-3.863-4.181
	c-1.376-1.058-2.629-1.288-3.757-0.688C185.072,229.731,182.532,236.098,180.204,247.494L180.204,247.494z M212.06,199.444
	c0.247,0.564,0.299,1.111,0.159,1.641c-0.141,0.6-0.617,1.359-1.429,2.275c-1.905,0.141-3.863-0.67-5.874-2.434
	c-1.764-1.587-2.981-3.334-3.651-5.239c-0.67-1.976-0.354-3.104,0.952-3.387c1.553-0.354,4.215,0.706,7.991,3.175
	c0.141,0.777,0.423,1.553,0.847,2.329L212.06,199.444z M214.071,250.774c-0.775,2.61-1.905,3.599-3.387,2.963
	c-1.234-0.493-2.381-1.852-3.439-4.075c-0.987-2.187-1.305-3.845-0.953-4.974c0.458-1.341,1.782-1.235,3.969,0.317
	c0.106,0.564,0.688,1.5,1.747,2.805L214.071,250.774z M375.311,361.372l-3.811-5.716l-0.317-0.528
	c0.67,1.234,1.13,2.293,1.376,3.175c0.424,1.305,0.353,1.869-0.212,1.693c-0.563-0.176-1.287-0.988-2.169-2.433
	c-0.987-1.729-1.834-3.81-2.54-6.246l1.641,0.794l-2.117-3.439c-0.389,0.529-0.829,0.688-1.323,0.476l-1.322-1.111l-1.322-1.164
	c-0.459-0.248-0.883-0.107-1.27,0.423c2.223,1.835,4.215,4.233,5.979,7.197c2.116,3.458,2.839,6.209,2.169,8.256l2.276,5.662
	c1.341,3.068,2.222,5.397,2.646,6.984c1.623,5.293,0.071,6.298-4.657,3.016c-0.988,3-2.574,5.54-4.762,7.62l-6.191,4.498
	c-2.823,1.764-4.834,3.281-6.033,4.551c-1.976,2.047-3.334,4.604-4.074,7.675l3.969,3.228c0.389,0.353,0.529,0.689,0.423,1.004
	c1.164,3.281,1.429,5.805,0.794,7.567c-0.563,1.624-1.693,2.258-3.387,1.905c-1.693-0.388-3.404-1.711-5.134-3.969
	c-1.976-2.61-3.51-5.927-4.604-9.948l-0.424-1.059l-3.334,4.021c-1.093,1.376-2.081,2.841-2.963,4.393
	c5.15,3.599,7.55,6.421,7.196,8.467c-0.282,1.693-2.328,2.752-6.138,3.175c-3.141,0.353-6.687,0.265-10.637-0.265
	c-3.774-0.6-5.873-1.27-6.297-2.011c-2.646,1.87-5.027,2.699-7.145,2.487l-2.646-0.477l-3.281,0.053
	c3.704,8.467,6.756,14.111,9.155,16.934c1.481,1.693,2.54,2.258,3.175,1.693l-0.158,0.529c-0.635,2.505-1.146,7.25-1.535,14.236
	l0.583,0.792l12.064-2.168l14.446-3.599c0.636-0.67,1.429-1.111,2.382-1.323l2.646-0.265l2.752-0.265
	c1.023-0.246,1.888-0.688,2.593-1.321c1.306-1.588,2.629-2.347,3.969-2.275c1.199,0.035,2.223,0.67,3.069,1.904
	c0.812,1.165,1.217,2.54,1.217,4.127c0,1.693-0.528,3.175-1.587,4.445c-0.563,6.456-2.364,11.377-5.397,14.764
	c-2.364,2.575-5.592,4.304-9.685,5.187l-5.186,0.688l-4.763,0.317c-3.352,0.212-5.415,0.882-6.191,2.011
	c1.976,1.588,3.686,3.794,5.133,6.616c0.847,1.586,1.993,4.286,3.44,8.095c1.375,3.599,2.54,6.263,3.493,7.992
	c1.551,2.716,3.368,4.815,5.45,6.297l0.265,0.159l15.188-0.317l10.213-1.165c2.929-0.846,5.662-2.416,8.202-4.708
	c2.575-2.329,5.627-5.998,9.155-11.007c0.353,0.317,0.988,1.252,1.904,2.805l2.54,4.126c2.294,3.353,3.97,4.269,5.027,2.752
	c0.741-0.353,1.535,0.212,2.382,1.693c0.74,1.305,1.411,3.141,2.012,5.504c0.563,2.222,0.935,4.392,1.111,6.509
	c0.175,2.188,0.088,3.774-0.265,4.763c1.517,1.023,2.433,2.364,2.751,4.022c0.283,1.41,0.07,2.646-0.636,3.704
	c-0.705,1.058-1.64,1.446-2.805,1.164c-1.305-0.389-2.522-1.658-3.651-3.81c-4.409,7.797-6.544,14.552-6.401,20.267
	c0.141,4.975,2.028,9.525,5.662,13.654c2.646,2.893,7.02,6.367,13.123,10.424l7.885,5.134c3.14,2.046,5.804,3.915,7.991,5.608
	c1.904-3.704,2.751-8.096,2.54-13.176c-0.142-3.456-0.936-8.271-2.381-14.446c-1.658-7.303-2.663-12.33-3.017-15.081l-0.21-1.482
	l-0.424-0.476c-0.494-0.74-0.812-1.676-0.952-2.805c-0.142-1.376,0.053-2.451,0.582-3.229l0.529,0.317
	c0.034-2.682,0.335-5.186,0.899-7.514c-5.715-11.359-9.648-19.791-11.801-25.294c-2.011-5.115-3.175-9.42-3.492-12.912l-0.107-5.08
	l0.212-5.927c0.142-5.856-0.212-12.365-1.059-19.526c-0.353-2.505-0.705-4.428-1.057-5.769c-0.424-1.904-1.059-3.758-1.905-5.556
	c-0.07,6.21-0.759,10.002-2.063,11.377c-0.564,0.564-1.323,0.777-2.277,0.636l-2.857-1.111l-3.332-1.641
	c-1.376-0.564-2.63-0.864-3.759-0.899c-2.998-0.141-5.697,1.57-8.095,5.134c-6.21-3.775-9.051-6.88-8.521-9.314
	c0.46-1.904,3.034-3.351,7.728-4.339c3.316-0.705,7.549-1.146,12.7-1.323l0.317-0.053l-0.37-1.059
	c-0.319-1.129-0.354-2.521-0.107-4.18l1.481-4.763c1.307-4.092,2.312-8.167,3.017-12.224l-0.317-0.583
	c-0.917-0.67-1.729-2.029-2.435-4.074l-1.429-4.869l-9.102-21.113l-5.979-12.119L375.311,361.372z M318.107,439.849l-0.106,0.105
	l0.318-0.582L318.107,439.849z M338.744,432.493c1.199-1.517,2.752-2.452,4.657-2.805c2.082-0.424,4.022,0.018,5.821,1.323
	c1.129,2.609,1.763,4.498,1.904,5.662c0.106,1.093-0.211,1.887-0.953,2.381c-0.317,0.247-1.358,0.67-3.122,1.271
	c-1.869,0.6-3.51,1.321-4.922,2.168c-2.505-1.41-4.003-3.104-4.498-5.08C337.211,435.65,337.581,434.01,338.744,432.493
	L338.744,432.493z M357.267,430.271c-0.812-1.623-0.812-3.422,0-5.397l2.434-0.159l2.328,1.323c1.2,2.54,1.518,4.445,0.953,5.715
	c-0.459,1.059-1.358,1.429-2.698,1.111C358.977,432.511,357.972,431.646,357.267,430.271z M394.785,485.834
	c1.199,0.847,2.294,2.363,3.28,4.551l2.116,5.45l-1.059,3.122c-1.199,0.071-2.434-0.423-3.704-1.481
	c-1.199-1.059-2.169-2.363-2.911-3.916c-0.705-1.622-0.97-3.14-0.793-4.551c0.247-1.586,1.094-2.752,2.54-3.492L394.785,485.834z
	 M384.465,463.503c1.271-2.046,2.84-2.682,4.71-1.905c1.587,0.635,3.068,2.099,4.444,4.393c1.306,2.151,1.976,4.057,2.011,5.715
	c0.07,1.834-0.758,2.54-2.486,2.116c-0.354,0.529-1.446-0.122-3.28-1.958l-2.064-2.168l-1.535-1.483l1.429,2.383l3.229,5.292
	c3.034,5.221,4.198,8.343,3.493,9.366c-3.493-2.505-6.351-6.562-8.573-12.171c-0.776-2.082-1.253-3.811-1.429-5.188
	c-0.177-1.34,0.035-1.763,0.635-1.27L384.465,463.503z M374.782,466.201c0.353,0.107,0.917,0.441,1.693,1.006
	c1.657,4.728,1.888,7.761,0.688,9.102c-0.494,0.564-1.199,0.777-2.117,0.635c-0.812-0.141-1.675-0.529-2.594-1.164
	c-2.081-1.481-3.316-3.21-3.704-5.186c-0.388-2.294,0.828-3.881,3.651-4.763L374.782,466.201z"/>
<path id="path13" fill="#00035C" stroke="#00035C" stroke-width="0.7" d="
	M4.148,53.286c-1.376,0.106-2.752,0.106-4.127,0v4.075l2.011,1.376c6.138,4.269,10.689,8.167,13.653,11.695
	c3.14,3.633,3.492,5.662,1.058,6.085c-2.611,0.494-8.184-1.093-16.722-4.763v78c1.093,8.149,3.333,15.275,6.72,21.379
	c5.045,9.102,13.441,17.798,25.189,26.088c0.811-2.116-1.624-8.149-7.303-18.098c-2.011-3.598-4.093-7.02-6.244-10.266
	c-1.905-3.035-3.034-4.657-3.387-4.869c-0.777-1.305-1.394-2.894-1.852-4.763l-0.9-4.868c-0.353-1.976-0.793-3.563-1.323-4.763
	c-0.706-1.623-1.729-3.016-3.069-4.181c0.493-0.706,1.394-1.252,2.699-1.64c1.587-0.494,2.787-1.059,3.599-1.693
	c-2.153-4.057-2.858-7.109-2.117-9.155c0.706-1.87,2.593-3.034,5.662-3.493c2.54-0.388,6.155-0.317,10.848,0.212l13.388,1.852
	l13.441,1.587c4.621,0.212,8.22-0.07,10.795-0.847c6.491-1.976,7.691-7.531,3.599-16.669l3.439-11.06L74,102.923
	c0.211-0.141,0.405-0.018,0.582,0.371l1.587,4.127c0.988,2.293,2.312,4.022,3.969,5.186c0.495-1.659,0.547-3.422,0.159-5.292
	c-0.177-0.952-0.67-2.593-1.482-4.921c-0.706-2.081-1.129-3.757-1.27-5.027c-0.177-1.905,0.106-3.704,0.847-5.397l1.005-7.991
	l0.159-1.005l0.212,0.159c1.34,2.434,3.563,3.387,6.667,2.857c1.482-0.952,2.223-0.899,2.223,0.159l-0.371,2.064l-0.106,0.582
	l0.423-0.476c0.988-0.812,2.981-0.829,5.98-0.053l0.265-1.005c-1.799-5.468-2.258-9.031-1.376-10.689
	c0.706-1.376,2.522-1.641,5.451-0.794l4.445,1.481l5.186,1.853c4.374,1.446,8.007,2.045,10.901,1.799l1.111-1.164l1.693-1.481
	c1.481-0.918,2.187,0.211,2.117,3.387c1.447,2.363,0.881,4.585-1.693,6.667c-0.883,0.706-2.064,1.463-3.545,2.275l-3.387,1.64
	l1.693-0.37l4.339-1.059c4.833-1.093,8.961-1.781,12.382-2.063c4.939-0.423,8.273,0,10.001,1.27
	c2.187,1.587,1.817,4.462-1.111,8.625c-7.267,1.27-11.359,2.487-12.277,3.651c-0.706,0.917,0.706,2.011,4.233,3.281l12.171,3.757
	c5.433,1.728,9.295,3.404,11.589,5.027h1.111c2.011-1.87,3.651-2.681,4.921-2.434c1.447,0.317,1.799,2.151,1.059,5.503
	c3.104,1.659,5.115,3.104,6.033,4.339c1.375,1.658,2.029,4.145,1.958,7.461l0.265,0.211c0.212,0.141,0.582,1.111,1.111,2.911
	c0.564,1.976,1.005,4.003,1.323,6.085c0.917,5.856,0.388,9.243-1.588,10.16l-0.159,0.265c0.318,3.457,0.741,6.543,1.27,9.26
	l1.111-0.793l2.434,1.111c0.106,1.834-0.211,3.033-0.952,3.598l-1.535,0.159c0.387,1.27,0.811,2.417,1.27,3.44
	c0.987,2.117,1.993,3.51,3.016,4.18c-1.799,0-4.463,0.829-7.99,2.487l-0.9,5.45c0.847,0.142,1.429,0.406,1.747,0.794
	c0.494,0.6,0.37,1.376-0.371,2.329c-0.67,0.847-1.57,1.517-2.699,2.011c56.58,13.438,126.596,20.086,71.333-29.528
	c-1.517-2.576-2.945-4.111-4.286-4.604c-1.764-0.67-3.563,0.299-5.397,2.911c-6.421-0.918-8.978-2.011-7.673-3.281
	c0.564-0.564,1.799-1.217,3.704-1.958l6.086-2.222c5.892-2.082,9.649-3.899,11.271-5.451c2.505-2.363,1.411-4.78-3.281-7.25
	c-11.959,4.268-22.083,5.15-30.375,2.646c-3.458-1.094-6.35-2.699-8.678-4.816c-2.081-1.976-3.493-4.215-4.233-6.72
	c-0.706-2.399-0.652-4.71,0.159-6.932c0.881-2.329,2.434-4.215,4.657-5.663c2.434-1.587,5.45-2.469,9.049-2.646
	c4.021-0.247,8.52,0.37,13.494,1.852l0.371-0.529l-2.857-4.657l-4.022-5.927c-3.316-5.115-4.833-8.502-4.551-10.16l-0.265-1.905
	c-0.177-0.67-0.211-1.306-0.106-1.905c-1.199,0.071-2.434,0.582-3.704,1.535l-3.334,3.069l-3.439,3.122
	c-1.34,1.023-2.681,1.658-4.021,1.905c-5.75,5.292-10.319,7.479-13.706,6.562c-2.681-0.777-4.727-3.582-6.138-8.414
	c-0.635-2.151-1.447-6.597-2.434-13.335c-0.706-5.01-1.553-7.85-2.54-8.52c4.057-17.039,8.766-24.377,14.129-22.014
	c1.235,0.564,2.469,1.641,3.704,3.228c-0.211-1.164-0.159-2.345,0.159-3.545c0.777-2.751,2.84-5.133,6.191-7.144
	c-1.341-0.246-1.799-1.129-1.376-2.646c0.389-1.447,1.394-2.911,3.017-4.392c1.763-1.659,3.669-2.752,5.715-3.281
	c2.434-0.635,4.657-0.352,6.667,0.847l2.964-3.969c1.129-1.27,2.399-2.24,3.81-2.91c1.588-0.847,3.317-1.429,5.186-1.747
	c1.976-0.317,3.704-0.282,5.186,0.106c1.693,0.423,2.857,1.235,3.493,2.434c0.776,1.306,0.829,3.017,0.159,5.133
	c3.457,2.399,7.99,2.733,13.6,1.005c2.258-0.67,4.339-1.588,6.244-2.752c1.834-1.129,3.123-2.223,3.863-3.281l-1.323-2.751
	c-0.852-5.398,10.179-3.494,3.44-16.352c-1.093-1.624-2.875-3.528-5.345-5.715l-1.482-1.323h-30.375l-0.159,0.211v-0.211H168.88
	c-0.953,1.553-2.293,2.169-4.021,1.852l-0.371-1.852H50.769l-0.211,0.317L40.344,13.757c-1.976,6.068-4.622,11.836-7.938,17.304
	c-3.74,6.209-7.85,11.201-12.33,14.976C14.96,50.341,9.652,52.757,4.148,53.286z M182.003,170.075
	c-0.177-0.07-0.371-0.159-0.582-0.265h0.265c0.564,0.035,0.865,0.141,0.899,0.317L182.003,170.075L182.003,170.075z M0.021,34.236
	h0.105h0.371H0.021z M32.564,14.498c4.763-4.093,9.102-8.22,13.018-12.383l2.911-3.122h-2.805
	c-5.045,6.738-9.542,11.765-13.494,15.082L32.564,14.498z M66.167,64.24c-2.575,8.22-4.956,14.782-7.144,19.686
	c-7.479,16.722-14.923,19.791-22.332,9.208c-0.423-8.079-0.529-14.341-0.317-18.786c0.354-6.668,1.447-11.907,3.281-15.717
	c2.223-4.621,5.592-7.479,10.107-8.572c5.115-1.306,11.835-0.423,20.162,2.646l-1.429,3.916L66.167,64.24z M13.99,125.678
	c-1.905,2.187-3.563,2.786-4.974,1.799c-1.164-0.812-1.852-2.434-2.063-4.868c-0.212-2.399,0.124-4.233,1.005-5.503
	c1.093-1.517,2.593-1.587,4.498-0.212l0.37,4.498C13.073,122.979,13.462,124.407,13.99,125.678z M88.286,91.863
	c-0.283-0.812-0.423-1.5-0.423-2.064l-0.212,0.794c-0.635,2.328-0.899,3.987-0.793,4.974c0.177,1.482,1.146,2.047,2.91,1.693
	l2.435,2.381c1.235,1.058,2.117,1.323,2.646,0.794c-1.164-0.953-2.381-2.206-3.651-3.757C89.821,94.879,88.851,93.274,88.286,91.863
	z M96.488,143.458l-5.715,4.868c-0.883,0.953-1.059,1.641-0.529,2.064c0.388,0.247,1.64,0.67,3.757,1.27
	c2.646,0.67,4.991,1.447,7.038,2.328v-1.164l-1.429-5.186C98.906,145.804,97.864,144.41,96.488,143.458z M141.362,171.081
	c0.458,0.495,0.794,1.165,1.005,2.011l0.529,2.54c0.564,2.469,1.87,4.797,3.916,6.985l0.265,0.371h1.375l-1.058-0.688
	c-0.283-3.599,2.223-5.945,7.514-7.038l6.615-0.847l5.345-0.476c5.221-4.551,2.823-6.456-7.197-5.715l-11.536,1.482L141.362,171.081
	z M47.17,215.267c1.234-1.728,0.211-4.057-3.069-6.985c-1.305-1.164-2.77-2.223-4.392-3.175c-1.553-0.917-2.875-1.499-3.969-1.746
	c0.635,2.787,1.746,4.815,3.333,6.085l2.593,1.799c1.27,0.847,2.399,1.711,3.387,2.593L47.17,215.267z M124.377,18.149
	c-0.67,2.151-0.177,3.897,1.481,5.239c0.635,0.529,1.517,1.058,2.646,1.587l2.857,1.323c2.329,1.093,3.651,2.206,3.969,3.334
	c0.494,1.623-0.564,3.81-3.175,6.562c-1.411-0.564-2.593-0.282-3.545,0.847c-0.777,0.953-1.447,2.611-2.011,4.975
	c-0.353,1.517-0.794,3.951-1.323,7.302l-1.323,7.885c-1.235,6.104-3.087,9.684-5.557,10.742c-3.281,1.411-8.061-1.093-14.34-7.514
	c0.458-1.447-0.458-3.157-2.752-5.133l-3.492-2.699l-3.81-2.963c-2.929-2.505-4.71-4.921-5.345-7.25
	c-0.812-3.14,0.177-6.509,2.963-10.107c2.293-1.517,4.833-3.81,7.62-6.879l6.297-6.773c2.435-2.082,4.957-3.228,7.567-3.44
	C116.315,14.903,120.073,15.892,124.377,18.149z M139.617,71.754c-1.976,0.847-4.498,1.059-7.567,0.635
	c-3.104-0.423-5.292-1.341-6.562-2.752c-1.482-1.693-1.147-3.651,1.005-5.874c4.833-1.27,9.825-0.089,14.976,3.545
	C142.492,69.286,141.875,70.767,139.617,71.754z M153.429,73.395c0.706,4.057,0.441,6.544-0.794,7.461
	c-1.058,0.741-2.416,0.317-4.075-1.27c-1.658-1.553-2.593-3.246-2.805-5.08c-0.211-2.117,0.829-3.422,3.122-3.916L153.429,73.395z
	 M168.456,97.155c1.235,6.81,4.075,13.388,8.52,19.738c6.055,6.553-6.339-3.429-7.673-4.392l-2.646-4.604
	c-1.587-2.717-2.717-4.852-3.387-6.403C161.119,96.273,162.847,94.827,168.456,97.155z M253.495,127.794
	c-1.129-0.811-1.94-1.252-2.435-1.323l-2.751,0.476l-2.169,0.318c0.211,0.811,0.617,1.34,1.217,1.587l2.011,0.053l2.381-0.265
	l2.381,0.477L253.495,127.794z M233.598,159.492c-0.635-2.151-0.335-3.828,0.899-5.027c1.482-1.482,3.969-1.571,7.461-0.265
	l-0.953,2.805c-0.07,0.741,0.371,1.446,1.323,2.116c-1.693,3-3.476,4.339-5.345,4.022c-0.777-0.106-1.482-0.512-2.117-1.217
	C234.303,161.256,233.88,160.444,233.598,159.492z M223.014,174.997c0.741,1.764,0.758,3.069,0.053,3.916
	c-0.564,0.741-1.429,0.987-2.593,0.741c-1.129-0.317-1.923-0.971-2.381-1.958c-0.494-1.199-0.23-2.54,0.793-4.021l1.376,0.053
	L223.014,174.997L223.014,174.997z M213.753,145.31l0.953-0.477c0.423-0.035,0.936,0.177,1.535,0.635
	c0.07,0.635-0.653,1.799-2.17,3.492c-1.447,1.624-2.875,2.894-4.286,3.811c-1.517,1.023-2.311,1.093-2.381,0.211
	c-0.035-1.164,1.111-3.669,3.439-7.514L213.753,145.31z M100.192,134.779l-0.37,0.529c1.622,3.492,3.051,5.961,4.286,7.408
	c1.129,1.27,1.958,1.535,2.487,0.794c0.493-0.706,0.564-2.206,0.211-4.498c-0.353-2.47-1.146-5.327-2.381-8.573l-1.746,2.858
	C101.975,134.321,101.145,134.814,100.192,134.779z M135.225,154.359c0.776-1.482,0.282-2.963-1.482-4.445
	c-1.553-1.305-3.792-2.381-6.72-3.228c-2.823-0.847-5.451-1.252-7.885-1.217c-2.646,0.035-4.357,0.6-5.133,1.693
	c1.659,0,2.963,0.37,3.916,1.111c0.953,0.706,1.659,1.887,2.117,3.545l4.339-0.106c0.953,0.247,2.311,0.812,4.075,1.693
	c1.728,0.847,2.963,1.376,3.704,1.587C133.39,155.276,134.413,155.064,135.225,154.359z M157.397,89.165
	c-0.071-1.165,0.6-2.082,2.011-2.752l2.487,1.429c0.353,2.082,0.141,3.423-0.635,4.022c-0.635,0.529-1.429,0.458-2.381-0.212
	C157.961,90.981,157.467,90.152,157.397,89.165z"/>
<path id="path35" fill="#000017" stroke="#000017" stroke-width="0.5" d="
	M258.204,209.075c-1.94,3.599-4.251,6.916-6.932,9.949c-2.575,2.894-5.257,5.257-8.043,7.091c-2.823,1.834-5.451,2.945-7.885,3.334
	c-2.575,0.353-4.745-0.159-6.509-1.535c-1.023,2.188-3.193,3.369-6.509,3.545l-3.228,0.212c-0.882,0.105-1.359,0.493-1.429,1.164
	l0.37,2.169l4.763,0.953c3.317,0.458,5.768,0.953,7.355,1.482c5.786,1.939,5.592,5.397-0.582,10.372
	c-4.198-1.976-7.39-2.099-9.578-0.371c-1.799,1.376-2.663,3.651-2.593,6.827c0.106,2.928,0.865,5.08,2.275,6.456
	c1.587,1.517,3.228,1.059,4.921-1.375c0.529-1.023,1.235-1.711,2.117-2.064c1.023-0.388,1.641,0.071,1.852,1.376
	c5.397,3.775,9.438,7.885,12.118,12.33c2.293,3.81,3.511,7.726,3.651,11.748c0.106,3.423-0.547,6.615-1.958,9.578
	c-1.27,2.646-2.875,4.639-4.815,5.98c-0.6-0.423-1.077-1.165-1.429-2.223l-0.794-2.223c-0.317-0.635-0.847-0.811-1.587-0.529
	c-0.847,0.317-2.117,1.34-3.81,3.069c5.221,5.644,12.03,13.97,20.426,24.977c9.49,12.418,18.238,24.66,26.247,36.725
	c9.56,14.394,16.81,26.741,21.749,37.042c5.82,12.102,8.078,20.709,6.773,25.824l0.529,0.37l3.281-0.053l2.646,0.477
	c2.117,0.212,4.498-0.617,7.145-2.487l0.105-0.741c-1.164-1.903-2.875-5.45-5.133-10.635c-2.646-6.104-4.834-11.748-6.563-16.934
	c-2.116-6.492-3.157-11.341-3.122-14.553c0.07-3.881,1.728-5.115,4.974-3.704c1.658,2.329,3.033,5.38,4.127,9.156l2.486,10.053
	c1.023,4.023,2.153,7.268,3.387,9.737c1.693,3.316,3.951,6.049,6.773,8.202c0.987,0.705,2.399,0.969,4.233,0.792l4.604-0.739
	c0.881-1.552,1.87-3.017,2.963-4.393l3.334-4.021c-1.976-6.209-2.999-10.143-3.069-11.801c-0.069-1.41,0.547-1.341,1.852,0.212
	l4.551,6.401c2.188,3.141,3.862,5.293,5.027,6.458c0.74-3.07,2.1-5.628,4.074-7.675c1.199-1.27,3.21-2.786,6.032-4.551l6.191-4.498
	c2.188-2.081,3.774-4.621,4.763-7.62l-1.164-2.064l-1.746-1.536c-0.883-1.057-2.012-2.911-3.387-5.555
	c-1.588-3.069-2.876-6.015-3.863-8.837c-2.682-7.938-2.1-12.313,1.746-13.124c0.388-0.529,0.813-0.671,1.271-0.423l1.321,1.164
	l1.323,1.111c0.494,0.21,0.935,0.053,1.323-0.476c-1.376-7.867-4.005-14.147-7.885-18.839c-2.752-3.387-6.598-6.332-11.536-8.837
	l-5.821-2.752c-2.188-1.058-3.898-1.993-5.133-2.805c-3.422-2.328-5.485-5.397-6.191-9.208c0.67-1.023-2.487-9.684-9.472-25.982
	l-22.966-52.124c-8.75-19.756-15.24-34.802-19.474-45.139C261.91,171.657,262.764,165.073,258.204,209.075L258.204,209.075z
	 M211.319,230.295c-0.529-0.389-0.67-0.882-0.423-1.482l1.005-1.746c-1.34-0.847-2.929-2.77-4.763-5.768
	c-1.87-3.175-2.504-5.204-1.905-6.085l-1.905-0.582c-8.078,5.362-15.134,7.885-21.167,7.567c-5.115-0.283-9.825-2.664-14.129-7.144
	c-2.928-3.034-6.474-8.149-10.636-15.346l-10.52-16.811c-76.471-4.582,33.409,118.479,40.947,45.492
	c1.129-0.6,2.381-0.37,3.757,0.688c1.023,0.777,2.311,2.17,3.863,4.181l3.916,5.08c1.482,1.763,2.805,2.893,3.969,3.387
	c3.104,1.305,5.927-1.464,8.467-8.308l-0.741-1.482C211.02,231.653,211.107,231.107,211.319,230.295z M292.071,182.987h-9.261
	c2.223,3.987,4.057,6.385,5.503,7.197c1.341,0.706,2.453,0.177,3.334-1.588C291.684,186.691,291.825,184.821,292.071,182.987z
	 M291.648,188.596v-0.053V188.596z M246.88,255.537c-1.093,0.847-2.628,0.564-4.604-0.847c-1.94-1.376-2.998-2.911-3.175-4.604
	c-0.177-1.976,1.217-3.298,4.18-3.969l3.493,2.117C248.115,252.115,248.15,254.55,246.88,255.537z M206.398,274.852
	c1.481-2.047,2.47-3.669,2.963-4.869c0.564-1.305,0.67-2.469,0.317-3.493c-0.283-0.952-1.023-2.011-2.223-3.175l-4.498-4.075
	l-2.487,0.212l-2.752,0.053c-2.151,0.105-3.633,0.6-4.445,1.481c-0.389,2.153,1.041,4.657,4.286,7.515l4.181,3.333l3.493,2.963
	L206.398,274.852z M236.508,260.882c-0.141-1.023,0.547-1.888,2.064-2.593l1.958,1.005c0.812,1.799,0.899,3.017,0.265,3.651
	l-2.487,0.053C237.25,262.469,236.65,261.763,236.508,260.882L236.508,260.882z M251.644,266.279
	c1.905-4.445,8.819-4.057,20.744,1.164c1.905,2.717,4.868,9.454,8.89,20.214c4.127,11.043,7.514,21.344,10.16,30.904
	c3.104,11.184,4.215,18.222,3.333,21.114c-0.987,3.422-4.85,0.317-11.589-9.313c-0.423-1.129-1.658-3.334-3.704-6.615l-6.932-10.795
	c-7.268-11.253-12.506-20.056-15.717-26.406C251.854,276.598,250.126,269.843,251.644,266.279z M371.183,355.128l-1.799-2.964
	l-0.106-0.053l-1.641-0.793c0.706,2.434,1.553,4.516,2.54,6.245c0.881,1.446,1.605,2.257,2.169,2.433
	c0.564,0.176,0.636-0.388,0.212-1.693C372.313,357.421,371.853,356.362,371.183,355.128L371.183,355.128z M396.267,438.577
	c-5.15,0.177-9.383,0.618-12.7,1.323c-4.692,0.988-7.268,2.435-7.727,4.339c-0.529,2.435,2.312,5.54,8.521,9.315
	c2.398-3.564,5.099-5.275,8.096-5.135c1.129,0.035,2.381,0.335,3.758,0.899l3.333,1.641l2.857,1.111
	c0.953,0.142,1.713-0.069,2.276-0.635c1.305-1.376,1.993-5.168,2.063-11.377l-1.64-3.122l-0.477-0.372l-1.746,1.853l-1.852,0.053
	l-2.223,0.053h-0.528h-0.424l-1.217,0.053L396.267,438.577L396.267,438.577z M428.388,578.015c-2.188-1.693-4.852-3.562-7.991-5.607
	l-7.885-5.135c-6.103-4.057-10.478-7.531-13.124-10.424c-3.633-4.127-5.521-8.678-5.662-13.653
	c-0.142-5.715,1.993-12.471,6.402-20.268c0.318-1.586,0.74-2.716,1.27-3.387c0.564-0.67,1.588-1.234,3.069-1.693
	c0.353-0.987,0.44-2.575,0.265-4.763c-0.177-2.116-0.547-4.286-1.111-6.509c-0.6-2.363-1.27-4.198-2.011-5.503
	c-0.847-1.481-1.641-2.046-2.382-1.693c-1.058,1.517-2.734,0.6-5.027-2.752l-2.54-4.127c-0.917-1.552-1.552-2.486-1.904-2.804
	c-3.528,5.009-6.58,8.677-9.156,11.007c-2.539,2.293-5.273,3.861-8.202,4.708l-10.213,1.164l-15.188,0.317
	c4.41,8.149,7.938,15.152,10.584,21.009c3.069,6.597,5.627,13.123,7.673,19.579l4.498,16.087l1.376,5.927l0.739,3.759l3.811,21.749
	l0.157,1.004l0.212,0.954c1.094,5.149,1.588,9.807,1.481,13.97l0.319,1.323l1.481,4.973c2.081,5.751,4.708,9.49,7.885,11.219
	c1.586,0.812,3.175,1.076,4.763,0.794c1.41-1.905,3.969-4.939,7.673-9.102l6.084-6.827c1.376-3.034,2.717-6.49,4.023-10.371
	c-5.011-8.361-7.85-13.354-8.521-14.976c-0.493-1.199-0.6-2.029-0.317-2.487c0.283-0.388,0.954-0.582,2.011-0.582l3.969,0.105
	l5.717-0.265c5.326-0.705,10.46-2.769,15.397-6.191L428.388,578.015z M326.732,330.733c7.656,14.324,10.813,21.378,9.472,21.168
	c-1.129-0.178-6.085-6.173-14.869-17.992c-0.705-2.822-0.617-4.463,0.265-4.922C322.48,328.562,324.192,329.144,326.732,330.733z
	 M312.922,352.535c-1.377-1.905-2.275-3.899-2.699-5.98c-0.423-2.188-0.122-3.668,0.9-4.445c1.27-0.917,3.333-0.6,6.191,0.954
	l1.164,3.069l1.164,3.81c0.671,3.211-0.053,5.222-2.169,6.034C315.92,355.692,314.402,354.544,312.922,352.535z M330.807,370.156
	c-0.776-1.905-0.74-3.246,0.106-4.021c1.023-0.883,3.034-0.989,6.033-0.319l4.657-0.369l3.068,0.369
	c5.609,10.724,7.497,17.165,5.663,19.316l-3.97,0.159c-1.693-0.706-3.65-1.94-5.873-3.706c-2.117-1.729-4.057-3.615-5.821-5.662
	C332.836,373.737,331.548,371.814,330.807,370.156z M301.598,361.265c-1.27,2.047-2.894,2.506-4.87,1.377
	c-1.623-0.954-3.14-2.735-4.551-5.346c-1.305-2.504-1.94-4.604-1.905-6.297c0.071-1.869,1.111-2.363,3.122-1.481
	c0.354,1.164,0.9,2.257,1.641,3.28l2.329,2.594l2.381,2.593C300.556,359.008,301.174,360.102,301.598,361.265z M385.047,466.625
	c-0.6-0.494-0.812-0.07-0.635,1.27c0.176,1.376,0.652,3.104,1.429,5.188c2.223,5.609,5.08,9.666,8.573,12.171
	c0.706-1.023-0.459-4.146-3.493-9.366l-3.229-5.292l-1.429-2.383L385.047,466.625z"/>
<path id="path37" fill="#D1EBE8" d="
	M269.952,375.66c-1.657,2.363-1.164,7.037,1.482,14.022c2.293,6.067,6.42,14.358,12.383,24.871
	c4.339,7.655,10.795,18.47,19.368,32.438l22.595,36.725c7.269,11.961,13.653,22.949,19.156,32.968l-0.317-1.376
	c-0.74-3.14-0.953-5.555-0.635-7.248v-0.106c-2.682-2.998-5.116-6.279-7.303-9.843c-1.588-2.646-3.334-5.961-5.238-9.948
	l-4.71-9.896c-1.869-3.739-3.792-7.003-5.769-9.79c-6.138-6.702-10.371-13.547-12.7-20.53c-0.563-1.376-1.711-3.476-3.439-6.299
	l-4.762-7.726c-3.987-6.668-5.821-11.289-5.503-13.864c-1.553-2.61-3.387-6.244-5.503-10.901l-5.503-12.33
	C278.895,386.631,274.362,379.576,269.952,375.66L269.952,375.66z M373.987,588.917c0.74,8.044-0.476,14.324-3.651,18.839
	c0.67,0.459,1.271,3.104,1.8,7.938c0.6,5.15,1.218,8.272,1.852,9.366c1.977-3.316,3.122-7.303,3.439-11.959l0.106-2.17l-0.317-1.534
	l-1.111-11.536l-0.158-0.899l-0.158-1.059l-1.271-5.186L373.987,588.917z M390.921,630.773c0.917,0.637,3.245-0.847,6.985-4.443
	l5.979-6.191c8.221-9.984,14.129-17.587,17.728-22.808c2.964-4.269,5.38-8.326,7.249-12.171l-1.693,2.593l-2.275,3.069
	c-2.575,3.352-5.997,7.496-10.267,12.436l-0.317,0.37l-8.573,9.686c-2.47,5.467-5.063,9.56-7.778,12.276
	c-2.011,2.046-4.004,3.264-5.979,3.651L390.921,630.773z M430.874,580.662l0.423-1.164c1.376-3.67,2.382-7.709,3.017-12.118
	l-0.318,1.693l-3.598,10.001l0.159,0.107C430.874,579.498,430.98,579.992,430.874,580.662z M435.319,554.572
	c0.142-5.362,0.069-12.1-0.212-20.213c-5.468-31.362-12.436-60.873-20.902-88.531c-9.102-29.88-20.126-58.227-33.073-85.038
	l-6.615-11.219c1.34,3.739,2.294,7.25,2.857,10.531c5.08,8.855,8.943,17.128,11.589,24.818c1.693,2.294,3.422,5.75,5.187,10.372
	l2.116,5.716l2.117,5.291c1.093,2.223,1.763,3.774,2.011,4.657c0.563,1.903,0.529,3.492-0.106,4.761l0.318,0.584
	c1.623,2.328,3.034,5.361,4.233,9.102l2.963,9.896l3.229,10.317l2.169,9.049c7.938,22.367,13.864,43.357,17.78,62.974l0.106,0.317
	L435.319,554.572z M374.518,349.571c-1.587-4.516-3.722-9.383-6.402-14.604c-3.916-7.621-9.509-16.917-16.775-27.889l-20.215-29.528
	c-8.22-12.065-14.692-22.138-19.42-30.216l-4.392-7.779c1.094,2.858,2.311,5.768,3.65,8.731c3.422,7.479,7.956,15.84,13.601,25.083
	c4.057,6.527,9.826,15.328,17.305,26.406l19.367,28.787C366.068,335.901,370.495,342.904,374.518,349.571z M302.496,223.522
	c-1.799-8.573-2.329-17.04-1.586-25.4c0.423-4.974,1.323-10.02,2.698-15.134h-11.536c-0.247,1.834-0.388,3.686-0.423,5.556
	l-0.053,0.688c-0.106,8.537,1.746,17.974,5.556,28.311c2.47,6.704,5.838,14.023,10.108,21.961
	C305.213,234,303.625,228.672,302.496,223.522L302.496,223.522z M291.648,188.543v0.053V188.543z"/>
<path id="path39" fill="#4CA5A3" d="M353.773,446.569c-0.705,0.635-1.57,1.076-2.594,1.321l-2.751,0.265l-2.646,0.265
	c-0.953,0.212-1.746,0.653-2.382,1.323c2.364,6.985,5.099,10.39,8.202,10.213c2.257-0.141,4.78-2.17,7.567-6.084
	c-0.424-1.376-1.271-2.683-2.54-3.916C355.184,448.475,354.232,447.346,353.773,446.569z M316.891,455.511l-0.583-0.792
	l-2.804-1.165l-1.482-0.74l-3.758-4.868c2.329,6.983,6.563,13.829,12.7,20.53c-0.387-1.164-0.211-1.586,0.529-1.27l2.434,1.429
	L316.891,455.511L316.891,455.511z"/>
<g id="g41" transform="translate(308.4,686.25)">
	<g id="g43">
		<path id="path45" fill="#4CA5A3" d="M171.1-2.1c-0.967-0.435-1.583-0.867-1.85-1.302C168.95-3.9,169.3-4.3,170.3-4.6l1.05,0.698
			l0.7,0.65c0.633,0.566,1.283,1.017,1.95,1.35c0.198,0.2,0.25,0.352,0.148,0.45L173.5-1.35C172.833-1.417,172.034-1.667,171.1-2.1z
			"/>
		<path id="path47" fill="#219199" d="M171.3-2.95l-0.55,0.05c0-0.198-0.052-0.35-0.15-0.448l-0.15-0.25l0.45,0.05l0.4,0.3
			C171.4-3.116,171.4-3.017,171.3-2.95z"/>
		<path id="path49" fill="#1E7070" d="M170.45-3.6l0.15,0.25c0.1,0.1,0.15,0.25,0.15,0.448h-0.302L170.2-3.05V-3.3L170.45-3.6z"/>
		<path id="path51" fill="#4CA5A3" d="M177-2.45l-0.2-0.05l-0.15-0.1c-0.267-0.268-0.366-0.483-0.3-0.65l0.45-0.2L177.7-3.4
			l0.75,0.352l-0.05,0.1l-0.75,0.15L177-2.45z"/>
		<path id="path53" fill="#1E7070" d="M192,1.35L190.9,1.15L189.7,1.3h-0.75c-0.267,0-0.448-0.1-0.55-0.3
			c0.2-0.5,0.084-0.884-0.35-1.15L186.4-0.5l-1.95,0.4c-0.666,0.232-1.133,0.55-1.398,0.948l-0.5,0.102
			c-0.167-0.268-0.583-0.45-1.25-0.55l-1.5,0.1L178,0.1l-0.45-0.3l-0.8-0.5c-0.567-0.398-0.584-0.6-0.052-0.6h0.75l0.302,0.1
			l-0.45,0.4c0.065,0.133,0.232,0.232,0.5,0.3l0.6-0.05c0.167-0.066,0.167-0.217,0-0.45l1.05-0.25c0.167-0.1,0.218-0.267,0.15-0.5
			l-0.5-0.45l-0.85-0.05l0.198-0.3l-0.05-0.4l0.05-0.1l0.352,0.1l2.85,0.25L183.3-3.1l1.25-0.352h0.8l0.5,0.5
			c0.066,0.533,0.233,0.935,0.5,1.2c0.233,0.3,0.533,0.467,0.9,0.5l1.148-0.2c0.4-0.2,0.783-0.517,1.15-0.95h0.1l2.102,0.852
			l2.3,0.898V-0.1l-0.102,0.75l0.25,1.1l-1.148-0.1L192,1.35z"/>
		<path id="path55" fill="#D1EBE8" d="M176.3-1.45l0.148-0.6l0.2-0.55l0.15,0.1l0.2,0.05l0.55,0.2h0.7l0.85,0.05l0.5,0.45
			c0.066,0.233,0.017,0.4-0.15,0.5L178.4-1l-0.648-0.2l-0.302-0.1h-0.75L176.3-1.45z"/>
		<path id="path57" fill="#219199" d="M178.4-2.95l0.05,0.4l-0.198,0.3h-0.7L177-2.45l0.648-0.35L178.4-2.95z"/>
		<path id="path59" fill="#D1EBE8" d="M184.55-3.45L183.3-3.1L181.65-2.7l-2.85-0.25l1.2-0.2l1.948-0.35L184.55-3.45z"/>
		<path id="path61" fill="#4CA5A3" d="M178,0.1l-2.45-0.85c-0.967-0.434-0.717-0.667,0.75-0.7L176.7-1.3
			c-0.532,0-0.517,0.2,0.052,0.6l0.8,0.5L178,0.1z"/>
		<path id="path63" fill="#219199" d="M177.8-0.5c-0.268-0.066-0.435-0.167-0.5-0.3l0.45-0.4L178.4-1
			c0.167,0.233,0.167,0.384,0,0.45L177.8-0.5L177.8-0.5z"/>
		<path id="path65" fill="#D1EBE8" d="M189.55-2.4c-0.367,0.435-0.75,0.75-1.15,0.95l-1.148,0.2c-0.367-0.033-0.667-0.2-0.9-0.5
			c-0.267-0.267-0.434-0.667-0.5-1.2l1.8,0.25L189.55-2.4z"/>
		<path id="path67" fill="#D1EBE8" d="M196.4-0.95l-2.35,0.3l-2.3-0.898L189.65-2.4l0.5-0.35l1.352,0.1l1.698,0.2l1.4-0.148
			l0.25,0.398l2.05,0.15c0.268,0.232,0.3,0.55,0.102,0.95L196.4-0.95z"/>
		<path id="path69" fill="#D1EBE8" d="M179.8,0.5l1.5-0.1c0.667,0.1,1.083,0.282,1.25,0.55l-1.5-0.05
			C180.284,0.833,179.867,0.7,179.8,0.5z"/>
		<path id="path71" fill="#D1EBE8" d="M188.4,1l-3.05-0.15h-1.6h-0.7c0.267-0.398,0.732-0.716,1.398-0.948l1.95-0.4l1.65,0.35
			C188.484,0.116,188.6,0.5,188.4,1z"/>
		<path id="path73" fill="#1E7070" d="M248.2,0.45C246.867-0.05,245.3-0.866,243.5-2l-1.9-1.15l-1.55-0.8L238.95-4.2
			c-0.333,0-0.565,0.167-0.698,0.5l-0.75-0.05L236.4-4.3l-1.45-0.8l-1.8-0.852c-1.267-0.533-2.517-0.815-3.75-0.85l5.3-0.352
			c2.034,0.602,4.117,1.534,6.25,2.802L243.5-2.7l2.5,1.65c1.532,0.967,2.982,1.717,4.35,2.25L248.2,0.45z M223.3-5.1L220.45-5.45
			l-1.35-0.3l-1.1-0.2c-0.7-0.065-1.15,0.066-1.352,0.4c-0.2,0.398-0.116,1.133,0.25,2.2l-0.8,0.05l-1.6-0.4l-1.7-0.148
			c-0.566,0.1-0.967,0.433-1.2,1c0.3,1.1,3.283,2.032,8.95,2.8l6.3,0.75l3.75,0.35V1.3l-1.15,0.05l-1.148-0.1l-2.25,0.1
			c-0.167-0.198-0.602-0.282-1.3-0.25l-1.4,0.25L217.7,1.2c-2.231-0.066-4.083-0.05-5.55,0.05l-1.2-0.65l-1.198-0.25
			c-0.067-0.198-0.4-0.198-1,0L208,0.65L207.55,0.8c-0.033-0.267-0.233-0.416-0.602-0.45l-0.5-0.1l-0.6-0.1l5.65-1.65l-4.4-0.15
			c-0.1-0.5,0.283-0.815,1.15-0.948l1-0.102h0.85c0.6-0.267,0.917-0.517,0.95-0.75L210.6-3.85c-0.733-0.167-2.033-0.167-3.9,0
			L201.8-3c-1.7,0.467-2.667,0.934-2.9,1.4l-0.6-1.052l-0.5-0.898L199.3-4l1.398-0.5l1.352-0.45l1.45,0.102
			c-0.233,0.1-0.302,0.25-0.2,0.448l0.5,0.4l0.55,0.05c0.134-0.065,0.15-0.283,0.05-0.648l1.102-0.15l0.75-0.15l2.35-0.55l2.3-0.6
			l11.75-0.45l4.95-0.25C226.166-6.55,224.734-6,223.3-5.1z M227.6-6.75l1.15-0.1L229.4-6.8L227.6-6.75z M250.35,1.2l3.45,0.45
			c1.533,0.198,2.35,0.398,2.45,0.6l-4.95-0.7L250.35,1.2z M256.25,2.25l1.898-0.1l1.102,0.398l0.1,0.8l-0.4,0.602h-0.398
			l-1.9-0.102l-1.898,0.4l-0.5-0.05l-2.302-0.55l-4.35-0.5L244.05,3.3l-0.4,0.25c-2.767-2.033-2.45-2.5,0.95-1.398
			c0.533,0.333,1.733,0.55,3.6,0.648l5,0.05l3-0.448L256.25,2.25z M243.65,3.55l0.3,0.2L245.8,5l-1.55-0.35
			C243.55,4.15,243.35,3.783,243.65,3.55z M245.8,5h0.1l1.8,0.1l1.7,0.302c0.533,0.198,0.935,0.5,1.2,0.898
			c0.434,0.4,0.55,0.717,0.35,0.95l-1,0.5L249.8,7.5l-2-1.25L245.8,5z M203.5-4.85v0.05V-4.85z"/>
		<path id="path75" fill="#4CA5A3" d="M195.95-3.2l-0.1,0.3l-0.45,0.2l-0.45,0.15l-0.1,0.35L194.6-2.6l0.55-0.5L195.95-3.2z"/>
		<path id="path77" fill="#219199" d="M201.85,1.1l-2.3,0.552l-2.65,0.1h-2.7l-0.25-1.1l0.102-0.75V-0.65l2.35-0.3L197-1.1
			L197.7-1.2c0.102-0.065,0.15-0.184,0.15-0.35l-0.35-0.4l-0.602-0.1l-2.05-0.15l0.1-0.35l0.45-0.15l0.45-0.2l0.1-0.3l1.852-0.35
			l0.5,0.898l0.6,1.052c-0.1,0.833,0.033,1.466,0.4,1.898c0.398,0.435,1.05,0.55,1.95,0.352l2.35-0.2l2.25-0.3l0.6,0.1l0.5,0.1
			c0.367,0.034,0.567,0.185,0.602,0.45c-0.967,0.435-1.9,0.7-2.8,0.8H204.2H203.8C203.666,1.1,203.017,0.934,201.85,1.1z"/>
		<path id="path79" fill="#D1EBE8" d="M206.25-4.9l-0.75,0.15L204.4-4.6L203.5-4.8l1.448-0.15L206.25-4.9z M203.5-4.8v-0.05V-4.8z"
			/>
		<path id="path81" fill="#219199" d="M203.8-4l-0.5-0.4C203.2-4.6,203.267-4.733,203.5-4.8l0.898,0.2
			c0.102,0.365,0.084,0.583-0.05,0.648L203.8-4z"/>
		<path id="path83" fill="#D1EBE8" d="M255.35,0.95c1.134,0.232,2.066,0.633,2.8,1.2c-2.467,0.232-4.75,0.032-6.85-0.602
			c-1.602-0.5-3.367-1.366-5.3-2.6l-2.5-1.65L240.95-4.35c-1.633-0.968-3.216-1.733-4.75-2.302l2.552,0.9
			c3.365,1.267,5.782,2.717,7.25,4.35c0.833,0.834,1.833,1.4,3,1.7l3.198,0.4l1.602,0.05L255.35,0.95z M222.65-6.5L210.9-6.05
			c1.3-1.367,3.617-2.25,6.95-2.65l10.4,0.3L234.6-7.1L222.65-6.5z M234.6-7.1l0.1-0.052l1.5,0.5L234.6-7.1z"/>
		<path id="path85" fill="#D1EBE8" d="M201.25,0.65c-0.9,0.198-1.552,0.083-1.95-0.352c-0.367-0.434-0.5-1.065-0.4-1.898
			c0.233-0.468,1.2-0.935,2.9-1.4l4.898-0.85c1.867-0.167,3.167-0.167,3.9,0l0.45,0.398c-0.033,0.233-0.352,0.483-0.95,0.75h-0.85
			l-1,0.102C207.383-2.467,207-2.15,207.1-1.65l4.4,0.15l-5.65,1.65l-2.25,0.3L201.25,0.65L201.25,0.65z"/>
		<path id="path87" fill="#1E7070" d="M197-1.1c0.198-0.4,0.166-0.718-0.102-0.95l0.602,0.1l0.35,0.4c0,0.166-0.05,0.283-0.15,0.35
			L197-1.1L197-1.1z"/>
		<path id="path89" fill="#FFFFFF" d="M201.25,0.6c-0.968-0.433-1.45-0.966-1.45-1.6l0.3-0.85l0.7-0.602
			c0.667-0.398,1.333-0.533,2-0.398c0.8,0.166,1.3,0.666,1.5,1.5l-1.4,1.1L201.25,0.6L201.25,0.6z"/>
		<path id="path91" fill="#000033" d="M253.2,2.85l-5-0.05c-1.865-0.1-3.065-0.315-3.6-0.648c-3.533-1.135-3.75-0.602-0.65,1.6
			l3.852,2.5l2,1.25l-4.4-0.2c-0.933-0.366-1.95-1.065-3.05-2.1l-1.3-1.25L239.8,2.85c-0.967-0.767-1.935-1.133-2.9-1.1h-0.7
			c-0.231-0.033-0.433-0.116-0.6-0.25l-1.05-0.9l-1.15-0.1l-1.3,0.3l-1.5,0.25l-3.75-0.35l-6.3-0.75c-5.667-0.768-8.65-1.7-8.95-2.8
			c0.233-0.567,0.634-0.9,1.2-1l1.7,0.148l1.6,0.4l0.8-0.05c-0.366-1.067-0.45-1.802-0.25-2.2c0.2-0.334,0.65-0.467,1.352-0.4
			l1.1,0.2l1.35,0.3L223.3-5.1c1.833-1.102,3.648-1.685,5.45-1.75c1.467-0.034,2.933,0.267,4.398,0.898l1.8,0.852l1.45,0.8
			l1.102,0.55l0.75,0.05c0.133-0.333,0.365-0.5,0.698-0.5l1.102,0.25l1.55,0.8L243.5-2c1.8,1.134,3.365,1.95,4.698,2.45
			c1.935,0.833,3.802,1.232,5.602,1.2c1.934,0.267,2.732,0.517,2.398,0.75L253.2,2.85z"/>
		<path id="path93" fill="#D1EBE8" d="M213.15-4.35L212.75-4.1l-0.602,0.05c-0.232-0.233-0.3-0.45-0.2-0.65L212.55-5.1l0.6,0.35
			C213.25-4.583,213.25-4.45,213.15-4.35z"/>
		<path id="path95" fill="#D1EBE8" d="M197.5,2.05l-3.25,0.102l-3.102-0.2c-0.866-0.167-1.35-0.384-1.45-0.65l1.2-0.148L192,1.35
			l1.05,0.302l1.148,0.1h2.7l2.65-0.1L199.6,1.8L197.5,2.05L197.5,2.05z"/>
		<path id="path97" fill="#4CA5A3" d="M203.8,1.6l-2.05,0.2h-2.15l-0.05-0.148l2.3-0.552C203.017,0.934,203.666,1.1,203.8,1.6z"/>
		<path id="path99" fill="#4CA5A3" d="M208.75,0.35c0.6-0.198,0.933-0.198,1,0l-1.052,0.4l-1.55,0.55
			c-1.333,0.467-2.133,0.566-2.398,0.3c0.898-0.1,1.833-0.365,2.8-0.8L208,0.65L208.75,0.35z"/>
		<path id="path101" fill="#D1EBE8" d="M245.7,7.95l4.2-0.2c0.435,1.566-1.232,1.566-5,0L245.7,7.95z M240.75,5.8L239.4,5.1
			l-0.5-0.25c-1.433-1.1-3.6-1.833-6.5-2.198l-8.25-0.25l-4.05,0.1l-3.55-0.05c-2.367-0.102-3.833-0.5-4.4-1.2
			c1.467-0.1,3.317-0.116,5.55-0.05l5.65,0.148l1.35,0.15l1.352-0.15l2.25-0.1l1.148,0.1l1.15-0.05l1.75,0.352l2,0.05L235.5,2.1
			l1.25,0.302l3.1,2.198L241.2,5.7l1.4,0.95L243,6.9L240.75,5.8L240.75,5.8z M243,6.9l1.8,0.85h0.1L243,6.9z"/>
		<path id="path103" fill="#1E7070" d="M229.9-2.65l1.4,0.2c0.533,0.167,0.85,0.483,0.95,0.95c-0.468,0.733-1.018,1.184-1.65,1.35
			c-0.533,0.135-1,0.067-1.4-0.198c-0.166-0.102-0.3-0.25-0.398-0.45c-0.066-0.2-0.083-0.417-0.05-0.65
			C228.85-1.917,229.234-2.316,229.9-2.65z"/>
		<path id="path105" fill="#D1EBE8" d="M230.6-2.1c0.333,0.032,0.55,0.148,0.65,0.35l-0.15,0.6l-0.55,0.5L229.6-0.7
			c-0.333-0.366-0.35-0.684-0.05-0.95L230.6-2.1z"/>
		<path id="path107" fill="#219199" d="M226.05,1.35L224.7,1.5l-1.35-0.15l1.4-0.25C225.45,1.066,225.883,1.15,226.05,1.35
			L226.05,1.35z"/>
		<path id="path109" fill="#1E7070" d="M239.25,0.65c-0.334-0.567-0.067-1.483,0.8-2.75l0.398-0.15c1.302,0.566,1.9,1.2,1.802,1.9
			l-0.4,0.8l-0.9,0.5l-1,0.1L239.25,0.65z"/>
		<path id="path111" fill="#1E7070" d="M234.35,1.7l-2-0.05L230.6,1.3V1.05l1.5-0.25l1.3-0.3l1.15,0.1l1.05,0.9l-0.65-0.05
			L234.35,1.7z"/>
		<path id="path113" fill="#219199" d="M236.75,2.4L235.5,2.1L234.35,1.7l0.6-0.25l0.65,0.05c0.167,0.134,0.367,0.217,0.6,0.25h0.7
			L237,1.95l0.148,0.2L236.75,2.4z"/>
		<path id="path115" fill="#1E7070" d="M245.7,7.95c-1.032-0.2-2.065-0.634-3.1-1.3l-1.4-0.95L239.85,4.6l-3.1-2.198l0.398-0.25
			L237,1.95l-0.102-0.2c0.967-0.033,1.935,0.333,2.9,1.1l1.25,1.102l1.3,1.25c1.1,1.033,2.117,1.732,3.05,2.1l4.4,0.2l0.148,0.25
			L245.7,7.95z M249.95,7.75h-0.05H249.95z"/>
		<path id="path117" fill="#D1EBE8" d="M245.9,5l-1.648-0.35c-0.935-0.635-1-1.084-0.2-1.352l3.55-0.148l4.35,0.5l2.302,0.55
			l-1.45,0.1L252.2,4.2L251.6,4.1c-0.366,0-0.616,0.135-0.75,0.4c-0.167,0.3-0.25,0.9-0.25,1.8c-0.267-0.398-0.667-0.7-1.2-0.898
			L247.7,5.1L245.9,5z"/>
		<path id="path119" fill="#4CA5A3" d="M258.95,3.95l0.4-0.602l-0.1-0.8l1.198,0.5l0.45,0.65l-0.5,0.5L258.95,3.95z"/>
		<path id="path121" fill="#D1EBE8" d="M256.65,3.85l1.9,0.102l-3.8,0.3L256.65,3.85z"/>
	</g>
</g>
</svg>
