<?xml version="1.0" encoding="utf-8"?>
<!-- Generator: Adobe Illustrator 13.0.0, SVG Export Plug-In . SVG Version: 6.00 Build 14948)  -->
<!DOCTYPE svg PUBLIC "-//W3C//DTD SVG 1.0//EN" "http://www.w3.org/TR/2001/REC-SVG-20010904/DTD/svg10.dtd">
<svg version="1.0"
	 id="Layer_1" xmlns:dc="http://purl.org/dc/elements/1.1/" xmlns:cc="http://creativecommons.org/ns#" xmlns:rdf="http://www.w3.org/1999/02/22-rdf-syntax-ns#" xmlns:svg="http://www.w3.org/2000/svg"
	 xmlns="http://www.w3.org/2000/svg" xmlns:xlink="http://www.w3.org/1999/xlink" x="0px" y="0px" width="1024px" height="768px"
	 viewBox="0 0 1024 768" enable-background="new 0 0 1024 768" xml:space="preserve">
<path id="path11" fill="#000017" stroke="#000017" stroke-width="0.5" d="M516.303,59.65c-2.532-1.466-6.365-2.783-11.498-3.95
	l-13.499-2.55c-5.067-0.933-8.449-1.733-10.148-2.4c-2.434-1-2.967-2.167-1.6-3.5c12.232-5.733,22.965-10.434,32.196-14.1
	c9.865-3.933,19.298-7.2,28.297-9.8c8.965-2.667,18.447-4.917,28.447-6.75c9.432-1.767,20.414-3.367,32.947-4.8
	c1.967,2.067,4.766,4.667,8.398,7.8l7.5,6.6c-10,0.6-19.598,3.083-28.798,7.45l-0.551,0.25l-0.648,0.15l-5.25,2.95l-4.998,3.05
	l-10.3,6.85l-0.352,0.25l-2.998,0.05h-0.102l-2.1,0.5l-0.25,0.1l-0.101,0.05l-0.1,0.05c-1.699,0.767-3.198,2.317-4.5,4.65l-0.9,1.7
	c-2.965,1.7-5.715,3.05-8.248,4.05c-7.335,2.9-14.784,3.583-22.349,2.05l-4.35-1.2C518.852,58.816,517.469,58.983,516.303,59.65
	L516.303,59.65z M561.248,47.7h-0.049H561.248z M582.096,37v0.05V37z M588.547,33.65l-0.051,0.05L588.547,33.65z M466.607,51.3
	c1.567,4.733,3,8.134,4.299,10.2c0.6,1,1.451,2.15,2.551,3.45l3.699,4.25l-1.1,0.4l-9.949,11.55l-5.699,6.8l-0.801,0.85l-2.25,0.4
	c-2.932,0.933-5.781,3.4-8.549,7.4l-0.5,0.8l-0.101,0.15l-3.749,6.85l-0.5,1.15c-2.267,2.1-4.366,3.884-6.299,5.35
	c-5.533,4.233-9.799,5.917-12.799,5.05c-3.801,0.033-6.4,2.483-7.799,7.35c-0.533,1.833-0.918,4.134-1.15,6.9l-0.5,7.15l-0.551,6
	c-0.332,1.733-0.816,2.85-1.449,3.35c-1.532,1.1-4.434-1.2-8.699-6.9c-5.566-0.433-11.614,2.483-18.148,8.75
	c-4.4,4.233-9.965,11.15-16.699,20.75l-4.248,6l-1.352,1l-4.949,5.85l-1.149,2.1l-0.649,1.6l-0.4,0.95l-2.049,2.45
	c-4.999,5.633-9.065,7.8-12.198,6.5c-4.034-0.566-7.934-0.533-11.699,0.1c-2.934,0.466-6.251,1.417-9.949,2.85l-9.9,3.95
	c-4.031,1.567-7.798,2.717-11.298,3.45c-0.233-0.233-0.183-1.1,0.15-2.6c0.434-2.066,0.667-3.566,0.7-4.5
	c0.2-4.133-1.933-6.184-6.399-6.15c-2.267-1.367-4.149-2.883-5.649-4.55c-2.067-2.2-3.033-4.267-2.9-6.2l0.35-0.4
	c0.7,0.566,3.383-0.317,8.049-2.65l8.649-4.7l19.347-10.3c8.365-4.6,15.332-8.883,20.898-12.85
	c15.732-11.3,23.98-22.917,24.748-34.85c3.699-8.633,9.531-16.067,17.498-22.3c6.398-5,14.965-9.767,25.697-14.3
	c0.269,1.367,0.617,4.934,1.052,10.7c0.364,5.566,0.815,9.533,1.35,11.9c0.832,3.633,2.032,5.183,3.6,4.65
	c1.9-0.667,4.415-4.383,7.548-11.15c-0.766-1.067-0.883-2.034-0.35-2.9c0.434-0.733,1.416-1.467,2.949-2.2l4.949-2.1l5.801-2.35
	c4.6-2.2,7.531-4.75,8.799-7.65c1.666-3.933,0.617-8.867-3.15-14.8l11.85-5.65C459.858,55.967,463.541,53.667,466.607,51.3
	L466.607,51.3z M443.96,105.55h-0.05H443.96z M357.117,186.8v0.05V186.8z M365.618,175.3l-0.052,0.05L365.618,175.3z M286.274,181.7
	l0.05,0.05L286.274,181.7z M-0.5,354.65v-6.45c2.6,2.133,4.033,3.683,4.299,4.65c0.2,0.8-0.4,1.316-1.8,1.55L-0.5,354.65
	L-0.5,354.65z M-0.5,338v-4.65l4.149,0.75c4.3,0.733,6.882,1.3,7.75,1.7c1.267,0.633,0.433,1.367-2.5,2.2H1H-0.5L-0.5,338z
	 M-0.5,283.75v-21.9l22.298-7.45c8.566-2.933,15.315-5.5,20.248-7.7c6.466-2.9,11.416-5.833,14.849-8.8l4.6-1.65l4.899-0.8
	c1.8-0.367,3.317-0.917,4.55-1.65l0.9-0.5l1.15,0.75c0.834,0.934,3.267,1.567,7.299,1.9l5.299,0.3l5.2,0.6
	c3.667,0.7,5.767,2.05,6.299,4.05c0.566,2.367-1,5.867-4.7,10.5l-0.6,0.75c-0.233-0.233-0.3-0.433-0.2-0.6l0.4-0.35
	c0.433-0.333,0.433-0.717,0-1.15c-0.367-1.466-1.6-2.25-3.7-2.35c-1.8-0.067-3.517,0.3-5.149,1.1c-0.733,0.367-1.217,0.733-1.45,1.1
	c-0.3,0.367-0.233,0.7,0.2,1c0.933,0.7,3.55,0.917,7.85,0.65c1.767,1.767,2.566,4.534,2.399,8.3c-0.133,2.466-0.834,6.25-2.1,11.35
	c-1.467,5.833-2.35,9.85-2.65,12.05c-0.6,4.3-0.35,7.7,0.75,10.2l-0.15,0.25c-2.6,3.466-5.183,5.866-7.75,7.2l-0.25,0.15
	c-2.233,1.1-3.517,1.483-3.85,1.15c6.533-12.134,9.666-21.867,9.399-29.2c-0.267-6.567-3.233-10.983-8.899-13.25
	c-5.132-2.033-12.132-2.25-20.998-0.65c-8.233,1.466-17.249,4.333-27.047,8.6c-9.499,4.1-18.448,8.95-26.848,14.55L-0.5,283.75z
	 M380.416,123.85c0.5-0.567,0.732-1.117,0.699-1.65c-0.033-0.6-0.35-1.034-0.949-1.3l-2.602-0.1c-0.799,1.233-1.166,2.017-1.1,2.35
	c0.033,0.267,0.584,0.95,1.65,2.05C379.082,124.9,379.848,124.45,380.416,123.85z M366.417,143.45
	c0.065,0.267,0.666,0.95,1.801,2.05c0.934-0.233,1.648-0.65,2.148-1.25c0.434-0.533,0.617-1.1,0.551-1.7
	c-0.1-0.6-0.416-1.05-0.948-1.35l-2.402-0.15C366.667,142.15,366.283,142.95,366.417,143.45z M165.335,203.7
	c3.567,5.333,6.899,10.733,9.999,16.2l6.25,11.25c1.8,3.267,3.166,5.5,4.1,6.7c1.2,1.466,2.433,2.25,3.7,2.35
	c1.2,0.1,2.817-0.434,4.85-1.6l7.699-5.35l12.299-8.7c5.933-4.033,12.115-7.966,18.548-11.8c-0.034-0.533,0.833-0.867,2.6-1
	l6.049-0.2l6.849-0.2c2.333-0.233,3.933-0.633,4.8-1.2l2.3,0.1l1.35,0.65c-1.167,0.567-2.917,2.3-5.25,5.2l-6.5,7.8
	c-2.7,2.867-5.116,4.667-7.249,5.4c-2.733,0.867-5.25,0.15-7.549-2.15c-7.1,0-12.332,3.1-15.699,9.3
	c-1.267,2.267-2.384,5.167-3.35,8.7l-3.7,14.35l-0.35,0.9l-3.85,4.35l-0.45,0.15c-3.6,0.8-9.565-2.967-17.898-11.3
	c-1.067-0.067-3.633,1.05-7.699,3.35c-3.9,2.2-8.115,4.883-12.649,8.05c-4.867,3.4-8.815,6.467-11.849,9.2
	c-3.5,3.133-5.25,5.383-5.25,6.75c2.133,6.7,2.35,10.517,0.65,11.45l-3.399-0.15l-4.85-1.95c-2.434-1.066-4.3-1.816-5.6-2.25
	c-2.133-0.7-3.982-1.017-5.549-0.95c-4.033,0.1-6.667,2.783-7.899,8.05c-0.8,1.267-1.584,1.817-2.35,1.65
	c-0.733-0.133-1.366-0.816-1.9-2.05c-1.167-2.6-1.633-6.067-1.4-10.4c0.233-4.767,1.317-8.3,3.25-10.6
	c2.333-2.833,5.55-3.15,9.649-0.95c4.732-7.966,6.382-13.917,4.949-17.85c-0.566-1.534-1.633-2.917-3.2-4.15
	c-0.6-0.466-2.117-1.433-4.549-2.9c-1.9-1.133-3.233-2.167-4-3.1c-1.167-1.4-1.716-3.017-1.65-4.85
	c0.067-4.467,3.799-11.3,11.199-20.5c6.5-2.434,14.932-6.083,25.298-10.95l0.4-0.35c2.333,1.167,4.033,1.417,5.1,0.75
	c0.9-0.533,1.717-2.083,2.45-4.65L165.335,203.7L165.335,203.7z M265.226,213.65c-0.133-0.466-0.183-1.066-0.15-1.8h2.55l2.25,0.05
	c1.567,0.2,2.733,1.1,3.5,2.7l-3.2,0.4l-2.6,0.25h-0.1c-0.867-0.033-1.484-0.283-1.85-0.75L265.226,213.65L265.226,213.65z
	 M343.62,181.35c-1.435,1.633-1.935,2.983-1.5,4.05c0.299,0.9,1.114,1.383,2.448,1.45c1.301,0.033,2.367-0.383,3.199-1.25
	c0.967-1.034,1.217-2.383,0.75-4.05c-0.633-0.433-1.416-0.616-2.35-0.55L343.62,181.35z M405.713,135.95
	c0.301,1.133,0.9,1.783,1.799,1.95c1,0.167,2.235-0.316,3.702-1.45c2.1-5.833,0.916-8.417-3.551-7.75
	c-0.865,1-1.483,2.216-1.85,3.65C405.445,133.717,405.412,134.917,405.713,135.95L405.713,135.95z M513.504,261.55
	c1.465,1.434,1.233,3.034-0.7,4.8c-1.233,1.1-3.717,2.683-7.45,4.75c-3.934,2.1-6.466,3.633-7.599,4.6
	c-2,1.667-2.35,3.167-1.049,4.5c1.467-1.733,2.665-2.367,3.6-1.9c0.766,0.333,1.482,1.517,2.148,3.55l-3.497,2.05
	c-10.267,6.567-23.666,13.367-40.198,20.4c-15.765,6.7-30.263,11.9-43.495,15.6l-0.8,0.6c-2.4-2.434-3.716-4.5-3.951-6.2
	c-0.299-1.767,0.434-3.3,2.201-4.6c1.198-0.867,3.199-1.717,5.998-2.55l7.85-2.1c3.333-0.9,6.033-1.783,8.099-2.65
	c2.766-1.167,5-2.5,6.699-4c4-3.667,5.016-8.767,3.051-15.3c0.365-0.167,0.683-0.284,0.949-0.35l3.7-1.45
	c0.633,0.8,1.051,1.767,1.249,2.9c0.134,1.033,0.449,1.8,0.949,2.3l-0.35,0.7l0.301,0.8c0.6,1.467,1.299,2.167,2.1,2.1l0.15,0.15
	c2.566,2.167,5.232,3.667,7.998,4.5c3.668,1.133,6.867,0.8,9.599-1c3.367-2.3,5.833-6.817,7.4-13.55
	c-1.233-1.3-2.417-2.184-3.55-2.65c-0.8-0.333-1.767-0.533-2.901-0.6l-2.85-0.15c-1.133-0.267-2.232-0.8-3.299-1.6
	c3.567-1.434,7.751-2.767,12.549-4l12.799-2.9l11.998-2.85C507.336,264.25,510.77,262.95,513.504,261.55L513.504,261.55z
	 M418.711,307.15v-0.05V307.15z M410.512,314.3h0.051H410.512z M548.651,254.5c-0.9-1.2-1-4.083-0.302-8.65
	c0.5-3.133,1.199-6.284,2.101-9.45c6.232-2.233,11.1-4.633,14.6-7.2c2.799-2.134,5.033-4.684,6.699-7.65l2-4.1l1.898-4.4
	c1.668-3.7,3.684-6.933,6.051-9.7l8.148-7c2.133-1.367,4.382-3.05,6.75-5.05c2.865-2.4,5.299-4.8,7.298-7.2
	c5.368-6.367,6.766-11.467,4.2-15.3l0.201-0.2c1.633-1.633,2.648-3.05,3.048-4.25c0.234-0.767,0.25-1.717,0.052-2.85
	c-0.234-1.233-0.283-2.2-0.15-2.9c0.299-1.267,1.15-2.75,2.549-4.45c6.234,8.133,8,17.917,5.301,29.35l-1.051,3.8
	c-1.799,5.634-4.566,11.417-8.3,17.35c-2.1,3.333-4.516,6.717-7.25,10.15c-7.798,9.833-16.865,18.534-27.197,26.1
	C565.164,248.3,556.283,252.834,548.651,254.5L548.651,254.5z M607.546,24.5c0.698-0.033,1.133-0.4,1.299-1.1
	c0.1-0.7-0.133-1.25-0.699-1.65c-0.733-0.467-1.734-0.467-3,0l-0.399,1.1C605.777,23.983,606.712,24.533,607.546,24.5z
	 M660.889,30.75l-10.498-2.9c-1.1-0.934-1.984-2.017-2.65-3.25c-0.733-1.3-1.133-2.55-1.199-3.75
	c-0.166-2.967,1.549-4.883,5.148-5.75c7.867,1.8,14.684,3.667,20.449,5.6c6.533,2.2,13.016,4.95,19.447,8.25
	c5.967,4.233,7.533,6.783,4.701,7.65c-2.301,0.7-7.367,0.316-15.199-1.15C675.423,34.383,668.69,32.816,660.889,30.75L660.889,30.75
	z M485.105,293.05l-0.051,0.05c-7.531,3.933-16.148,7.966-25.848,12.1c6.633-3.534,11.283-5.934,13.95-7.2
	C477.889,295.733,481.873,294.084,485.105,293.05L485.105,293.05z M356.669,304.95c-1.401,0.267-4.834,5.2-10.3,14.8
	c-2.2,3.767-4.1,7.283-5.701,10.55c-1.666,3.333-2.549,5.4-2.648,6.2c-5.066,5.066-8.3,5.316-9.699,0.75
	c-0.434-1.4-0.684-3.25-0.75-5.55v-0.4v-0.15l-0.051-2.55c-0.666-1.667-1.066-3.9-1.199-6.7c-0.1-2.767-0.5-5.033-1.199-6.8
	l0.351-2.3c0.065-0.7,0.199-1.283,0.397-1.75c1.801-2.433,4.452-4.933,7.951-7.5l4.248-3.05l4.051-3.5
	c1.633-0.567,2.732-0.883,3.299-0.95c0.967-0.133,2.083,0.067,3.35,0.6L356.669,304.95L356.669,304.95z M255.277,357.25
	c0.567,0.566,1.067,1.233,1.5,2c0.4,0.733,0.617,1.334,0.65,1.8c0.067,0.5-0.133,0.667-0.6,0.5c-0.567-0.2-1.383-0.85-2.45-1.95
	L255.277,357.25L255.277,357.25z M251.627,367.55l3,4.3c1.867,2.733,3.75,5.067,5.649,7c1.133,2.5,1.267,4.434,0.4,5.8l-0.05,0.101
	c-0.7,0.967-1.917,2.033-3.65,3.2l-4.1,2.75c-1.3,1.033-1.967,2.066-2,3.1l-0.95,0.551c-0.267,0.033-0.383-0.351-0.35-1.149
	l0.2-3.101c0.367-3.699,0.45-6.284,0.25-7.75c-0.833-5.866-5.715-3.616-14.648,6.75c0.334,11.166-9.882,17.833-30.647,19.999
	c-6.199,0.635-13.432,0.834-21.698,0.602l-7.35-0.25l-3.1,0.05c-0.4,1.767-0.417,3.316-0.05,4.65l0.45,1.25l0.25,0.898
	c0.034,0.5-0.45,1.018-1.45,1.55l-6.6,2.9c-5.632-5.6-8.733-11.684-9.299-18.25c-0.133-1.867-0.067-3.867,0.2-6
	c0.233-1.7,0.3-2.601,0.2-2.7l2.5-1.5c0.9-0.467,1.667-1.066,2.3-1.8l6.549-3.649c4.267-2.534,6.632-4.034,7.1-4.5
	c0.733-0.366,4.066-0.899,9.999-1.6c7.032-0.866,12.649-1.8,16.848-2.8c15.232-3.533,22.431-9.65,21.598-18.351
	c1.167-3.633,6.033-3.35,14.599,0.851l9,4.85C249.644,366.9,251.26,367.65,251.627,367.55L251.627,367.55z M331.17,310.2
	c0.6,0.167,1.6-0.467,3-1.9l-1.451-0.75c-0.799,0.767-1.316,1.417-1.549,1.95C330.936,309.9,330.936,310.133,331.17,310.2
	L331.17,310.2z M61.645,318.75c2.567,2.767,0.5,7.333-6.199,13.7l-2.6,1.15c-0.834-1.3-1.133-2.767-0.9-4.4
	c0.167-1.067,0.533-2.184,1.1-3.35c1.167-2.434,3.017-4.85,5.549-7.25c2.2-2.067,3.833-3.217,4.9-3.45
	c0.8-0.167,0.517,0.583-0.85,2.25l-1.1,1.2L61.645,318.75z M63.495,315.15h0.05H63.495z M58.945,336.7
	c2.167,3.366,1.883,6.05-0.85,8.05l-2.899,1.8c-0.8,0.5-0.966,0.983-0.5,1.45c-2.433,3-5.35,5.583-8.75,7.75l-1.1,0.7l-3.85,1.4
	c-2.967,1.2-5.315,2.367-7.049,3.5l-0.8,0.301l-8.399,2.8c-4.733,1.533-8.549,2.934-11.449,4.2c-3-3.768-4.949-7.834-5.849-12.2
	c-0.367-1.833-0.483-3.434-0.35-4.8c0.133-1.4,0.483-2.367,1.05-2.9c12.966-1.1,22.481-2.167,28.547-3.2
	C49.062,343.383,56.478,340.433,58.945,336.7L58.945,336.7z M157.786,223.7c0.433-0.6,0.533-1.15,0.3-1.65
	c-0.267-0.633-0.983-0.9-2.15-0.8l-1.15,1.45c0.3,1.1,0.8,1.7,1.5,1.8C156.819,224.533,157.319,224.267,157.786,223.7z
	 M117.489,280.4l-0.6,1.65l0.1,1.65c1.433,0.933,2.866,1.167,4.299,0.7c1.2-0.433,2.016-1.167,2.45-2.2
	c0.433-1.067,0.183-1.817-0.75-2.25C121.822,279.383,119.989,279.533,117.489,280.4L117.489,280.4z M83.393,404.35
	c1.4-1.267,1.45-2.565,0.15-3.898l-12.249-0.7c-0.967,2.6-0.667,4.5,0.9,5.7c1.333,1,3.25,1.35,5.749,1.05
	C80.309,406.2,82.125,405.483,83.393,404.35z M104.741,406.7c0.434-0.634,0.2-1.45-0.7-2.45l-3.549,0.25
	c-0.633,0.9-0.65,1.634-0.05,2.2c0.5,0.5,1.267,0.75,2.3,0.75C103.741,407.45,104.408,407.2,104.741,406.7z M133.938,430
	c0.267,0.233,0.133,0.4-0.4,0.5l-2.9-0.1c-0.633,0.333-1.033,0.433-1.2,0.3l-0.7-1.2l3.45-0.1
	C133.021,429.533,133.605,429.733,133.938,430L133.938,430z M174.084,390.6c1.567,0.4,3.784,0.084,6.649-0.949
	c2.899-1.066,4.632-2.184,5.199-3.351c0.667-1.399-0.85-2.333-4.549-2.8l-4.25,1.45c-0.633,0.233-1.667,0.733-3.1,1.5
	C172.2,388.783,172.217,390.167,174.084,390.6z M13.899,264.7c-0.7,0.933-1.05,1.55-1.05,1.85l1,1.8
	c1.2-1.067,1.883-1.817,2.05-2.25C16.132,265.334,15.466,264.867,13.899,264.7z M20.198,389.1h0.4l0.5,0.15l0.4,0.25
	c1,0.633,2.4,2,4.2,4.1l0.55,0.602l-0.35,2.55c-0.733,0.934-1.733,0.7-3-0.7c-1.133-1.232-2.017-2.717-2.649-4.449l-0.15-0.5v-0.101
	l-0.1-0.3l-0.05-0.2v-0.149l-0.05-0.201v-0.25v-0.102v-0.148v-0.2L20.198,389.1L20.198,389.1z M19.898,389.8v-0.05V389.8z
	 M50.396,443.1c-1.4,1.233-2.55,2.018-3.45,2.352l-0.9,0.1c-0.167-0.167-0.133-0.398,0.1-0.7c0.567-0.865,1.584-1.416,3.05-1.648
	L50.396,443.1L50.396,443.1z"/>
<path id="path13" fill="#00035C" stroke="#00035C" stroke-width="0.5" d="M504.805,55.7c5.133,1.167,8.966,2.483,11.498,3.95
	c-6.033,2.434-14.066,4.534-24.098,6.3l-9.35,1.55l-4.048,0.85l-0.801,0.1l-0.851,0.75l-3.699-4.25
	c-1.101-1.3-1.951-2.45-2.551-3.45c-1.299-2.066-2.733-5.467-4.299-10.2c1.5-0.2,3.684-0.783,6.549-1.75l6.4-2.3
	c-1.367,1.333-0.834,2.5,1.6,3.5c1.698,0.667,5.081,1.467,10.147,2.4L504.805,55.7z M617.344,26.2l-7.5-6.6
	c-3.633-3.133-6.432-5.733-8.398-7.8l0.399-0.35c2.498,0.767,5.799,1.216,9.898,1.35c2.332,0.034,6.266-0.05,11.799-0.25
	l12.149-0.15c4.4,0.167,8.133,0.684,11.198,1.55c0.199,0.2,0.901,0.417,2.101,0.65l2.698,0.5c-3.6,0.867-5.314,2.783-5.148,5.75
	c0.065,1.2,0.467,2.45,1.199,3.75c0.665,1.233,1.551,2.316,2.65,3.25l-4.25-0.2l-14.299-0.75l-1.4-0.05h0.25h-0.1l-1.699-0.05
	h-0.201h0.301l-2.799-0.05l-8.149-0.2L617.344,26.2z M442.209,64.25l0.6,0.1l0.9-0.5c3.768,5.933,4.816,10.867,3.15,14.8
	c-1.268,2.9-4.199,5.45-8.799,7.65l-5.801,2.35l-4.949,2.1c-1.533,0.733-2.517,1.467-2.949,2.2c-0.533,0.866-0.416,1.833,0.35,2.9
	c-3.133,6.767-5.648,10.483-7.548,11.15c-1.567,0.533-2.768-1.017-3.6-4.65c-0.533-2.367-0.984-6.333-1.35-11.9
	c-0.435-5.767-0.783-9.333-1.052-10.7l0.199-0.15c3.967-1.167,9.367-3.383,16.2-6.65C435.16,69.316,440.043,66.417,442.209,64.25z
	 M-0.5,441.75V400.7l1.8,2.2c2.167,2.633,3.933,4.433,5.299,5.398c1.633,1.167,4.034,2.15,7.199,2.95l14.249,2.9l1.5,1.448
	c0.466,1.102,1.366,2.233,2.7,3.4c1.5,1.3,2.633,1.583,3.4,0.85c1.034,0.7,1.95,1.052,2.75,1.052l3-0.5
	c0.5,0.698,1.084,1.767,1.75,3.198l1.649,3.75c1.367,3.034,2.7,4.65,4,4.852l18.798-0.8c3.2,0.133,4.399,0.648,3.6,1.55
	c-0.7,0.7-2.95,1.833-6.75,3.398l-11.949,4.75l-2.1,2c1.533,0,3.15,0.5,4.85,1.5l-1.1,1.602l-0.05,0.6
	c-0.867,3.435-5.783,5.217-14.749,5.352l-10.449-0.45l-7.449-0.65l-2.25-0.6c-0.633-0.033-1.317,0.232-2.05,0.8l-3.649-2.6
	c-1.966-4.367-5.866-6.667-11.699-6.9H-0.5z M46.946,445.45c0.9-0.334,2.05-1.117,3.45-2.352l-1.2,0.102
	c-1.466,0.232-2.483,0.783-3.05,1.648c-0.233,0.302-0.267,0.534-0.1,0.7L46.946,445.45z M-0.5,390.95V359.6
	c0.4-0.066,0.683-0.35,0.85-0.85c0.2-0.733,0.05-1.55-0.45-2.45l-0.4-0.6v-1.05L2,354.4c1.4-0.233,2-0.75,1.8-1.55
	c-0.267-0.967-1.7-2.517-4.299-4.65v-0.15l2.3,0.65l1.55,0.4l4.799-0.35c-0.567,0.533-0.917,1.5-1.05,2.9
	c-0.133,1.367-0.017,2.967,0.35,4.8c0.9,4.366,2.85,8.433,5.849,12.2l-0.35,0.4l-2.55,1.9l-2.45,1.8
	c-1.734,1.366-2.783,2.967-3.15,4.8c0.7,3.634,1.617,6.2,2.75,7.7c1.5,1.967,3.917,2.982,7.25,3.05l2.9,0.5l2.5,0.3l-0.3,0.352
	v0.199v0.101v0.149v0.25l0.05,0.199v0.15l0.05,0.2l0.1,0.3v0.1l0.15,0.5c0.633,1.733,1.517,3.217,2.649,4.45
	c1.267,1.4,2.267,1.634,3,0.7c0.034,0.7,0.467,2.383,1.3,5.05c0.7,2.3,0.95,3.768,0.75,4.4c-0.466,0.398-1.383,0.283-2.75-0.352
	l-4.85-2.948l-6.549-4.4c-2.867-1.867-5.5-3.417-7.899-4.65C3.7,392.684,1.566,391.717-0.5,390.95L-0.5,390.95z M19.898,389.75v0.05
	V389.75z M285.924,182.1c-0.133,1.933,0.833,4,2.9,6.2c1.5,1.667,3.383,3.184,5.649,4.55c4.467-0.034,6.6,2.017,6.399,6.15
	c-0.034,0.934-0.267,2.434-0.7,4.5c-0.333,1.5-0.383,2.367-0.15,2.6l-1.35,0.95c-2.9,0.767-6.532,1.917-10.899,3.45l-10.849,3.9
	c-3.467,1.167-6.184,1.567-8.149,1.2l-1.2-0.35l2.6-0.25l3.2-0.4c-0.767-1.6-1.933-2.5-3.5-2.7l-2.25-0.05h-2.55
	c-0.033,0.733,0.017,1.333,0.15,1.8l-0.2-0.2l-1.3-1.4l-1.55-1.15c-1.333-0.667-3.15-0.667-5.45,0l-1.35-0.65l-2.3-0.1
	c-0.866,0.567-2.467,0.967-4.8,1.2l-6.849,0.2l-6.049,0.2c-1.767,0.133-2.634,0.467-2.6,1c-6.433,3.833-12.616,7.767-18.548,11.8
	l-12.299,8.7l-7.699,5.35c-2.033,1.167-3.649,1.7-4.85,1.6c-1.267-0.1-2.5-0.884-3.7-2.35c-0.934-1.2-2.3-3.434-4.1-6.7l-6.25-11.25
	c-3.1-5.466-6.432-10.867-9.999-16.2l1.05-0.95l2.649-1.7l0.4-0.25c1.633-0.866,3.65-1.733,6.05-2.6l2.649-0.95l1.8-0.6l9.549-2.7
	l0.95-0.25l1.1-0.25l1.9-0.45l0.2,0.2l0.55,0.3l1.4,0.45l3.049,0.75l0.85,0.2c3.867,0.8,7.615,1.333,11.249,1.6
	c4.566,0.333,8.182,0.133,10.849-0.6c3.267-0.9,4.899-2.55,4.899-4.95l0.75-0.35l14.599-2.3l6.399-0.75
	c-0.3,0.5-0.45,0.917-0.45,1.25c-0.033,0.4,0.183,0.634,0.65,0.7c0.433,0.033,0.95-0.1,1.55-0.4c0.6-0.333,1.083-0.767,1.45-1.3
	l-1.15-0.45l6-0.7C268.643,185.25,278.525,183.733,285.924,182.1z M179.934,196.65h0.05H179.934z M516.502,260.05
	c3-0.733,5.916-2.216,8.75-4.45c1.6-1.333,3.95-3.65,7.049-6.95c2.999-3.3,5.434-5.683,7.298-7.15c3-2.367,6.201-4,9.601-4.9
	l1.25-0.2c-0.901,3.167-1.601,6.317-2.101,9.45c-0.698,4.566-0.6,7.45,0.302,8.65l-0.4,0.35c-3.033,0.4-6.6,2.083-10.699,5.05
	c-1.801,1.267-5.533,4.317-11.199,9.15c-4.831,4.1-8.731,7.05-11.698,8.85l-2.05,1.15l-1.35,0.65l-0.603,0.25
	c-2.532,1.1-4.932,1.716-7.199,1.85l-1,0.05c-0.666-2.034-1.383-3.217-2.148-3.55c-0.935-0.466-2.133,0.167-3.6,1.9
	c-1.301-1.333-0.951-2.833,1.049-4.5c1.133-0.967,3.665-2.5,7.599-4.6c3.733-2.067,6.217-3.65,7.45-4.75
	c1.934-1.767,2.165-3.367,0.7-4.8c0.267-0.233,0.566-0.4,0.898-0.5l0.649-0.15C515.521,260.8,516.002,260.517,516.502,260.05
	L516.502,260.05z M464.807,275.2h1.051c1.066,0.8,2.166,1.333,3.299,1.6l2.85,0.15c1.135,0.066,2.102,0.267,2.9,0.6
	c1.134,0.467,2.317,1.35,3.551,2.65c-1.568,6.733-4.033,11.25-7.4,13.55c-2.732,1.8-5.931,2.133-9.599,1
	c-2.766-0.833-5.432-2.333-7.998-4.5l-0.15-0.15l0.249-0.05l0.699-0.45c0.5-0.467,0.934-1.233,1.301-2.3
	c0.434-1.566,0.35-2.55-0.25-2.95c-0.666-0.467-1.768,0.017-3.301,1.45l-0.75,0.7c-0.5-0.5-0.815-1.267-0.949-2.3
	c-0.198-1.134-0.616-2.1-1.25-2.9l0.802-0.65c1.467-1.033,3.949-1.967,7.449-2.8l4.449-1.15
	C463.225,276.233,464.24,275.733,464.807,275.2L464.807,275.2z M604.446,155.5c0.364-2.4,1.614-3.583,3.747-3.55
	c1.768,0,3.635,0.733,5.6,2.2c-1.398,1.7-2.25,3.184-2.549,4.45c-0.133,0.7-0.084,1.667,0.15,2.9
	c0.198,1.133,0.184,2.083-0.052,2.85c-0.399,1.2-1.415,2.617-3.048,4.25l-0.75-1.85l-0.552-3.85
	c-0.032-1.233-0.299-2.517-0.799-3.85L604.446,155.5z M444.41,283.1c1.965,6.533,0.949,11.633-3.051,15.3
	c-1.698,1.5-3.934,2.833-6.699,4c-2.066,0.867-4.766,1.75-8.099,2.65l-7.85,2.05c-2.799,0.867-4.799,1.733-5.998,2.6
	c-1.769,1.3-2.485,2.833-2.151,4.6c0.199,1.7,1.5,3.767,3.9,6.2l-2.15,0.9c-1.367,0.367-2.234,0.733-2.6,1.1
	c-2.967,1.967-6.883,3.733-11.75,5.3l-13.448,3.6c-5.6,1.4-9.916,2.717-12.948,3.95c-4.368,1.767-7.783,3.883-10.25,6.35l-3.149-0.4
	l-3.2-0.55c-1.066-0.1-1.832,0.017-2.299,0.35c-0.633,0.4-0.883,1.15-0.75,2.25c-1.133-0.133-1.984,0.25-2.551,1.15
	c-0.299,0.433-0.682,1.417-1.148,2.95l-0.353,0.35c-1.1,1.067-2.682,2.1-4.748,3.1l-5.95,2.4c-2.768,1.034-4.768,1.851-6,2.45
	c-2.067,0.967-3.65,2.017-4.75,3.15l-0.549,0.15l-10.498,5.75l-0.6-0.2c-0.734,0.734-1.85,1.533-3.35,2.4l-3.952,2.2l-1.548,0.25
	l-3.5-0.101l-8.849,4.65l-5.1,1.5c-2,0.7-3.649,1.566-4.949,2.6l-0.55-0.199c-2,2-5.684,4.416-11.049,7.25l-4,2
	c-7.433,3.633-13.115,5.85-17.049,6.648c0.033-1.033,0.7-2.066,2-3.1l4.1-2.75c1.733-1.167,2.95-2.233,3.65-3.2l0.05-0.101
	c0.866-1.366,0.733-3.3-0.4-5.8c-1.9-1.933-3.783-4.267-5.649-7l-3-4.3c1.633-1.399,2.616-2.583,2.95-3.55
	c1.484-5.165,1.905-7.717,3.95-7.9l1.6-0.1l1.45-0.6l6-2c2.567-1.066,4.382-2.133,5.449-3.2c3.833,0,6.183-1.067,7.049-3.2
	c0.6-1.567,0.434-4.133-0.5-7.7l-1.25-4.55c-0.5-1.833-0.834-3.35-1-4.55c-0.5-3.434,0.033-6.017,1.6-7.75l3.1-2.9
	c1.3-1.133,2.483-1.883,3.55-2.25c4.5,1.6,8.016,4.15,10.549,7.65l2.65,4.55l2,4.3c0.8,1.534,1.583,2.733,2.35,3.6
	c0.966,1.067,2.133,1.817,3.499,2.25c3.066,1.033,7.699,0.55,13.9-1.45l6.949-6.15l0.101-0.75v0.4c0.065,2.3,0.315,4.15,0.75,5.55
	c1.4,4.566,4.633,4.316,9.699-0.75c0.1-0.8,0.982-2.867,2.648-6.2c1.602-3.267,3.5-6.783,5.701-10.55
	c5.465-9.6,8.898-14.533,10.3-14.8l2.798,2.25c1.134,0.8,2.185,1.283,3.151,1.45l1.198,0.35l1.052-0.35
	c2.066,0.367,14.398-2.933,36.996-9.9l23.398-7.45c7.032-2.333,10.716-3.633,11.05-3.9c1.032,0,2.532-0.7,4.499-2.1
	C442.309,284.2,443.51,283.467,444.41,283.1L444.41,283.1z M418.711,307.1v0.05V307.1z M410.563,314.3h-0.051H410.563z M293.573,374
	v0.05V374z M334.17,308.3c-1.401,1.434-2.401,2.067-3,1.9c-0.234-0.067-0.234-0.3,0-0.7c0.232-0.533,0.75-1.184,1.549-1.95
	L334.17,308.3z M285.124,367.45c-0.934,0.033-2.5,0.7-4.7,2l-0.75-0.05l-1,1.649c-0.433,0.834-0.7,1.566-0.8,2.2
	c-0.367,1.8,0.467,2.25,2.5,1.35l0.6,0.2l3.2-3.149c0.967-1.2,1.567-2.184,1.8-2.95C286.207,367.833,285.924,367.417,285.124,367.45
	L285.124,367.45z M156.286,393.8c0.1,0.101,0.033,1-0.2,2.7c-0.267,2.133-0.333,4.133-0.2,6c0.566,6.566,3.667,12.65,9.299,18.25
	l-1.4,0.85l-5.299,1.352c-2.2,0.6-6.232,2.183-12.099,4.75l-8.749,3.8l-0.1,0.05l-0.1,0.05l-1.9,0.602l-10.799,3.75l-0.8,0.3
	l-0.65-0.1c-1.267-0.567,0.184-2.917,4.35-7.052l0.95,0.2l4.95-1.398c2.133-0.602,3.549-1.25,4.25-1.95
	c1.5-1.5,2.184-2.617,2.05-3.352c-0.2-0.865-1.367-1.35-3.5-1.448h-1.85c-0.233-3.567,0.017-6.667,0.75-9.302
	c0.566-2,1.466-3.883,2.7-5.648l3-3.75c0.967-1.334,1.517-2.617,1.649-3.852l0.2-0.198c2.333-0.4,3.75-1.218,4.25-2.45
	c0.533-1.334-0.45-2.417-2.95-3.25l-1.45-1.45c1.367-2.367,2.667-3.634,3.899-3.8c0.933-0.134,1.966,0.399,3.1,1.601l1.5,1.699
	l1.5,1.7C153.902,393.583,155.119,394.033,156.286,393.8L156.286,393.8z M72.994,234.05c2.867-1.3,6.449-2.283,10.749-2.95
	l11.199-1.3c2.2-0.466,5.367-1.6,9.499-3.4c3.8-1.667,6.917-2.633,9.35-2.9l7.049-1.15c3.066-0.6,5.149-1.45,6.249-2.55l1.8,0.05
	l1.9-0.4c-7.399,9.2-11.132,16.033-11.199,20.5c-0.066,1.833,0.483,3.45,1.65,4.85c0.767,0.934,2.1,1.967,4,3.1
	c2.433,1.467,3.95,2.434,4.55,2.9c1.566,1.233,2.633,2.617,3.2,4.15c1.433,3.933-0.217,9.883-4.95,17.85
	c-4.1-2.2-7.316-1.883-9.649,0.95c-1.933,2.3-3.017,5.833-3.25,10.6c-0.233,4.333,0.233,7.8,1.4,10.4
	c0.534,1.233,1.167,1.917,1.9,2.05c0.767,0.167,1.55-0.383,2.35-1.65c0,0.9-0.133,1.783-0.4,2.65l-0.7,1.9
	c-0.267,0.667-0.35,1.333-0.25,2c0.133,0.8,0.533,1.767,1.2,2.9l0.75,1.45l-0.55,2.1l-1.1,1.8c-1.766,0.167-3.367-0.534-4.799-2.1
	c-0.834-0.934-1.933-2.617-3.3-5.05c-1.233-2.2-2.183-3.566-2.85-4.1c-1.1-0.9-2.267-0.717-3.5,0.55
	c-0.267,4.6-0.35,8.816-0.25,12.65c0.033,2.3-0.017,3.517-0.15,3.65h-0.65l-1.45-0.45l-6.149,0.2c-0.667,0.233-1.133,0.467-1.4,0.7
	l-2.1,2.05c-1.234,3.6-1.933,6.284-2.1,8.05v0.1c-0.2-0.434-0.533-0.817-1-1.15c-1.233-0.867-3.166-1.1-5.799-0.7
	c-1.1-0.434-2.567-0.017-4.4,1.25c-1.6,1.033-3.316,2.583-5.149,4.65c-1.633,1.767-2.984,3.5-4.05,5.2c-1.1,1.633-1.5,2.6-1.2,2.9
	l-0.15,4.15c-0.167,1.767-0.583,2.983-1.25,3.65l-4.399-1.1l-2.65-0.9c-0.8-0.133-1.633,0.067-2.5,0.6
	c-0.9,0.533-2.167,1.617-3.8,3.25c-0.467-0.467-0.3-0.95,0.5-1.45l2.899-1.8c2.733-2,3.016-4.684,0.85-8.05
	c1.3-1.667,1.484-2.934,0.55-3.8c-0.9-0.8-2.25-0.95-4.049-0.45c6.699-6.367,8.766-10.934,6.199-13.7l1.15-1.15l4.1-3.95l2-1.35
	c1.867-1.433,3.35-2.917,4.45-4.45c1-1.467,1.933-3.35,2.799-5.65c0.333,0.333,1.616-0.05,3.85-1.15l0.25-0.15
	c2.567-1.333,5.15-3.733,7.75-7.2l0.15-0.2c-1.1-2.533-1.35-5.95-0.75-10.25c0.3-2.2,1.183-6.217,2.65-12.05
	c1.267-5.1,1.967-8.884,2.1-11.35c0.167-3.767-0.633-6.534-2.399-8.3c0.567-0.167,0.95-0.316,1.15-0.45l1.1-1.05
	c0.433,0.434,0.433,0.817,0,1.15l-0.4,0.35c-0.1,0.167-0.034,0.367,0.2,0.6l0.6-0.75c3.7-4.633,5.267-8.133,4.7-10.5
	c-0.534-2-2.634-3.35-6.299-4.05l-5.2-0.6l-5.299-0.3C76.26,235.617,73.827,234.983,72.994,234.05L72.994,234.05z M91.042,326.2
	l0.1,0.8c0,0.3-0.033,0.367-0.1,0.2V326.2z M88.142,293.5v-0.05V293.5z M156.486,208.15c0.7-0.7,1.866-1.466,3.5-2.3
	c1.567-0.8,2.917-1.333,4.05-1.6c-0.733,2.566-1.55,4.117-2.45,4.65C160.519,209.566,158.819,209.316,156.486,208.15L156.486,208.15
	z M83.542,400.45c1.3,1.333,1.25,2.633-0.15,3.898c-1.266,1.135-3.083,1.852-5.45,2.15c-2.5,0.3-4.417-0.05-5.749-1.05
	c-1.567-1.2-1.867-3.102-0.9-5.7L83.542,400.45z M103.091,442.95c-3.467-2.602-5.632-5.117-6.5-7.55
	c-0.767-2.102-0.517-3.867,0.75-5.302c1.133-1.365,2.817-2.133,5.049-2.3c2.267-0.167,4.4,0.4,6.399,1.7
	c-1.733,1.733-2.917,4.25-3.549,7.55l-0.7,3.4C104.207,441.55,103.724,442.383,103.091,442.95L103.091,442.95z M111.94,427.8
	c-0.034-1.033,0.267-1.85,0.9-2.45c0.566-0.532,1.333-0.815,2.3-0.85c0.866-0.066,1.716,0.083,2.55,0.45
	c0.834,0.366,1.45,0.883,1.85,1.55c-1.267-0.2-2.667-0.033-4.199,0.5C113.64,427.533,112.506,427.8,111.94,427.8L111.94,427.8z
	 M180.734,389.65c-2.866,1.033-5.083,1.35-6.649,0.949c-1.867-0.434-1.883-1.816-0.05-4.149c1.433-0.767,2.467-1.267,3.1-1.5
	l4.25-1.45c3.7,0.467,5.216,1.4,4.549,2.8C185.366,387.467,183.633,388.583,180.734,389.65z M52.845,333.6
	c-4.434,1.8-4.732,0.333-0.9-4.4C51.711,330.834,52.011,332.3,52.845,333.6z M21.748,389.4c3.4,0.731,4.9,2.332,4.5,4.8l-0.55-0.601
	c-1.8-2.101-3.2-3.468-4.2-4.101l-0.4-0.25L21.748,389.4z"/>
<path id="path15" fill="#1E7070" stroke="#1E7070" stroke-width="0.5" d="M479.558,47.25l-6.4,2.3
	c-2.866,0.967-5.049,1.55-6.549,1.75c-3.066,2.367-6.75,4.667-11.049,6.9l-11.85,5.65l-0.9,0.5l-0.6-0.1l0.5-1l-0.851-0.5
	c6.066-4.6,16.482-10.7,31.248-18.3c15.932-8.267,32.13-15.767,48.596-22.5c19.23-7.9,35.795-13.483,49.695-16.75l10.849-2.15
	l17.998-0.55l0.951,0.15l0.649,0.15c1.567,0.333,2.983,0.8,4.248,1.4c-0.533,0.5-1.033,1.216-1.5,2.15l-2.748,5.1l-0.399,0.35
	c-12.533,1.434-23.516,3.034-32.947,4.8c-10,1.833-19.482,4.083-28.447,6.75c-9,2.6-18.432,5.867-28.296,9.8
	C502.522,36.816,491.789,41.517,479.558,47.25L479.558,47.25z M524.803,60.35c7.564,1.533,15.014,0.85,22.349-2.05
	c2.532-1,5.283-2.35,8.248-4.05l-0.85,1.7l-2,3.85c-1.832,3.2-4.016,5.9-6.549,8.1l-0.698,0.45c-3.201-0.333-7.251-1.217-12.15-2.65
	l-12.049-3.1c0.5-0.3,1-0.483,1.5-0.55l0.899-0.15C524.002,61.8,524.437,61.283,524.803,60.35z M566.447,47.15l0.352-0.25l10.3-6.85
	l4.998-3c-1.532,1.233-3.415,3.067-5.648,5.5l-3.799,3.95l-1.352,0.95l-1.6,0.15L566.447,47.15z M582.096,37.05l-0.049,0.05
	L582.096,37.05z M588.496,33.7l0.051-0.05c9.199-4.367,18.798-6.85,28.798-7.45l0.699,0.35c-0.4,0.667-0.55,1.167-0.449,1.5
	l0.85,1.45l-5.548,0.05l-5.752,0.5c-4.266,0.833-6.85,2.934-7.75,6.3c-1.267,1.466-2.149,2.233-2.649,2.3
	c-0.602,0.034-1.566-0.617-2.9-1.95c-1.566-2.233-3.5-3.167-5.799-2.8L588.496,33.7L588.496,33.7z M371.666,99.7l1.5-1.5
	c1.666-0.634,8.332-4.217,19.998-10.75c10.932-6.167,16.499-9.167,16.699-9l1.498,1.15l-0.199,0.15
	c-10.731,4.533-19.299,9.3-25.697,14.3c-7.967,6.233-13.799,13.667-17.498,22.3c-0.769,11.933-9.016,23.55-24.748,34.85
	c-5.566,3.966-12.533,8.25-20.898,12.85l-19.348,10.3l-8.649,4.7c-4.667,2.333-7.333,3.233-8,2.7l1.2-1.1
	c0.334-0.367,0.317-0.733-0.05-1.1c2.2-0.866,4.55-1.883,7.049-3.05l7.5-3.5l12.798-7.95l11.549-7.1
	c8.234-5.233,14.717-9.934,19.449-14.1c6.001-5.367,10.998-11.333,14.998-17.9C365.184,118.684,368.8,109.934,371.666,99.7
	L371.666,99.7z M286.324,181.75l-0.05-0.05L286.324,181.75z M703.236,31.15c2.465,1.4,3.682,3.7,3.649,6.9
	c-0.066,2.733-0.983,5.517-2.75,8.35c-1.699,2.733-3.498,4.383-5.398,4.95c-2.1,0.633-3.551-0.434-4.35-3.2
	c-0.033-2.867-2.967-5.716-8.799-8.55c-5.167-2.534-11.435-4.534-18.8-6c-7.266-1.467-13.114-1.934-17.548-1.4
	c-4.967,0.566-6.682,2.3-5.149,5.2l-2.301,0.4c-0.467-0.066-1.165-0.433-2.1-1.1c-1.434-3.634-2.915-6.35-4.449-8.15l2.6,0.6
	l4.949,0.9c4.4,0.567,5.516-0.233,3.35-2.4l4.25,0.2l10.498,2.9c7.801,2.066,14.533,3.633,20.199,4.7
	c7.832,1.466,12.898,1.85,15.199,1.15c2.832-0.867,1.267-3.417-4.701-7.65c-6.432-3.3-12.914-6.05-19.447-8.25
	c-5.766-1.934-12.582-3.8-20.449-5.6l-2.699-0.5c-1.198-0.233-1.9-0.45-2.1-0.65c0.633-0.667,0.732-1.217,0.301-1.65l-1.95-1.45
	c4.499,0,9.4,0.783,14.699,2.35c4.166,1.2,9.05,3.066,14.649,5.6l14.497,6.65C694.686,28.017,699.402,29.917,703.236,31.15z
	 M472.156,90.1c-0.267,2-0.601,3.167-1,3.5c-0.533,0.367-1.666,0.066-3.398-0.9c-2.701-2.7-5.401-4-8.1-3.9l0.75-0.85l5.699-6.8
	l9.949-11.55c1,1.167,2.566,2.583,4.699,4.25l5.049,4.05c-1.033,0.534-2.715,1.317-5.049,2.35c-1.934,0.833-3.331,1.533-4.199,2.1
	c-1.334,0.833-2.334,1.8-3,2.9C472.756,86.517,472.289,88.133,472.156,90.1z M459.658,88.8h-0.051H459.658z M439.66,118.9
	c-1.033,1.567-2.033,2.684-3,3.35c-1.133,0.767-2.482,1.133-4.051,1.1l-10.748-0.5c-1.866,0.466-2.999,1.683-3.4,3.65l-0.299,3.55
	l-0.051,4.65c-0.066,4.667-0.517,9.017-1.351,13.05c-1.166,2.066-2.35,3.3-3.549,3.7c-1.135,0.4-2.734,0.216-4.8-0.55
	c-1.799-3.167-3.717-5.2-5.751-6.1c-1.766-0.767-3.365-0.633-4.799,0.4c-1.331,0.933-2.116,2.316-2.35,4.15
	c-0.266,1.9,0.217,3.633,1.449,5.2c-0.332,1.267-0.75,2-1.25,2.2c-0.5,0.167-1.25-0.117-2.248-0.85c-2.2-0.9-4.4-1.1-6.599-0.6
	c-2.067,0.467-3.918,1.5-5.551,3.1c-1.6,1.534-2.783,3.367-3.549,5.5c-0.768,2.233-0.949,4.467-0.551,6.7
	c-0.033,0.867-0.517,1.667-1.449,2.4c-0.768,0.6-1.65,1.05-2.65,1.35c-2.266-1.067-4.715-0.767-7.35,0.9l-0.147,0.05l4.247-6
	c6.734-9.6,12.299-16.517,16.699-20.75c6.534-6.267,12.582-9.183,18.148-8.75c4.266,5.7,7.167,8,8.699,6.9
	c0.633-0.5,1.117-1.617,1.449-3.35l0.551-6l0.5-7.15c0.232-2.767,0.617-5.067,1.15-6.9c1.398-4.866,3.997-7.316,7.799-7.35
	c3,0.866,7.266-0.817,12.799-5.05c1.934-1.466,4.016-3.25,6.25-5.35l-0.602,1.5l-0.6,1.55
	C441.176,112.533,440.16,115.967,439.66,118.9L439.66,118.9z M443.96,105.5v0.05l0.5-1.15L443.96,105.5z M365.566,175.35
	l-1.301,0.95L365.566,175.35z M358.718,199.5c0.1,3.767-0.816,6.117-2.75,7.05c-1.865,0.9-4.45,0.45-7.748-1.35
	c-2.701-3.9-6.085-6.25-10.15-7.05c-3.398-0.7-7.516-0.367-12.348,1c-2.735,0.767-7.15,2.417-13.25,4.95
	c-5.766,2.367-10.065,3.9-12.898,4.6l-0.901-1.65l1.35-0.95c3.5-0.733,7.267-1.883,11.298-3.45l9.9-3.95
	c3.699-1.434,7.016-2.384,9.949-2.85c3.766-0.633,7.666-0.667,11.699-0.1c3.133,1.3,7.199-0.867,12.198-6.5l2.049-2.4l-0.301,1
	l-0.397,1.65l-0.25,1.95C355.934,194.85,356.783,197.533,358.718,199.5L358.718,199.5z M256.027,226.45l-0.35,0.35l-5.399,0.15
	c-2.1,0.267-3.916,0.783-5.45,1.55c-1.8,0.867-3,1.95-3.6,3.25c-0.7,1.467-0.567,3.15,0.4,5.05l-1.05,2.4
	c-0.367,0.3-1.184,0.183-2.45-0.35c-3.166-3.567-9.732-0.45-19.698,9.35c-3.033,2.966-6.767,6.983-11.199,12.05l-0.1,0.1l0.3-0.85
	l3.7-14.35c0.966-3.533,2.083-6.433,3.35-8.7c3.367-6.2,8.599-9.3,15.699-9.3c2.3,2.3,4.816,3.017,7.549,2.15
	c2.133-0.733,4.549-2.533,7.249-5.4l6.5-7.8c2.333-2.9,4.083-4.633,5.25-5.2c2.3-0.667,4.117-0.667,5.45,0l1.55,1.15l1.3,1.4
	l0.2,0.2l0.4,0.85c0.367,0.467,0.983,0.717,1.85,0.75h0.1l1.2,0.35c1.966,0.367,4.684-0.034,8.149-1.2
	c-0.367,0.7-0.45,1.15-0.25,1.35l1.05-0.05l1.7-0.4l1.7,0.05c-0.866,0.833-1.366,1.8-1.5,2.9c-0.133,1.033,0.066,1.967,0.6,2.8
	c-0.033,1-0.583,1.6-1.65,1.8c-1,0.167-1.8-0.05-2.4-0.65c-2.333-4.434-5.782-5.684-10.349-3.75
	C262.459,219.883,259.192,222.55,256.027,226.45z M207.131,260.35l-0.05,0.05L207.131,260.35z M199.482,268.9l-2.9-0.35
	c-1.767-1.733-4.132-3.017-7.099-3.85c-2.9-0.8-5.649-0.983-8.25-0.55c-2.8,0.4-4.782,1.434-5.949,3.1
	c-1.333,1.833-1.383,4.233-0.15,7.2l-1.95,0.2h-2.649c-2.633-3.933-5.267-6.033-7.899-6.3c-2.334-0.267-4.466,0.816-6.399,3.25
	c-1.767,2.2-3.067,5.1-3.899,8.7c-0.867,3.567-1.033,6.917-0.5,10.05c-0.533,2.9-1.533,4.9-3,6c-1.667,1.233-3.75,1.083-6.25-0.45
	c-4.833-5.066-9.265-6.233-13.299-3.5c-2.7,1.8-5.583,5.867-8.649,12.2c-0.667-1.133-1.067-2.1-1.2-2.9
	c-0.1-0.667-0.017-1.333,0.25-2l0.7-1.9c0.267-0.867,0.4-1.75,0.4-2.65c1.233-5.267,3.867-7.95,7.899-8.05
	c1.567-0.067,3.417,0.25,5.549,0.95c1.3,0.434,3.166,1.184,5.6,2.25l4.85,1.95l3.399,0.15c1.7-0.933,1.484-4.75-0.65-11.45
	c0-1.367,1.75-3.617,5.25-6.75c3.033-2.733,6.982-5.8,11.849-9.2c4.534-3.167,8.749-5.85,12.649-8.05
	c4.066-2.3,6.632-3.417,7.699-3.35c8.333,8.333,14.299,12.1,17.898,11.3l0.45-0.1L199.482,268.9z M68.394,350.6l-1.85,0.7
	c-1-0.167-4.2,0.4-9.599,1.7c-4.466,1.033-8.499,2.184-12.099,3.45l1.1-0.7c3.4-2.167,6.316-4.75,8.75-7.75
	c1.633-1.633,2.899-2.717,3.799-3.25c0.867-0.533,1.7-0.733,2.5-0.6l2.65,0.9l4.399,1.1c-0.7,0.9-0.983,1.617-0.85,2.15
	L68.394,350.6z M42.496,372.35l4.1,1.15l4.3,0.65c3.565,0.566,6.132,1.633,7.699,3.199c0,1.4,1.75,3.117,5.25,5.15
	c3.367,1.934,7.316,3.583,11.849,4.95c4.899,1.467,9.133,2.133,12.699,2c4.1-0.167,6.649-1.434,7.649-3.801
	c1.033-0.601,1.8-0.916,2.3-0.949c0.533-0.067,1.25,0.133,2.15,0.6l3.199,3.2c0.933,0.866,1.75,1.399,2.45,1.601
	c0.8,0.166,1.767,0.017,2.899-0.449c1.033-0.5,2.5-1.45,4.4-2.852l2.2,0.352c2.467,2.966,4.732,4.6,6.799,4.898
	c2.467,0.4,3.967-1.398,4.5-5.398l2.2-1.102c0.5-0.1,1.167,0.2,2,0.9c1.6,1.333,3.867,2.033,6.799,2.1l2.85-0.05l1.45,0.149
	c-0.667,0.666-0.917,1.416-0.75,2.25c0.067,0.334,0.2,0.533,0.4,0.601c0.233,0.101,0.483,0.017,0.75-0.25l1.45,1.45l-0.65,0.55
	l-1.1,1.3c-0.867,1.4-0.717,2.685,0.45,3.852l-0.2,0.198c-0.133,1.233-0.683,2.518-1.649,3.852l-3,3.75
	c-1.234,1.767-2.133,3.648-2.7,5.648c-0.733,2.635-0.983,5.733-0.75,9.302h1.85l-0.25,3.948l0.55,0.15l1.15,0.7
	c-0.7,0.7-2.116,1.35-4.25,1.95l-4.95,1.398l-0.95-0.2c-0.267-0.398-0.733-0.666-1.4-0.8l-2.1-0.25
	c-2.1-0.167-3.517-0.55-4.25-1.148l-0.35-0.4c-0.4-0.667-1.017-1.184-1.85-1.55c-0.833-0.367-1.683-0.518-2.55-0.45
	c-0.967,0.033-1.734,0.316-2.3,0.85c-0.633,0.602-0.934,1.417-0.9,2.45l-1.2,1.05l-1.95,0.65c-2-1.3-4.132-1.867-6.399-1.7
	c-2.233,0.167-3.917,0.935-5.049,2.3c-1.266,1.435-1.516,3.2-0.75,5.302c0.866,2.433,3.033,4.948,6.5,7.55l-0.55,0.55
	c0.4,1,0.617,1.717,0.65,2.15l1.35,0.648c-0.834,0.602-3.284,1.467-7.349,2.602l-1.85,0.5l-9.949,2.35l-1.55,0.3l-13.798,2.102
	c-4.467,0.365-7.366,0.198-8.699-0.5l-1.25-3.602l-1.2-2.45c-1.133,0.468-1.9,0.65-2.3,0.552l-2.1-1.352
	c1.033-0.667,1.8-0.917,2.3-0.75l0.9,0.55l1.15,0.9c-0.567-1-1.167-1.85-1.8-2.55l-0.85-0.852l-0.95,0.5c-1.7-1-3.316-1.5-4.85-1.5
	l2.1-2l11.949-4.75c3.8-1.565,6.049-2.698,6.75-3.398c0.8-0.9-0.4-1.417-3.6-1.55l-18.798,0.8c-1.3-0.2-2.633-1.817-4-4.852
	l-1.649-3.75c-0.667-1.433-1.25-2.5-1.75-3.198l-3,0.5c-0.8,0-1.717-0.352-2.75-1.052l-1.35-1.6l-1.6-1.8
	c-1.333-1.334-2.383-1.617-3.15-0.852l-1.5-1.448l1.649-1.75c0.367-0.468,0.55-0.9,0.55-1.302c0-0.466-0.183-1.065-0.55-1.8
	l-1.75-3.1c0.2-0.634-0.05-2.102-0.75-4.4c-0.833-2.667-1.266-4.35-1.3-5.05l0.35-2.55c0.4-2.468-1.1-4.066-4.5-4.8l-0.65-0.15
	l-0.5-0.15h-0.4l-2.5-0.3l-2.9-0.5c0.566-0.6,0.55-1.5-0.05-2.7l-1.8-2.5c1.533,0.334,3.049,0.817,4.549,1.45l3,1.15l2.95,0.05
	c1.167-0.232,2.683-0.816,4.549-1.75c5.3,3.633,9.815,5.467,13.549,5.5c3-0.033,5.183-1.184,6.549-3.45
	c0.533-0.967,0.883-2.017,1.05-3.149c0.1-1.101,0.033-2.134-0.2-3.101c-0.3-0.967-0.75-1.7-1.35-2.2
	c-0.7-0.566-1.484-0.767-2.35-0.6c-0.233-0.233-0.683-0.517-1.35-0.85l-1.55-0.851C41.247,374.533,41.296,373.55,42.496,372.35
	L42.496,372.35z M103.041,445.7c-0.233,0-0.25,0.083-0.05,0.25c0.1,0.1,0.167,0.017,0.2-0.25H103.041z M103.191,445.65v0.05V445.65z
	 M220.23,357.6c0.4-1.8,1.216-2.85,2.45-3.149c0.867-0.2,2.25-0.017,4.15,0.55c3.5,2.867,9.432,3.7,17.798,2.5l10.049-2.05
	l8.199-2.1l-1.35,0.95c-0.4,0.3-0.383,0.667,0.05,1.101l-1.45,0.6l-1.6,0.1c-3.333,1.258-2.889,4.481-3.95,7.9
	c-0.334,0.967-1.317,2.15-2.95,3.55c-0.367,0.101-1.983-0.649-4.85-2.25l-8.999-4.85c-8.566-4.2-13.432-4.483-14.599-0.851
	c0.833,8.7-6.366,14.817-21.598,18.351c-4.199,1-9.816,1.934-16.848,2.8c-5.933,0.7-9.265,1.233-9.999,1.6l-4.35,1.2l-4.85,0.65
	l-1.1-1.851l6.549-1.649l6-2.25c2.366-0.9,4.4-1.55,6.1-1.95c2.3-0.566,4.583-0.833,6.849-0.8c-1.234,1.2-1.85,2-1.85,2.399
	c0,0.334,0.367,0.334,1.1,0l1.85-1.35c0.566-0.6,0.7-1.066,0.4-1.4c2.233-1.033,3.617-1.933,4.149-2.699
	c0.533-0.801,0.8-2.434,0.8-4.9c0.567-1,1.45-1.35,2.649-1.05c0.533,0.134,1.5,0.6,2.9,1.399c1.5,0.733,3.433,1.017,5.799,0.851
	c2.3-0.2,4.5-0.767,6.6-1.7c2.233-1.033,3.883-2.334,4.95-3.9C220.513,361.584,220.83,359.666,220.23,357.6L220.23,357.6z
	 M280.774,315.5l2.05-0.6l2.75,2.4c-1.066,0.367-2.25,1.117-3.55,2.25l-3.1,2.9c-0.4-0.4-0.35-0.983,0.15-1.75
	c0.233-0.4,0.784-1.034,1.65-1.9c1.926-1.999-2.276-0.105-2.55,0L280.774,315.5z M344.168,293.85l3.6,0.05
	c1.032,0.167,2.1,0.583,3.2,1.25c2.498,3.367,4.848,5.917,7.049,7.65c2.766,2.167,5.832,3.55,9.199,4.15l-2.35,1.7l-1.052,0.35
	l-1.198-0.35c-0.769-1.1-3.284-3.433-7.55-7c-4.1-3.467-6.201-5.133-6.3-5c-1.267-0.533-2.383-0.733-3.35-0.6
	c-0.566,0.067-1.666,0.383-3.299,0.95c-3.7,0.7-8.134,3.65-13.299,8.85l-1.5-1.45c2.032-2,4.799-3.9,8.299-5.7l4.25-2.2
	C341.502,295.6,342.936,294.717,344.168,293.85L344.168,293.85z M574.548,207.75l0.051-0.05l2.65-2.9l0.398,0.15
	c0.268-0.034,0.6-0.317,1-0.85l1.2-1.85l1.851,1.1c-2.367,2.767-4.383,6-6.051,9.7l-1.898,4.4l-2,4.1
	c-1.666,2.967-3.9,5.517-6.699,7.65c-3.5,2.566-8.367,4.966-14.6,7.2l-1.25,0.2l-0.949-1.7c4.2-2.533,9.232-7.183,15.098-13.95
	l7.15-8.45L574.548,207.75z M600.347,156.6l-0.75-1.5l0.897-1.5c0.434-0.667,0.818-0.85,1.151-0.55l1.301,1.55
	c0.231,0.2,0.731,0.5,1.5,0.9l1.749,3.55c0.5,1.333,0.767,2.617,0.8,3.85c-0.5-0.5-1.033-0.133-1.601,1.1l-1.198,2.75l0.948,0.8
	l0.901,0.85c0.731,0.534,1.416,0.667,2.049,0.4c2.566,3.833,1.168,8.934-4.2,15.3c-1.999,2.4-4.434,4.8-7.298,7.2
	c-2.367,2-4.617,3.684-6.75,5.05l1.999-2.75c0.232-0.367,0.25-0.5,0.052-0.4l-1.051,0.45l-1.199-0.1
	c3.965-4.333,6.998-8.483,9.098-12.45c1.867-3.667,3.635-8.5,5.301-14.5l-1.051-5.4C602.528,159.733,601.646,158.2,600.347,156.6
	L600.347,156.6z M623.444,172.15c0.266,3.567,0,7.317-0.801,11.25c-2.101,10.034-7.583,20.733-16.448,32.1
	c-2.734,3.5-5.668,6.917-8.801,10.25c-5.699,6.066-12.049,11.883-19.047,17.45c-10.066,7.933-19.114,13.55-27.147,16.85
	c0.1-0.133-0.267-0.8-1.101-2c-1-1.433-1.616-2.5-1.85-3.2l0.4-0.35c7.633-1.667,16.513-6.2,26.646-13.6
	c10.332-7.566,19.397-16.267,27.197-26.1c2.734-3.433,5.15-6.816,7.25-10.15c3.732-5.933,6.501-11.716,8.3-17.35l1.051-3.8
	c2.698-11.434,0.934-21.217-5.301-29.35l1.701-0.9C620.227,158.85,622.877,165.15,623.444,172.15L623.444,172.15z M253.077,395.65
	c-2.266,0.767-5.6,1.966-9.999,3.6l-12.799,4.7l-23.748,8.55c-18.698,6.333-34.514,10.383-47.446,12.15
	c0.066-0.167,0.083-0.334,0.05-0.5l-0.65-1.2l5.299-1.352l1.4-0.85l6.6-2.9c1-0.532,1.484-1.05,1.45-1.55l-0.25-0.898l-0.45-1.25
	c-0.367-1.334-0.35-2.885,0.05-4.65l3.1-0.05l7.35,0.25c8.266,0.232,15.499,0.033,21.698-0.602
	c20.765-2.166,30.98-8.833,30.647-19.999c8.932-10.367,13.815-12.617,14.648-6.75c0.2,1.467,0.117,4.051-0.25,7.75l-0.2,3.101
	c-0.033,0.8,0.083,1.183,0.35,1.149c0.533,0.434,1.083,0.649,1.65,0.649c0.433-0.033,0.833,0.101,1.2,0.399L253.077,395.65z
	 M-0.5,446.7v-2.351c1.367,0.135,2.399,0.367,3.1,0.7c1.234,0.566,1.3,1.4,0.2,2.5l-1.5-0.75L-0.5,446.7z M-0.5,399.8v-4.85
	c0.7,0.133,1.617,0.5,2.75,1.1c-1.267,0.2-2.05,0.55-2.35,1.05c-0.267,0.4-0.35,1.283-0.25,2.65L-0.5,399.8z M-0.5,359.6v-3.899
	l0.4,0.6c0.5,0.9,0.65,1.717,0.45,2.45C0.183,359.25-0.1,359.533-0.5,359.6L-0.5,359.6z M-0.5,348.05V338H1h7.899
	c2.933-0.833,3.767-1.567,2.5-2.2c-0.867-0.4-3.45-0.966-7.75-1.7l-4.149-0.75v-2.4c3.699,0.5,7.916,0.267,12.648-0.7l4.2,0.25
	c20.398,0.8,30.597-6.3,30.597-21.3c2.467-2.5,4.6-4.867,6.399-7.1c0.033,0.466,0.267,0.7,0.7,0.7c0.8,0.034,2.1-0.716,3.899-2.25
	c1.8-1.6,3.583-3.55,5.35-5.85c1.967-2.6,3.517-5.15,4.649-7.65c1.3-2.9,1.866-5.45,1.7-7.65c-0.4-5.533-5.133-8.283-14.199-8.25
	c-0.133,0.2,0.033,1.083,0.5,2.65l1.5,5.2l0.85,3l-1.3-1.35c-2.866-2.333-7.282-3.7-13.249-4.1
	c-5.699-0.367-12.083,0.184-19.148,1.65c-7.167,1.467-13.966,3.65-20.398,6.55l-4.699,2.3v-3.3l2.25-1.5
	c8.399-5.6,17.349-10.45,26.848-14.55c9.799-4.267,18.815-7.134,27.047-8.6c8.866-1.6,15.866-1.383,20.998,0.65
	c5.667,2.267,8.632,6.683,8.899,13.25c0.267,7.333-2.866,17.066-9.399,29.2c-0.867,2.3-1.8,4.183-2.799,5.65
	c-1.1,1.533-2.583,3.017-4.45,4.45c1.267-1.5,1.783-2.4,1.55-2.7c-0.2-0.267-0.8-0.1-1.8,0.5c-0.966,0.6-1.667,1.25-2.1,1.95
	c-0.567,0.8-0.45,1.333,0.35,1.6l-4.1,3.95l-1.15,1.15l-0.1-0.15l1.1-1.2c1.367-1.667,1.667-2.417,0.9-2.25
	c-1.1,0.233-2.75,1.383-4.95,3.45c-2.533,2.4-4.382,4.816-5.549,7.25c-0.566,1.167-0.933,2.283-1.1,3.35
	c-3.833,4.733-3.534,6.2,0.9,4.4l2.6-1.15c1.8-0.5,3.149-0.35,4.049,0.45c0.933,0.867,0.75,2.133-0.55,3.8
	c-2.467,3.733-9.882,6.683-22.248,8.85c-6.066,1.034-15.582,2.1-28.547,3.2L3.35,349.1l-1.55-0.4L-0.5,348.05z M63.544,315.15h-0.05
	H63.544z M-0.5,261.85v-3.5l3.2-1.3l22.348-9.4c8.333-3.6,15.332-6.917,20.998-9.95c0.667,0.9,1.866,1.167,3.6,0.8
	c1.366-0.3,2.683-0.867,3.95-1.7l0.6-0.2c0.534,0.566,1,0.816,1.4,0.75c0.367-0.133,0.8,0.05,1.3,0.55
	c-3.433,2.967-8.382,5.9-14.849,8.8c-4.933,2.2-11.682,4.767-20.248,7.7L-0.5,261.85z M381.115,122.2
	c0.033,0.533-0.199,1.083-0.699,1.65c-0.567,0.6-1.334,1.05-2.301,1.35c-1.065-1.1-1.616-1.784-1.65-2.05
	c-0.066-0.333,0.301-1.117,1.1-2.35l2.602,0.1C380.766,121.167,381.082,121.6,381.115,122.2z M368.217,145.5
	c-1.135-1.1-1.735-1.783-1.801-2.05c-0.134-0.5,0.25-1.3,1.149-2.4l2.401,0.15c0.532,0.3,0.85,0.75,0.948,1.35
	c0.066,0.6-0.117,1.167-0.551,1.7C369.865,144.85,369.15,145.267,368.217,145.5z M250.277,187.35l1.15,0.45
	c-0.367,0.534-0.85,0.967-1.45,1.3c-0.6,0.3-1.117,0.433-1.55,0.4c-0.467-0.066-0.683-0.3-0.65-0.7c0-0.333,0.15-0.75,0.45-1.25
	l0.6-0.85L250.277,187.35z M342.119,185.4c-0.435-1.066,0.065-2.417,1.5-4.05l2.549-0.35c0.934-0.066,1.717,0.117,2.35,0.55
	c0.467,1.667,0.217,3.017-0.75,4.05c-0.832,0.867-1.899,1.283-3.199,1.25C343.234,186.783,342.418,186.3,342.119,185.4z
	 M407.512,137.9c-0.898-0.167-1.498-0.816-1.799-1.95c-0.301-1.034-0.268-2.233,0.101-3.6c0.366-1.434,0.983-2.65,1.85-3.65
	c4.467-0.667,5.65,1.917,3.551,7.75C409.747,137.584,408.512,138.066,407.512,137.9L407.512,137.9z M524.951,246.05
	c1.268,1.867,0.102,4.65-3.498,8.35l-3.7,3.6c-1.1,1.1-1.516,1.783-1.25,2.05c-0.5,0.467-0.983,0.75-1.449,0.85l-0.651,0.15
	c-0.332,0.1-0.633,0.267-0.898,0.5c-2.734,1.4-6.168,2.7-10.301,3.9l-11.998,2.85l-12.799,2.9c-4.799,1.233-8.982,2.566-12.549,4
	h-1.051l0.051-0.1l0.051-0.3c-0.067-0.667-2.15-0.367-6.25,0.9l-5.1,1.7l-2.448,0.75c0.731-1.066,1.198-1.933,1.398-2.6l0.25-3.1
	c1.701-2.267,3.051-2.9,4.051-1.9c2.967,3.567,14.031,0.967,33.196-7.8l21.248-10.35C518.686,248.7,523.252,246.584,524.951,246.05
	L524.951,246.05z M608.845,23.4c-0.166,0.7-0.601,1.067-1.299,1.1c-0.834,0.033-1.769-0.517-2.801-1.65l0.399-1.1
	c1.267-0.467,2.266-0.467,3,0C608.712,22.15,608.943,22.7,608.845,23.4L608.845,23.4z M414.463,320.5l0.799-0.6
	c13.233-3.7,27.73-8.9,43.496-15.6c16.532-7.033,29.932-13.833,40.197-20.4l0.101,0.1l1.049,0.4h0.352l1.949,0.05
	c-1.633,0.833-3.518,1.983-5.65,3.45l-5.399,3.9h-0.201l-5.6,1.1l-0.449,0.15c-3.232,1.034-7.216,2.684-11.948,4.95
	c-2.666,1.267-7.316,3.667-13.95,7.2c-0.397,0.2-0.783,0.417-1.148,0.65l-8.8,4.65l-1,0.55c-10.666,5.7-18.467,9.567-23.398,11.6
	c-7.266,2.967-11.766,3.583-13.5,1.85l-0.049-0.5l-1.6-1.5c0.364-0.367,1.232-0.733,2.6-1.1L414.463,320.5z M499.055,284l0.049,0.05
	L499.055,284z M459.207,305.2l-0.049,0.05L459.207,305.2z M327.472,332.05l-6.95,6.15l-1.7-1.65c3.1-0.633,5.05-1.867,5.85-3.7
	c0.834-1.934,0.116-4.034-2.151-6.3c0.734-0.466,1.283-2.233,1.651-5.3l0.399-3.55c0.166-1.233,0.351-2.1,0.551-2.6
	c0.699,1.767,1.101,4.033,1.199,6.8c0.133,2.8,0.533,5.033,1.199,6.7l0.051,2.55L327.472,332.05z M277.475,340.6
	c1.867-0.667,2.6-0.25,2.2,1.25c-0.367,1.167-0.983,2.233-1.85,3.2l0.1-2.25L277.475,340.6L277.475,340.6z M60.945,234.55l5.099-1.4
	c2.366-0.466,4-0.25,4.9,0.65c-1.233,0.733-2.75,1.284-4.55,1.65l-4.899,0.8l0.1-0.5L60.945,234.55z M126.539,219.25
	c3.1-1.533,7.849-3.6,14.249-6.2c6.399-2.633,11.199-4.7,14.399-6.2l-0.05,1.05c0.1,0.167,0.417,0.367,0.95,0.6
	c-10.366,4.867-18.798,8.517-25.298,10.95l-1.9,0.4l-1.8-0.05L126.539,219.25L126.539,219.25z M91.992,250.05l-1.1,1.05
	c-0.2,0.133-0.583,0.283-1.15,0.45c-4.3,0.267-6.917,0.05-7.85-0.65c-0.434-0.3-0.5-0.633-0.2-1c0.233-0.367,0.717-0.733,1.45-1.1
	c1.633-0.8,3.35-1.167,5.149-1.1C90.392,247.8,91.625,248.584,91.992,250.05z M158.086,222.05c0.233,0.5,0.133,1.05-0.3,1.65
	c-0.467,0.566-0.967,0.833-1.5,0.8c-0.7-0.1-1.2-0.7-1.5-1.8l1.15-1.45C157.102,221.15,157.819,221.417,158.086,222.05z
	 M116.89,282.05l0.6-1.65c2.5-0.867,4.333-1.017,5.5-0.45c0.933,0.433,1.183,1.183,0.75,2.25c-0.434,1.033-1.25,1.767-2.45,2.2
	c-1.434,0.467-2.867,0.233-4.299-0.7L116.89,282.05z M77.393,331.2c0.133,2.366-0.65,4.633-2.35,6.8c-0.3-1.167-0.2-2.383,0.3-3.65
	C75.776,333.15,76.459,332.1,77.393,331.2z M110.44,306.1c1-0.367,1.683,0.466,2.05,2.5l-2-0.25l-3,0.1l1.5-1.35
	C109.557,306.566,110.04,306.233,110.44,306.1z M113.94,433.9c1.333,0.398,2.267,0.883,2.8,1.448c0.467,0.435,0.566,0.817,0.3,1.15
	c-0.267,0.3-0.767,0.417-1.5,0.35c-0.867-0.133-1.75-0.517-2.65-1.148L113.94,433.9z M12.849,266.55c0-0.3,0.35-0.917,1.05-1.85
	c1.567,0.167,2.233,0.633,2,1.4c-0.167,0.433-0.85,1.183-2.05,2.25L12.849,266.55z M4.45,345c0.066-1.333-0.667-1.017-2.2,0.95
	c0.333,0.566,0.483,1.15,0.45,1.75c-0.033,0.466,0.117,0.866,0.45,1.2C3.917,347.467,4.35,346.167,4.45,345L4.45,345z
	 M13.299,368.65c2.9-1.268,6.715-2.667,11.449-4.2l8.399-2.8l0.8-0.301c-1.667,1.101-2.766,2.167-3.3,3.2
	c-1.267,2.634,1.2,5,7.399,7.101l-2.2,2.05c-0.5,0.333-1.417,0.816-2.75,1.45l-2.2-0.2l-2.45-0.351c-1.233-0.833-2.417-1.833-3.55-3
	l-2.15-2c-0.7-0.399-1.65-0.517-2.85-0.35c-1.267,0.167-3.217,0.717-5.85,1.65l-1.1-1.849L13.299,368.65z M8.5,375.7v2.5l0.75,2.3
	c-0.466,0.467-1.133,0.267-2-0.6l-1.85-2.15l1.899-1.5C7.565,376.05,7.965,375.866,8.5,375.7z"/>
<path id="path17" fill="#219199" d="M477.156,69.2l0.851-0.75l0.801-0.1l4.049-0.85l9.349-1.55
	c10.031-1.767,18.064-3.867,24.098-6.3c1.166-0.667,2.549-0.833,4.15-0.5l4.35,1.2c-0.366,0.933-0.801,1.45-1.301,1.55l-0.899,0.15
	c-0.5,0.067-1,0.25-1.5,0.55c-6.865,1.4-13.48,3.583-19.849,6.55c-4.665,2.167-9.815,5.083-15.449,8.75l-5.049-4.05
	c-2.133-1.667-3.699-3.083-4.699-4.25L477.156,69.2L477.156,69.2z M441.859,62.75l0.851,0.5l-0.5,1
	c-2.166,2.167-7.049,5.066-14.648,8.7c-6.833,3.267-12.233,5.483-16.2,6.65l-1.498-1.15l20.498-10.4
	C433.027,66.717,436.859,64.95,441.859,62.75z M296.673,213.85l-1.4,1l-0.85,0.15l-3.3-1.95l-2.85-0.2c-0.767,0.133-1.8,0.466-3.1,1
	l-4.049,1.5l-1.7-0.05l-1.7,0.4l-1.05,0.05c-0.2-0.2-0.117-0.65,0.25-1.35l10.849-3.9c4.367-1.533,7.999-2.684,10.899-3.45l0.9,1.65
	c-0.7,0.633-1.267,1.566-1.7,2.8C297.406,212.733,297.006,213.517,296.673,213.85L296.673,213.85z M70.244,348.35l-1.85,2.25
	l-1.2-2.3c-0.133-0.533,0.15-1.25,0.85-2.15c0.667-0.667,1.083-1.883,1.25-3.65l0.15-4.15l3.45-4.05l3.1-3.95
	c2.433-2.967,5.183-4.967,8.25-6c2.634-0.4,4.566-0.167,5.799,0.7c0.467,0.333,0.8,0.717,1,1.15v-0.1
	c0.167-1.767,0.867-4.45,2.1-8.05c0.566,0.434,1.033,0.617,1.4,0.55l0.8-0.55l0.7-0.55c0.3-0.067,0.667,0.117,1.1,0.55
	c-1.833,1.4-2.767,2.9-2.799,4.5l0.35,2.5l0.45,1.6l0.4,1.55l-3.15,1.95l-3.3,1.6c-1.433-1.567-2.517-2.65-3.25-3.25
	c-0.9-0.733-1.717-1.117-2.45-1.15c-0.767-0.034-1.616,0.283-2.55,0.95l-3.45,2.9c-0.934,0.9-1.617,1.95-2.05,3.15
	c-0.5,1.267-0.6,2.483-0.3,3.65l-2.75,5.05C71.427,344.883,70.744,346.65,70.244,348.35L70.244,348.35z M91.142,327l-0.1-0.8v1
	C91.109,327.367,91.142,327.3,91.142,327z M282.824,314.9l3.7,0.15c0.933,0.167,2.033,0.617,3.3,1.35
	c3,3.467,5.85,7.083,8.549,10.85c2.167,3.033,3.617,4.883,4.35,5.55c1.2,1.133,2.899,1.934,5.101,2.4l10.998,1.35l1.7,1.65
	c-6.201,2-10.834,2.483-13.9,1.45c-1.366-0.433-2.533-1.183-3.499-2.25c-0.767-0.867-1.55-2.066-2.35-3.6l-2-4.3l-2.65-4.55
	c-2.533-3.5-6.049-6.05-10.549-7.65L282.824,314.9L282.824,314.9z M586.496,195.6l1.302-0.85l1.85-1.2l1.199,0.1l1.051-0.45
	c0.198-0.1,0.182,0.033-0.052,0.4l-1.999,2.75l-8.148,7l-1.85-1.1L586.496,195.6z M606.995,149.2l1.85,0.35
	c0.533,0.534,1.584,1.134,3.15,1.8c1.633,0.7,2.799,1.333,3.5,1.9l-1.701,0.9c-1.965-1.466-3.831-2.2-5.6-2.2
	c-2.133-0.034-3.383,1.15-3.747,3.55c-0.769-0.4-1.269-0.7-1.5-0.9l-1.302-1.55l0.95-1L606.995,149.2L606.995,149.2z
	 M286.324,382.35l-0.35,0.25l-15.699,6.9l-8.899,3c-3.367,1.133-6.133,2.184-8.299,3.15l-0.3-0.25c-0.367-0.301-0.767-0.435-1.2-0.4
	c-0.567,0-1.117-0.217-1.65-0.65l0.95-0.55c3.933-0.8,9.616-3.017,17.048-6.649l4-2c5.366-2.833,9.049-5.25,11.049-7.25l0.55,0.199
	l0.9,0.7l0.85,0.55l1.35,0.801c0.334,0.267,0.5,0.55,0.5,0.85L286.324,382.35z M-0.5,455.8v-9.1l1.8,0.1
	c-0.233,0.233-0.2,0.8,0.1,1.7l0.9,2.75c0.733,2.5,0.167,3.983-1.7,4.45L-0.5,455.8L-0.5,455.8z M-0.5,444.35v-2.6h2.3
	c5.833,0.233,9.732,2.533,11.699,6.9l3.649,2.6c-0.133,1.333-0.483,2.167-1.05,2.5c-0.567,0.3-1.167,0.2-1.8-0.3
	c-0.633-0.533-1.067-1.217-1.3-2.05c-0.267-0.935-0.167-1.784,0.3-2.552c-0.9-0.5-1.817-0.666-2.75-0.5
	c-0.267,0.034-1.033,0.302-2.3,0.802l-2.4,0.3c-0.967-0.2-1.984-0.834-3.05-1.9c1.1-1.1,1.033-1.934-0.2-2.5
	C1.9,444.717,0.867,444.483-0.5,444.35z M-0.5,400.7v-0.9l0.15-0.05c-0.1-1.367-0.017-2.25,0.25-2.65c0.3-0.5,1.083-0.85,2.35-1.05
	c-1.133-0.6-2.05-0.967-2.75-1.1v-4c2.066,0.767,4.199,1.733,6.399,2.899c2.399,1.232,5.032,2.782,7.899,4.649l6.549,4.4l4.85,2.948
	c1.366,0.635,2.283,0.75,2.75,0.352l1.75,3.1c0.367,0.733,0.55,1.334,0.55,1.8c0,0.4-0.183,0.834-0.55,1.302l-1.649,1.75
	l-14.249-2.9c-3.167-0.8-5.566-1.783-7.199-2.95c-1.366-0.967-3.133-2.767-5.299-5.398L-0.5,400.7L-0.5,400.7z M175.534,197.55
	l1-0.35l15.048-5.7l1.85,1.5l-1.9,0.45l-1.1,0.25l-0.95,0.25l-9.499,2.7l-1.85,0.6l-2.649,0.95c-2.4,0.866-4.416,1.733-6.05,2.6
	l-0.4,0.25l-2.65,1.7l-1.05,0.95l-1.3,0.55c-1.133,0.267-2.484,0.8-4.05,1.6c-1.633,0.833-2.799,1.6-3.5,2.3l-0.4,0.35
	c-0.533-0.233-0.85-0.434-0.95-0.6l0.05-1.05l0.85-0.45l0.4-0.2l3.6-1.8l14.449-6.4L175.534,197.55L175.534,197.55z M179.984,196.65
	h-0.05H179.984z M234.329,186.6c4.666-1.167,11.266-2.267,19.798-3.3l2.05-0.25l19.098-2l12.199-1.5
	c0.367,0.367,0.383,0.733,0.05,1.1l-1.25,1.05l-0.35,0.4c-7.399,1.633-17.281,3.15-29.647,4.55l-6,0.7l-1.45-0.65l-0.6,0.85
	l-6.399,0.75l-14.599,2.3l-0.75-0.75C227.612,188.717,230.229,187.633,234.329,186.6L234.329,186.6z M194.183,193.5l-0.55-0.3
	l9.549-1.05l6.849-0.35l16.449-0.85c0,2.4-1.633,4.05-4.899,4.95c-2.667,0.733-6.283,0.934-10.849,0.6
	c-3.633-0.267-7.382-0.8-11.249-1.6l-0.85-0.2l-3.049-0.75L194.183,193.5L194.183,193.5z M525.252,255.6
	c-2.834,2.233-5.75,3.716-8.75,4.45c-0.266-0.267,0.15-0.95,1.25-2.05l3.7-3.6c3.6-3.7,4.766-6.483,3.498-8.35
	c4.867-3.033,8.617-5.216,11.25-6.55c4.1-2.1,8.115-3.633,12.049-4.6l0.949,1.7c-3.399,0.9-6.6,2.533-9.601,4.9
	c-1.864,1.467-4.299,3.85-7.298,7.15C529.202,251.95,526.852,254.267,525.252,255.6L525.252,255.6z M502.453,281.85l1-0.05
	c2.268-0.133,4.666-0.75,7.199-1.85l0.602-0.25l1.351-0.65l2.049-1.15c2.967-1.8,6.867-4.75,11.698-8.85
	c5.667-4.833,9.398-7.883,11.199-9.15c4.1-2.967,7.666-4.65,10.699-5.05c0.232,0.7,0.85,1.767,1.85,3.2
	c0.834,1.2,1.199,1.867,1.101,2c-5.567,4.3-13.433,8.833-23.599,13.6c-4.499,2.067-12.898,5.667-25.197,10.8l-1.949-0.05h-0.352
	l-1-0.35l-0.148-0.15L502.453,281.85L502.453,281.85z M499.104,284.05l-0.049-0.05L499.104,284.05z M451.11,278.15l2.448-0.75
	l5.1-1.7c4.1-1.267,6.182-1.567,6.25-0.9l-0.051,0.3l-0.051,0.1c-0.566,0.533-1.582,1.033-3.049,1.5l-4.449,1.15
	c-3.5,0.833-5.982,1.767-7.449,2.8l-0.801,0.65l-3.699,1.45c-0.268,0.066-0.584,0.183-0.949,0.35c-0.899,0.367-2.102,1.1-3.6,2.2
	c-1.967,1.4-3.467,2.1-4.499,2.1c-0.334,0.267-4.018,1.567-11.049,3.9l-23.399,7.45c-22.598,6.967-34.93,10.267-36.996,9.9l2.35-1.7
	l8.998-2.55c5.234-1.7,10.5-3.533,15.799-5.5c14.398-5.467,21.332-9.117,20.799-10.95c0.867-1.7,2.1-2.134,3.699-1.3l1.801,1.1
	c0.601,0.367,1.05,0.5,1.351,0.4l7.849-0.2l4.399-1.25l3.85-0.6c3.966-2.333,6.599-3.817,7.899-4.45
	C444.893,280.983,447.375,279.816,451.11,278.15z M606.094,4.2c2.4-0.434,8.85,0.233,19.35,2c10.598,1.733,17.197,3.283,19.797,4.65
	l1.951,1.45c0.432,0.434,0.332,0.983-0.302,1.65c-3.066-0.867-6.798-1.384-11.198-1.55l-12.149,0.15
	c-5.533,0.2-9.467,0.284-11.799,0.25c-4.1-0.133-7.4-0.583-9.897-1.35l2.747-5.1C605.061,5.417,605.561,4.7,606.094,4.2L606.094,4.2
	z M617.594,28.05c-0.1-0.333,0.049-0.833,0.449-1.5l8.15,0.2l2.799,0.05h-0.302l-0.698,0.1l-1.151,0.2l-3.997,1.2
	c-1.769,0.567-3.235,0.967-4.401,1.2L617.594,28.05L617.594,28.05z M646.141,27.65c2.166,2.167,1.052,2.967-3.35,2.4l-4.949-0.9
	l-2.6-0.6l-0.15-0.1c-1.231-0.767-2.516-1.267-3.85-1.5l-0.551-0.1h-0.25l1.401,0.05L646.141,27.65L646.141,27.65z M606.994,162.9
	l0.552,3.85l0.75,1.85l-0.201,0.2c-0.633,0.267-1.317,0.134-2.049-0.4l-0.901-0.85l-0.948-0.8l1.198-2.75
	C605.962,162.767,606.495,162.4,606.994,162.9z M453.309,290.1c-0.801,0.066-1.5-0.633-2.1-2.1l-0.301-0.8l0.35-0.7l0.75-0.7
	c1.533-1.433,2.635-1.917,3.301-1.45c0.6,0.4,0.684,1.383,0.25,2.95c-0.367,1.067-0.801,1.833-1.301,2.3l-0.699,0.45L453.309,290.1
	L453.309,290.1z M278.925,322.45c-1.567,1.733-2.1,4.316-1.6,7.75c0.167,1.2,0.5,2.716,1,4.55l1.25,4.55
	c0.934,3.567,1.1,6.133,0.5,7.7c-0.867,2.133-3.217,3.2-7.049,3.2c-1.066,1.066-2.883,2.133-5.45,3.2l-6,2
	c-0.434-0.434-0.45-0.801-0.05-1.101l1.35-0.95l9.599-4.45l5.35-3.85c0.866-0.966,1.483-2.033,1.85-3.2
	c0.4-1.5-0.333-1.917-2.2-1.25c-2.299-1.9-3.816-3.784-4.549-5.65c-0.7-1.667-0.816-3.417-0.35-5.25c0.333-1.434,1.1-3.184,2.3-5.25
	l3.3-5.65c1.8-0.7,2.833-1.017,3.1-0.95c0.2,0.033,0.017,0.35-0.55,0.95c-0.866,0.867-1.417,1.5-1.65,1.9
	C278.575,321.467,278.525,322.05,278.925,322.45L278.925,322.45z M293.573,374l8.849-4.65l3.5,0.101l0.199,0.149
	c-1.633,1-3.583,1.884-5.85,2.65l-6.049,1.6l-0.15,0.051L293.573,374z M307.471,369.2l3.952-2.2c1.5-0.867,2.614-1.666,3.35-2.4
	l0.6,0.2l1.449,1.45l-4.199,2.65l-1.75,1.05l-2.101,0.7c-0.334-0.034-0.915-0.434-1.749-1.2L307.471,369.2z M325.869,359.05
	l0.551-0.149c1.101-1.134,2.685-2.184,4.75-3.15c1.232-0.6,3.232-1.417,6-2.45l5.95-2.4c2.066-1,3.648-2.033,4.748-3.1
	c0.701,1,0.918,1.633,0.65,1.9l-0.75,0.45c-0.467,0.233-0.865,0.5-1.199,0.8c-2,1.033-6.066,3.25-12.198,6.649l-8.55,4.4
	c-0.467-0.1-0.6-0.45-0.399-1.05l0.399-1.7L325.869,359.05L325.869,359.05z M348.22,347.45c0.467-1.534,0.85-2.517,1.148-2.95
	c0.566-0.9,1.418-1.283,2.551-1.15c-0.133-1.1,0.117-1.85,0.75-2.25c0.467-0.333,1.233-0.45,2.299-0.35l3.201,0.55l3.148,0.4
	c2.467-2.467,5.882-4.583,10.25-6.35c3.032-1.233,7.35-2.55,12.948-3.95l13.448-3.6c4.867-1.566,8.783-3.333,11.75-5.3l1.6,1.5
	l0.049,0.5l-26.247,12.15c-12.233,5.267-21.148,8.317-26.749,9.15l-1.65-1.65c-0.435-0.4-0.799-0.617-1.1-0.65l-1.25,0.1
	l-2.101,0.85l-1.9,1.8L348.22,347.45L348.22,347.45z M325.869,311.05c-0.199,0.467-0.332,1.05-0.397,1.75l-0.351,2.3
	c-0.2,0.5-0.385,1.367-0.551,2.6l-0.399,3.55c-0.367,3.066-0.916,4.833-1.651,5.3c-2.133-3.8-2.53-7.7-1.199-11.7
	c0.5-1.6,1.351-3.367,2.551-5.3c0.733-1.233,1.883-2.95,3.45-5.15l1.5,1.45l-2.1,2.45C325.953,309.334,325.67,310.25,325.869,311.05
	z M280.375,374.6c-2.033,0.9-2.867,0.45-2.5-1.35c0.1-0.634,0.367-1.366,0.8-2.2l1-1.649l0.75,0.05l0.3,2.7L280.375,374.6
	L280.375,374.6z M161.085,390.5c-0.633,0.732-1.4,1.333-2.3,1.8l-2.5,1.5c-1.167,0.233-2.384-0.217-3.65-1.35l-1.5-1.7l-1.5-1.7
	c-1.133-1.2-2.167-1.733-3.1-1.6c-1.234,0.165-2.533,1.433-3.899,3.8c-0.267,0.268-0.517,0.35-0.75,0.25
	c-0.2-0.066-0.334-0.268-0.4-0.6c-0.167-0.834,0.083-1.584,0.75-2.25c1.334-1.067,3.167-1.9,5.5-2.5
	c1.533-0.4,3.716-0.769,6.549-1.102l6.049-0.95c1.966-0.433,3.333-1.017,4.1-1.75l1.1,1.851c-1.466,0.4-2.516,1.201-3.15,2.4
	C162.085,387.066,161.652,388.365,161.085,390.5L161.085,390.5z M49.796,236.55c1.767-0.433,3.033-0.35,3.799,0.25
	c-1.267,0.833-2.583,1.4-3.95,1.7c-1.734,0.367-2.933,0.1-3.6-0.8L49.796,236.55z M54.195,236.6h-0.05l6.8-2.05l0.65,1.2l-0.1,0.5
	l-4.6,1.65c-0.5-0.5-0.933-0.683-1.3-0.55C55.195,237.417,54.728,237.167,54.195,236.6z M71.844,233.3
	c2.433-1.933,6.083-3.267,10.949-4l11.799-0.65c1.433-0.667,3.049-1.633,4.849-2.9l4.1-2.8c1.5-0.867,2.95-1.384,4.35-1.55
	c1.7-0.2,3.6,0.067,5.7,0.8l4.2-1.1l8.749-1.85l0.55,0.55c-1.1,1.1-3.183,1.95-6.249,2.55l-7.049,1.15
	c-2.433,0.267-5.55,1.233-9.35,2.9c-4.132,1.8-7.299,2.934-9.499,3.4l-11.199,1.3c-4.3,0.667-7.882,1.65-10.749,2.95L71.844,233.3z
	 M68.894,312.3l-2,1.35c-0.8-0.267-0.917-0.8-0.35-1.6c0.433-0.7,1.133-1.35,2.1-1.95c1-0.6,1.6-0.767,1.8-0.5
	C70.677,309.9,70.16,310.8,68.894,312.3z M96.642,315.3l6.149-0.2l1.45,0.45h0.65c0.134-0.133,0.184-1.35,0.15-3.65
	c-0.1-3.833-0.017-8.05,0.25-12.65c1.233-1.267,2.4-1.45,3.5-0.55c0.667,0.533,1.617,1.9,2.85,4.1
	c1.367,2.434,2.467,4.117,3.299,5.05c1.433,1.566,3.033,2.267,4.8,2.1c-0.066,0.966-0.45,1.6-1.15,1.9l-2.4,0.1l-3.7-3.35
	c-0.367-2.034-1.05-2.867-2.05-2.5c-0.4,0.133-0.883,0.466-1.45,1l-1.5,1.35l-1.35,2.7c-0.167,0.7-0.017,1.6,0.45,2.7l1.8,3
	c0.4,0.767,0.55,1.367,0.45,1.8c-0.1,0.434-0.5,0.934-1.2,1.5l-3.25,2.15l-3.35-2.15l-3.15-2.45L96.642,315.3L96.642,315.3z
	 M189.933,375.7l1.5-0.351c0.3,0.334,0.167,0.801-0.4,1.4l-1.85,1.35c-0.733,0.334-1.1,0.334-1.1,0
	C188.083,377.7,188.699,376.9,189.933,375.7z M56.195,444.1l0.85,0.852c0.633,0.7,1.233,1.55,1.8,2.55l-1.15-0.9l-0.9-0.551
	c-0.5-0.167-1.267,0.083-2.3,0.75l2.1,1.352c0.4,0.1,1.167-0.084,2.3-0.552l1.2,2.45l1.25,3.602
	c-3.567,1.032-9.632,1.433-18.198,1.198l-19.099-1.198l-2.6-2.602l7.449,0.65l10.449,0.45c8.966-0.135,13.883-1.917,14.749-5.352
	l0.05-0.6l1.1-1.602L56.195,444.1L56.195,444.1z M102.541,443.5l0.55-0.55c0.633-0.567,1.117-1.4,1.45-2.5l0.7-3.4
	c0.633-3.3,1.817-5.815,3.549-7.55l1.95-0.65l1.2-1.05c0.566,0,1.7-0.267,3.4-0.8c1.533-0.533,2.933-0.7,4.199-0.5l0.35,0.4
	c0.733,0.6,2.15,0.981,4.25,1.148l2.1,0.25c0.667,0.134,1.133,0.4,1.4,0.8c-4.166,4.135-5.617,6.483-4.35,7.052l0.65,0.1
	c-9.999,3.767-16.464,7.116-19.398,10.05l-1.35-0.6C103.158,445.233,102.941,444.5,102.541,443.5z M102.991,445.95
	c-0.2-0.167-0.184-0.25,0.05-0.25h0.15C103.158,445.967,103.091,446.05,102.991,445.95z M123.939,436.25l0.8-0.3l10.799-3.75
	l1.9-0.602l-5.35,2.25C128.021,435.483,125.305,436.283,123.939,436.25L123.939,436.25z M142.787,398.4
	c-1.167-1.167-1.317-2.45-0.45-3.852l1.1-1.3l0.65-0.55c2.5,0.833,3.483,1.916,2.95,3.25C146.537,397.184,145.12,398,142.787,398.4z
	 M136.088,425.1l0.25-3.948c2.133,0.1,3.299,0.583,3.5,1.448c0.133,0.733-0.55,1.852-2.05,3.352l-1.15-0.7L136.088,425.1z
	 M116.74,435.35c-0.533-0.565-1.466-1.05-2.8-1.448l-1.05,1.8c0.9,0.633,1.783,1.017,2.65,1.148c0.733,0.067,1.233-0.05,1.5-0.35
	C117.306,436.167,117.207,435.783,116.74,435.35L116.74,435.35z M137.538,431.55l0.1-0.05l8.749-3.8
	c5.866-2.567,9.899-4.15,12.099-4.75l0.65,1.2c0.034,0.166,0.017,0.333-0.05,0.5l-12.199,3.948l-0.25,0.102l-7.999,2.5
	L137.538,431.55L137.538,431.55z M2.25,345.95c1.533-1.967,2.266-2.284,2.2-0.95c-0.1,1.167-0.533,2.467-1.3,3.9
	c-0.334-0.333-0.483-0.733-0.45-1.2C2.733,347.1,2.583,346.517,2.25,345.95L2.25,345.95z M12.949,383.1l1.8,2.5
	c0.6,1.2,0.617,2.102,0.05,2.7c-3.333-0.065-5.75-1.083-7.25-3.05c-1.133-1.5-2.05-4.066-2.75-7.7c0.367-1.833,1.417-3.434,3.15-4.8
	l2.45-1.8l2.55-1.9l1.1,1.851l-5.549,4.8c-0.533,0.166-0.933,0.35-1.2,0.55L5.4,377.75l1.85,2.15c0.866,0.866,1.533,1.066,2,0.6
	L12.949,383.1z M29.547,415.6c0.767-0.767,1.817-0.482,3.15,0.852l1.6,1.8l1.35,1.6c-0.767,0.733-1.9,0.45-3.4-0.85
	C30.914,417.833,30.014,416.7,29.547,415.6z"/>
<path id="path19" fill="#D1EBE8" d="M555.398,54.25l0.9-1.7c1.302-2.333,2.801-3.883,4.5-4.65l0.1-0.05l0.101-0.05l0.201-0.1
	l2.148-0.5h0.102l2.998-0.05c8.46-0.673-9.454,11.509-9.949,11.95c-11.375,8.367-10.073,11.256-3.949,0.7l2-3.85L555.398,54.25z
	 M561.2,47.7h0.049H561.2z M576.447,42.55c2.233-2.433,4.1-4.25,5.6-5.45l0.049-0.1l5.251-2.95l0.701-0.15
	c2.298-0.367,4.232,0.567,5.798,2.8l1.151,1.9c-2.269,0.167-6.667,1.55-13.199,4.15C578.184,43.632,569.578,49.602,576.447,42.55z
	 M582.047,37.1l0.049-0.05L582.047,37.1z M582.246,3.05L571.397,5.2c-13.9,3.267-30.465,8.85-49.695,16.75
	c-16.466,6.733-32.664,14.233-48.596,22.5c-14.766,7.6-25.182,13.7-31.248,18.3c-4.999,2.2-8.832,3.967-11.497,5.3l-20.499,10.4
	c-0.2-0.167-5.767,2.833-16.699,9c-11.666,6.533-18.332,10.116-19.998,10.75c2.299-4.967,13.666-13.2,34.096-24.7
	c18.801-10.633,41.231-21.783,67.296-33.45c26.564-11.9,49.928-21.233,70.094-28C562.348,6.117,574.882,3.117,582.246,3.05
	L582.246,3.05z M601.195,2.65l13.398,0.45c11.066,0.733,22.264,2.283,33.598,4.65c12.065,2.533,22.748,5.7,32.048,9.5
	c10.231,4.2,17.898,8.833,22.997,13.9c-3.833-1.233-8.551-3.133-14.15-5.7l-14.497-6.65c-5.6-2.533-10.482-4.4-14.649-5.6
	c-5.298-1.567-10.199-2.35-14.699-2.35c-2.6-1.367-9.199-2.917-19.797-4.65c-10.5-1.767-16.95-2.434-19.35-2
	c-1.266-0.6-2.682-1.067-4.248-1.4L601.195,2.65z M694.387,48.15c-8.266-5-16.398-8.583-24.398-10.75
	c-10.267-2.767-18.764-2.633-25.498,0.4l-0.398-0.4c-1.532-2.9,0.183-4.633,5.149-5.2c4.434-0.534,10.282-0.067,17.548,1.4
	c7.365,1.466,13.633,3.466,18.8,6C691.42,42.434,694.354,45.283,694.387,48.15L694.387,48.15z M639.342,37.05
	c-5.801-4.6-12.199-6.633-19.199-6.1c-5.465,0.4-12.248,2.566-20.349,6.5l-0.399-1.1c0.899-3.367,3.484-5.467,7.75-6.3l5.751-0.5
	l5.548-0.05c1.166-0.233,2.633-0.633,4.4-1.2l3.998-1.2l1.151-0.2l0.899-0.1l1.699,0.05l0.649,0.1c1.334,0.233,2.617,0.733,3.85,1.5
	l0.15,0.1c1.532,1.8,3.016,4.517,4.449,8.15L639.342,37.05z M533.151,68.7l-6.998-1.7l-5.75-1.3
	c-4.798,0.5-14.281,4.75-28.447,12.75l-13.85,8.1l-5.949,3.55c0.133-1.967,0.6-3.583,1.4-4.85c0.666-1.1,1.666-2.066,3-2.9
	c0.867-0.567,2.266-1.267,4.199-2.1c2.334-1.033,4.016-1.816,5.049-2.35c5.633-3.667,10.783-6.583,15.449-8.75
	c6.368-2.966,12.983-5.15,19.849-6.55l12.049,3.1C547.693,67.482,543.5,70.741,533.151,68.7z M467.759,92.7
	c-4.934,1.366-8.766,2.983-11.5,4.85c-2.267,1.467-4.182,3.384-5.751,5.75l-1.998,3.35l-2.102,3.7
	c-1.932,3.133-4.182,5.983-6.748,8.55c0.5-2.933,1.516-6.367,3.049-10.3l0.6-1.55l0.65-1.55l0.5-1.1l3.749-6.85l0.101-0.15l0.5-0.8
	c2.768-4,5.617-6.467,8.549-7.4l2.25-0.4C462.342,88.7,465.057,90,467.759,92.7L467.759,92.7z M459.608,88.8h0.051H459.608z
	 M432.609,123.35c-3.766,1.433-6.431,3.117-7.998,5.05c-1.166,1.4-1.934,3.3-2.301,5.7l-0.449,3.15l-0.698,3.3
	c-0.802,2.6-2.269,5-4.401,7.2c0.834-4.033,1.283-8.383,1.351-13.05l0.05-4.65l0.299-3.55c0.4-1.967,1.533-3.184,3.4-3.65
	L432.609,123.35z M408.412,150.9l-2.75,0.1l-3.648,0.25c-3.067,0.4-4.75,1.5-5.051,3.3c-1.232-1.566-1.715-3.3-1.449-5.2
	c0.232-1.833,1.019-3.217,2.351-4.15c1.434-1.034,3.032-1.167,4.798-0.4C404.695,145.7,406.613,147.733,408.412,150.9z
	 M393.465,155.9c-3.9,2.167-6.966,4.233-9.199,6.2c-2.532,2.233-4.882,5.066-7.05,8.5c-0.398-2.233-0.217-4.467,0.551-6.7
	c0.766-2.133,1.949-3.966,3.549-5.5c1.633-1.6,3.484-2.633,5.551-3.1C389.064,154.8,391.264,155,393.465,155.9z M373.115,174.35
	l-6.499,6.55c-1.768,1.767-3.032,3.267-3.8,4.5c-0.935,1.367-1.685,3.117-2.25,5.25c-0.533,1.833-1.149,4.784-1.85,8.85
	c-1.935-1.967-2.783-4.65-2.549-8.05l0.25-1.95l0.397-1.65l0.301-1l0.4-1l0.649-1.6l1.149-2.1l4.949-5.85l1.301-0.95l0.199-0.1
	C368.4,173.584,370.851,173.283,373.115,174.35L373.115,174.35z M357.117,186.85l0.052-0.05L357.117,186.85z M348.22,205.2
	c-7.066-3.2-17.751-2.7-32.05,1.5c-4.365,1.267-8.949,2.866-13.748,4.8l-4.149,1.7l-1.6,0.65c0.334-0.333,0.733-1.117,1.2-2.35
	c0.434-1.233,1-2.167,1.7-2.8c2.833-0.7,7.132-2.233,12.898-4.6c6.1-2.534,10.516-4.184,13.25-4.95c4.831-1.367,8.949-1.7,12.348-1
	C342.135,198.95,345.518,201.3,348.22,205.2L348.22,205.2z M294.423,215l-3.1,1.2c-1.833,0.667-3.35,1.3-4.55,1.9
	c-3.8,1.8-5.367,3.417-4.7,4.85l-1.85-1.9c-0.533-0.833-0.733-1.767-0.6-2.8c0.133-1.1,0.633-2.066,1.5-2.9l4.05-1.5
	c1.3-0.534,2.333-0.867,3.1-1l2.85,0.2L294.423,215z M275.825,222.55c-2.1-0.2-6.017,0.417-11.749,1.85l-5.6,1.45
	c-7.331,2.639,6.221-6.903,7.349-7.4c4.567-1.934,8.016-0.684,10.349,3.75L275.825,222.55z M241.628,236.8
	c-0.967-1.9-1.1-3.583-0.4-5.05c0.6-1.3,1.8-2.383,3.6-3.25c1.533-0.767,3.35-1.283,5.45-1.55
	C263.429,224.395,244.868,234.075,241.628,236.8z M238.128,238.85c-2.9,0.667-6.433,3-10.599,7c-2,1.9-5.649,5.883-10.949,11.95
	c-4.4,4.967-7.667,8.284-9.799,9.95c-3.2,2.433-5.632,2.816-7.299,1.15l3.75-4.1l3.85-4.4l0.15-0.15
	c4.434-5.067,8.166-9.083,11.199-12.05C228.396,238.4,234.962,235.283,238.128,238.85L238.128,238.85z M203.231,264.8v-0.05V264.8z
	 M207.081,260.4l0.05-0.05L207.081,260.4z M196.582,268.55c-0.3,0.267-1.484,0.25-3.549-0.05l-6.6-0.8
	c-6.299-0.2-10.066,2.05-11.299,6.75c-1.233-2.967-1.183-5.367,0.15-7.2c1.167-1.667,3.15-2.7,5.95-3.1
	c2.6-0.433,5.349-0.25,8.249,0.55C192.45,265.533,194.815,266.816,196.582,268.55L196.582,268.55z M170.135,275
	c-3.7-0.567-6.566-0.633-8.599-0.2c-1.9,0.367-3.367,1.25-4.4,2.65c-0.8,1-1.633,2.75-2.5,5.25l-2.8,7.65
	c-0.533-3.133-0.367-6.483,0.5-10.05c0.834-3.6,2.133-6.5,3.899-8.7c1.933-2.434,4.066-3.517,6.399-3.25
	c2.633,0.267,5.267,2.367,7.899,6.3L170.135,275z M142.587,295.9l-6.799,0.8l-4.5,0.6c-1.334,0.4-2.567,1.3-3.7,2.7
	c-1.234,1.467-2.683,3.85-4.35,7.15l-1.1-0.95l-0.75-0.15l-0.75-1.45c3.066-6.333,5.95-10.4,8.649-12.2
	C133.321,289.667,137.753,290.834,142.587,295.9L142.587,295.9z M118.04,313.1l-7.399,5.15l-4.05-4.4c-0.467-1.1-0.617-2-0.45-2.7
	l1.35-2.7l3-0.1l2,0.25l3.7,3.35L118.04,313.1z M104.791,322.7l-8.899,6.65l-0.75-2.7l-0.45-1.6l-0.35-2.5
	c0.033-1.6,0.967-3.1,2.799-4.5l0.75-0.35l3.15,2.45l3.35,2.15L104.791,322.7z M89.092,331.75c-0.367,0.333-1.3,0.733-2.8,1.2
	l-3.5,1l-2.75,3.4l-3.75,5c-3.333,4.3-5.35,6.3-6.05,6c0.5-1.7,1.183-3.467,2.05-5.3l2.75-5.05c1.7-2.167,2.484-4.434,2.35-6.8
	l3.45-2.9c0.933-0.667,1.783-0.983,2.55-0.95c0.733,0.033,1.55,0.417,2.45,1.15C86.575,329.1,87.659,330.183,89.092,331.75z
	 M66.544,351.3c-1.567,1.267-4.267,3-8.099,5.2l-10.099,5.6c-3.767,2.167-6.399,3.934-7.899,5.301c-1.966,1.699-2.45,3.05-1.45,4.05
	l-0.95,0.2c-6.2-2.101-8.667-4.467-7.399-7.101c0.534-1.033,1.633-2.1,3.3-3.2c1.734-1.133,4.083-2.3,7.049-3.5l3.85-1.399
	c3.6-1.267,7.633-2.417,12.099-3.45C62.345,351.7,65.544,351.133,66.544,351.3z M58.595,377.35c0.2-0.1,6.399,1.233,18.599,4
	l18.848,4.3c-1,2.367-3.55,3.634-7.649,3.801c-3.566,0.133-7.799-0.533-12.699-2c-4.533-1.367-8.482-3.017-11.849-4.95
	C60.345,380.467,58.595,378.75,58.595,377.35L58.595,377.35z M100.491,385.3c0.433-0.434,4.75,0.066,12.949,1.5
	c-1.9,1.4-3.367,2.351-4.4,2.851c-1.133,0.467-2.1,0.617-2.899,0.449c-0.7-0.199-1.517-0.732-2.45-1.6L100.491,385.3z
	 M115.64,387.15l5.85-0.551c2.267-0.166,4.083-0.149,5.449,0.051c-0.533,4-2.033,5.8-4.5,5.398
	C120.372,391.75,118.106,390.116,115.64,387.15z M131.138,386.45c4.5-1.8,9.882-3.367,16.148-4.7l16.398-3.15
	c6.566-1.3,12.032-2.633,16.398-4c5.9-1.933,11.216-4.333,15.949-7.199l0.35,0.35c0,2.467-0.267,4.1-0.8,4.9
	c-0.533,0.767-1.917,1.666-4.15,2.699l-1.5,0.351c-2.267-0.033-4.549,0.233-6.849,0.8c-1.7,0.4-3.733,1.05-6.1,1.95l-6,2.25
	l-6.549,1.649c-0.767,0.733-2.133,1.317-4.1,1.75l-6.049,0.95c-2.833,0.333-5.017,0.7-6.549,1.101c-2.333,0.601-4.166,1.434-5.5,2.5
	l-1.45-0.149l-2.85,0.05C135.005,388.482,132.738,387.783,131.138,386.45L131.138,386.45z M199.682,365.9
	c5.266-0.867,8.949-1.7,11.049-2.5c2.533-1,5.699-2.934,9.499-5.801c0.6,2.066,0.283,3.984-0.95,5.75
	c-1.066,1.566-2.717,2.867-4.95,3.9c-2.1,0.934-4.299,1.5-6.599,1.7c-2.367,0.166-4.3-0.117-5.8-0.851L199.682,365.9z M226.83,355
	c2.634-1.833,6.932-2.684,12.899-2.55l7.699,0.4c3.2,0.167,5.766,0.2,7.699,0.1c5.667-0.3,9.783-1.833,12.349-4.6
	c3.233-3.534,4.467-9.45,3.7-17.75c0.167-0.767,0.583-2.034,1.25-3.8c0.834-2.167,1.684-4.117,2.55-5.85
	c2.467-5,4.399-6.817,5.799-5.45l-2.6,3.3l-3.3,5.65c-1.2,2.066-1.967,3.816-2.3,5.25c-0.467,1.833-0.35,3.583,0.35,5.25
	c0.733,1.866,2.25,3.75,4.549,5.65l0.45,2.2l-0.1,2.25l-5.35,3.85l-9.599,4.45l-8.199,2.1l-10.049,2.05
	C236.262,358.7,230.329,357.867,226.83,355L226.83,355z M289.824,316.4c0.834-0.833,2.6,0.117,5.299,2.85l3.85,4.2l4.3,4.45
	c3.533,3.367,6.482,5.133,8.85,5.3c3.1,0.2,5.533-2.2,7.298-7.2c-1.299-2.367-1.283-5.667,0.051-9.9
	c1.233-3.934,3.284-7.867,6.15-11.8c2.965-4.033,6.049-7.033,9.248-9c3.534-2.2,6.633-2.683,9.3-1.45
	c-1.233,0.867-2.666,1.75-4.299,2.65l-4.25,2.2c-3.499,1.8-6.265,3.7-8.299,5.7c-1.567,2.2-2.717,3.917-3.45,5.15
	c-1.2,1.934-2.051,3.7-2.551,5.3c-1.331,4-0.934,7.9,1.199,11.7c2.268,2.267,2.984,4.367,2.151,6.3c-0.8,1.833-2.75,3.066-5.85,3.7
	l-10.998-1.35c-2.201-0.467-3.9-1.267-5.101-2.4c-0.733-0.667-2.183-2.517-4.35-5.55C295.673,323.483,292.823,319.867,289.824,316.4
	L289.824,316.4z M350.969,295.15c0.533-0.3,3.215-0.267,8.05,0.1l16.148,0.75c16.432-0.033,28.746-3.2,36.945-9.5l0.701,1.45
	c0.533,1.833-6.4,5.483-20.799,10.95c-5.299,1.967-10.564,3.8-15.799,5.5l-8.998,2.55c-3.367-0.6-6.434-1.983-9.199-4.15
	C355.816,301.066,353.467,298.517,350.969,295.15L350.969,295.15z M415.813,284.3c2.066,0.9,4.982,1.167,8.748,0.8
	c3.467-0.333,7.132-1.167,11-2.5c3.932-1.367,7.35-2.983,10.248-4.85c3.133-2.033,5.199-4.05,6.199-6.05l0.75,0.75l-0.25,3.1
	c-0.199,0.667-0.666,1.534-1.398,2.6c-3.735,1.667-6.217,2.833-7.45,3.5c-1.301,0.633-3.934,2.117-7.899,4.45l-3.85,0.6l-4.399,1.25
	l-7.849,0.2L415.813,284.3z M455.71,268.75c2.566,1.367,6.916,1.367,13.048,0c5.766-1.267,12.767-3.7,20.999-7.3
	c7.965-3.434,16.531-7.7,25.697-12.8c9.166-5.133,18.197-10.65,27.098-16.55c12.498-8.4,23.164-16.517,31.996-24.35l-4.049,4.75
	l-7.15,8.45c-5.865,6.767-10.897,11.417-15.098,13.95c-3.934,0.967-7.949,2.5-12.049,4.6c-2.633,1.333-6.383,3.517-11.25,6.55
	c-1.699,0.534-6.266,2.65-13.697,6.35l-21.248,10.35c-19.167,8.767-30.23,11.367-33.197,7.8L455.71,268.75z M587.798,194.75
	l0.147-0.15c5.734-6.467,9.633-12.267,11.699-17.4c2.268-5.6,2.316-10.3,0.149-14.1c0.367-0.4,0.552-1.4,0.552-3v-3.5
	c1.299,1.6,2.182,3.133,2.648,4.6l1.051,5.4c-1.666,6-3.434,10.833-5.301,14.5c-2.1,3.966-5.132,8.117-9.098,12.45L587.798,194.75z
	 M608.845,149.55c9.867-2.366,15.283,0.35,16.248,8.15c0.467,3.767-0.082,8.583-1.648,14.45c-0.566-7-3.217-13.3-7.949-18.9
	c-0.701-0.566-1.867-1.2-3.5-1.9C610.429,150.684,609.377,150.084,608.845,149.55z M597.395,225.75
	c-4.299,6.733-7.748,11.4-10.348,14c-23.898,18.3-52.713,36.133-86.443,53.5c-27.463,14.1-60.311,28.9-98.541,44.4
	c-14.564,5.9-31.515,12.567-50.844,20l-50.396,19.2l-4.7,1.75l2.1-1.1l7.95-4.5c2.5-1.5,4.066-2.517,4.699-3.05l1.75-1.05
	l4.199-2.65c1.033,0.434,2.616,0.066,4.749-1.1c1.699-0.967,3.117-2.018,4.25-3.15l8.549-4.4c6.133-3.399,10.199-5.616,12.199-6.649
	c1.6-0.3,3.666-0.983,6.199-2.05c2.801-1.167,4.666-2.2,5.6-3.1c5.6-0.833,14.516-3.883,26.749-9.15l26.246-12.15
	c1.735,1.733,6.234,1.117,13.5-1.85c4.932-2.033,12.732-5.9,23.398-11.6l1-0.55l8.8-4.65l1.148-0.65
	c9.699-4.134,18.316-8.167,25.848-12.1l0.5-0.2l5.6-1.1h0.2l5.398-3.9c2.133-1.467,4.018-2.617,5.65-3.45
	c12.299-5.134,20.697-8.733,25.197-10.8c10.166-4.767,18.031-9.3,23.599-13.6c8.033-3.3,17.082-8.917,27.148-16.85
	C585.346,237.633,591.696,231.816,597.395,225.75L597.395,225.75z M286.324,382.35h0.05l0.35,0.15L286.324,382.35z M243.078,399.25
	c-14.432,5.767-26.73,10.866-36.897,15.3l-26.197,8.75l-27.098,9.102c-21.631,7.1-40.296,12.648-55.995,16.648l-1.55,0.352l1.85-0.5
	c4.066-1.135,6.516-2,7.349-2.602c2.933-2.934,9.399-6.283,19.398-10.05c1.367,0.033,4.083-0.767,8.149-2.4l5.35-2.25l0.1-0.05
	l1.1-0.35l7.999-2.5l0.25-0.102l12.199-3.948c12.932-1.769,28.748-5.817,47.446-12.15l23.748-8.55L243.078,399.25L243.078,399.25z
	 M85.393,451.75l0.55-0.1c-16.398,3.767-31.597,6.333-45.596,7.698C25.914,460.75,12.299,460.95-0.5,459.95v-4.15l1.1-0.1
	l12.749-0.852l10.699-1.198l19.099,1.198c8.566,0.233,14.631-0.166,18.198-1.198c1.334,0.698,4.232,0.865,8.699,0.5l13.799-2.101
	L85.393,451.75z M12.149,330.25l4.5-1.1c5.667-2.467,10.899-5.6,15.698-9.4c4.367-3.5,8.132-7.367,11.299-11.6
	c3-4,5.183-7.983,6.55-11.95c1.333-3.934,1.734-7.417,1.2-10.45c-0.533-3.167-2.033-5.517-4.5-7.05
	c-2.667-1.667-6.232-2.267-10.699-1.8c-9.432,0.967-21.665,6.333-36.696,16.1v-5.95l4.699-2.3c6.433-2.9,13.232-5.083,20.398-6.55
	c7.066-1.467,13.449-2.017,19.148-1.65c5.966,0.4,10.382,1.767,13.249,4.1l1.3,1.35c0.967,3.633,1.367,6.167,1.2,7.6
	c-2.933,4.433-4.816,7.816-5.649,10.15c-0.4,1.066-0.567,1.85-0.5,2.35c-1.8,2.233-3.933,4.6-6.399,7.1
	c0,15-10.199,22.1-30.597,21.3L12.149,330.25z M-0.5,258.35v-6.5c23.098-11.467,51.495-22.15,85.192-32.05
	c26.897-7.933,57.178-15.35,90.842-22.25l-1.05,0.45l-14.449,6.4l-3.6,1.8l-0.4,0.2l-0.85,0.45c-3.2,1.5-8,3.566-14.399,6.2
	c-6.399,2.6-11.149,4.667-14.249,6.2l-8.749,1.85l-4.2,1.1c-2.1-0.733-4-1-5.7-0.8c-1.4,0.167-2.85,0.684-4.35,1.55l-4.1,2.8
	c-1.8,1.267-3.417,2.233-4.849,2.9l-11.799,0.65c-4.866,0.733-8.516,2.067-10.949,4l-0.9,0.5c-0.9-0.9-2.533-1.116-4.9-0.65
	l-5.099,1.4l-6.799,2.05l-0.55,0.2c-0.767-0.6-2.033-0.683-3.799-0.25l-3.75,1.15c-5.667,3.033-12.666,6.35-20.998,9.95L2.7,257.05
	L-0.5,258.35z M54.146,236.6h0.05H54.146z M221.38,188.85l12.949-2.25c-4.1,1.033-6.716,2.117-7.849,3.25
	C225.545,189.417,223.847,189.084,221.38,188.85z M254.127,183.3l21.098-3.45c7.233-1.934,14.716-4.534,22.448-7.8
	c7.865-3.366,15.481-7.183,22.849-11.45c16.297-9.567,28.798-19.883,37.497-30.95c0.6-1.133,1.549-3.433,2.85-6.9l3.6-9.9
	c3.199-8.5,5.6-12.883,7.199-13.15c-2.866,10.233-6.482,18.983-10.85,26.25c-4,6.566-8.998,12.533-14.998,17.9
	c-4.732,4.167-11.215,8.867-19.449,14.1l-11.549,7.1L302.023,173l-7.499,3.5c-2.5,1.167-4.85,2.184-7.049,3.05l-12.2,1.5l-19.098,2
	L254.127,183.3z M43.746,377.75l1.5-0.75c0.867-0.167,1.65,0.033,2.35,0.6c0.6,0.5,1.05,1.233,1.35,2.2c0.233,0.967,0.3,2,0.2,3.101
	c-0.167,1.133-0.517,2.183-1.05,3.149c-1.367,2.267-3.55,3.417-6.549,3.45c-3.733-0.033-8.249-1.867-13.549-5.5
	c-1.867,0.934-3.384,1.518-4.549,1.75l-2.95-0.05l-3-1.15c-1.5-0.633-3.017-1.116-4.549-1.45l-3.7-2.6l-0.75-2.3v-2.5l5.549-4.8
	c2.633-0.934,4.583-1.483,5.85-1.65c1.2-0.167,2.15-0.05,2.85,0.35l2.15,2c1.133,1.167,2.317,2.167,3.55,3
	c-5.133,2.101-7.6,3.983-7.399,5.65c0.133,1.366,1.984,2.283,5.549,2.75c3.5,0.434,6.95,0.217,10.349-0.65
	C40.747,381.384,43.012,379.85,43.746,377.75L43.746,377.75z"/>
<path id="path21" fill="#4CA5A3" d="M644.49,37.8c0.668,2.2,0.852,3.983,0.551,5.35c-0.268,1.2-0.815,1.784-1.65,1.75
	c-0.865-0.066-1.685-0.733-2.449-2c-0.834-1.466-1.367-3.417-1.6-5.85l0.35-0.35c0.935,0.667,1.633,1.033,2.1,1.1l2.301-0.4
	L644.49,37.8L644.49,37.8z M599.795,37.45c-0.532,1.5-1.184,2.3-1.948,2.4c-0.633,0.1-1.584-0.317-2.85-1.25l-1.151-1.9
	c1.334,1.333,2.299,1.983,2.901,1.95c0.499-0.066,1.383-0.833,2.648-2.3L599.795,37.45L599.795,37.45z M282.074,222.95
	c0.733,1.833,0.983,3.167,0.75,4c-0.233,0.733-0.8,1-1.7,0.8c-0.833-0.233-1.733-0.816-2.7-1.75c-1.1-1-1.966-2.15-2.6-3.45
	l0.35-0.35c0.6,0.6,1.4,0.816,2.4,0.65c1.066-0.2,1.616-0.8,1.65-1.8L282.074,222.95L282.074,222.95z M175.134,274.45
	c0.467,1.667,0.584,2.983,0.35,3.95c-0.2,0.867-0.633,1.317-1.3,1.35c-0.633,0.033-1.317-0.35-2.05-1.15
	c-0.8-0.867-1.467-2.067-2-3.6l0.4-0.35h2.65L175.134,274.45z M123.239,307.15l-0.25,3c-0.1,0.767-0.283,1.333-0.55,1.7
	c-0.334,0.4-0.834,0.683-1.5,0.85l-2.899,0.4l-1.85-1.15l2.4-0.1c0.7-0.3,1.084-0.934,1.15-1.9l1.1-1.8l0.55-2.1l0.75,0.15
	L123.239,307.15L123.239,307.15z M110.64,318.25c-0.566,2.1-1.15,3.433-1.75,4c-0.8,0.767-2.167,0.917-4.1,0.45l-0.4-0.4l3.25-2.15
	c0.7-0.566,1.1-1.066,1.2-1.5c0.1-0.433-0.05-1.033-0.45-1.8l-1.8-3L110.64,318.25L110.64,318.25z M95.892,329.35
	c-0.5,1.6-1.4,2.55-2.7,2.85l-4.1-0.45l3.3-1.6l3.15-1.95L95.892,329.35L95.892,329.35z M38.997,371.45l3.5,0.899
	c-1.2,1.2-1.25,2.184-0.15,2.95l1.55,0.851c0.667,0.333,1.117,0.616,1.35,0.85l-1.5,0.75l-10.649-2.6
	c1.333-0.634,2.25-1.117,2.75-1.45l2.2-2.05L38.997,371.45z M196.032,367.4c-0.133-1.967,0.116-3.051,0.75-3.25
	c0.6-0.167,1.567,0.416,2.9,1.75l2.25,2.199c-1.4-0.8-2.367-1.266-2.899-1.399c-1.2-0.3-2.083,0.05-2.65,1.05L196.032,367.4
	L196.032,367.4z M412.111,286.5l0.701-1.35l0.699-1.05c0.532-0.534,1.301-0.467,2.301,0.2l3.85,3.85
	c-0.302,0.1-0.75-0.033-1.351-0.4l-1.801-1.1c-1.6-0.833-2.831-0.4-3.699,1.3L412.111,286.5z M452.008,271.7
	c0-1.2,0.352-2.083,1.051-2.65c0.699-0.566,1.584-0.667,2.651-0.3l1.1,1.8c-1-1-2.35-0.367-4.051,1.9L452.008,271.7z M577.248,204.8
	c1.101-1.633,2.666-3.55,4.7-5.75c2.532-2.8,4.049-3.95,4.548-3.45l-6.647,6.65l-1.201,1.85c-0.4,0.533-0.732,0.816-1,0.85
	L577.248,204.8z M599.597,155.1c-0.435-4.2,2.032-6.167,7.398-5.9l-4.399,2.85l-0.95,1c-0.332-0.3-0.718-0.116-1.151,0.55
	L599.597,155.1L599.597,155.1z M296.123,378.6l-9.399,3.9l-0.35-0.15l0.75-1.35c0-0.3-0.167-0.583-0.5-0.85l-1.35-0.801l-0.85-0.55
	l-0.9-0.7c1.3-1.033,2.95-1.899,4.949-2.6l5.1-1.45l0.5-0.149l0.15-0.051l6.05-1.6c2.267-0.767,4.216-1.65,5.849-2.65l0.9-0.149
	c0.834,0.767,1.416,1.166,1.75,1.2l2.1-0.7c-0.633,0.533-2.199,1.55-4.699,3.05l-7.949,4.5L296.123,378.6z M286.374,382.35h-0.05
	H286.374z M191.583,191.5c1.167-0.733,3.467-1.35,6.899-1.85l10.699-0.9c3.933-0.2,7.466-0.2,10.599,0l1.55,0.1
	c2.5,0.233,4.216,0.566,5.149,1l0.75,0.75l-0.75,0.35l-16.448,0.85l-6.85,0.35l-9.549,1.05l-0.2-0.2L191.583,191.5L191.583,191.5z
	 M221.33,188.85h0.05H221.33z M315.371,364.8l10.498-5.75l-0.049,0.2l-0.4,1.7c-0.198,0.6-0.065,0.95,0.4,1.05
	c-1.133,1.133-2.551,2.184-4.25,3.15c-2.133,1.166-3.716,1.533-4.749,1.1L315.371,364.8z M347.867,347.8l0.353-0.35l2.148-1.2
	l1.9-1.8l2.101-0.85l1.249-0.1c0.302,0.033,0.666,0.25,1.101,0.65l1.648,1.65c-0.934,0.9-2.799,1.934-5.6,3.1
	c-2.532,1.067-4.6,1.75-6.199,2.05c0.334-0.3,0.732-0.567,1.199-0.8l0.75-0.45C348.785,349.433,348.568,348.8,347.867,347.8
	L347.867,347.8z M280.424,369.45c2.2-1.3,3.766-1.967,4.7-2c0.8-0.033,1.083,0.383,0.85,1.25c-0.233,0.767-0.833,1.75-1.8,2.95
	l-3.2,3.149l-0.6-0.2l0.35-2.449L280.424,369.45L280.424,369.45z M93.142,318.05l2.1-2.05c0.267-0.233,0.733-0.467,1.4-0.7l1.25,2.4
	l-0.75,0.35c-0.433-0.433-0.8-0.617-1.1-0.55l-0.7,0.55l-0.8,0.55C94.175,318.667,93.708,318.483,93.142,318.05z M1.4,448.5
	c-0.3-0.9-0.334-1.467-0.1-1.7l1.5,0.75c1.067,1.066,2.083,1.7,3.05,1.9l2.4-0.3c1.267-0.5,2.033-0.768,2.3-0.802
	c0.934-0.166,1.85,0,2.75,0.5c-0.467,0.768-0.567,1.617-0.3,2.552c0.233,0.833,0.667,1.517,1.3,2.05c0.633,0.5,1.233,0.6,1.8,0.3
	c0.566-0.333,0.917-1.167,1.05-2.5c0.733-0.566,1.417-0.833,2.05-0.8l2.25,0.6l2.6,2.602l-10.699,1.198L0.6,455.7
	c1.866-0.467,2.433-1.95,1.7-4.45L1.4,448.5z"/>
<path id="path23" fill="#003D51" d="M362.617,308.65c-0.967-0.167-2.018-0.65-3.15-1.45l-2.799-2.25l-7.9-8.3
	c0.1-0.133,2.2,1.533,6.3,5C359.334,305.217,361.851,307.55,362.617,308.65L362.617,308.65z M342.119,297l-4.051,3.5l-4.248,3.05
	c-3.499,2.567-6.15,5.067-7.951,7.5c-0.199-0.8,0.084-1.716,0.853-2.75l2.1-2.45C333.986,300.65,338.42,297.7,342.119,297
	L342.119,297z M174.734,382.35c-0.467,0.467-2.833,1.967-7.1,4.5l-6.549,3.65c0.566-2.134,1-3.434,1.3-3.9
	c0.633-1.199,1.683-2,3.15-2.398l4.85-0.65L174.734,382.35L174.734,382.35z M69.444,338.35c-0.3-0.3,0.1-1.267,1.2-2.9
	c1.067-1.7,2.417-3.434,4.05-5.2c1.833-2.067,3.55-3.617,5.149-4.65c1.833-1.267,3.3-1.684,4.4-1.25
	c-3.067,1.033-5.815,3.033-8.25,6l-3.1,3.95L69.444,338.35z"/>
<path id="path25" fill="#000033" d="M58.295,282l-0.85-3l-1.5-5.2c-0.467-1.566-0.633-2.45-0.5-2.65
	c9.066-0.033,13.798,2.717,14.199,8.25c0.167,2.2-0.4,4.75-1.7,7.65c-1.133,2.5-2.683,5.05-4.649,7.65
	c-1.766,2.3-3.55,4.25-5.35,5.85c-1.8,1.534-3.1,2.284-3.899,2.25c-0.433,0-0.667-0.233-0.7-0.7c-0.067-0.5,0.1-1.284,0.5-2.35
	c0.833-2.333,2.717-5.717,5.649-10.15C59.661,288.167,59.261,285.633,58.295,282L58.295,282z"/>
<path id="path27" fill="#FFFFFF" d="M33.097,375.15l10.649,2.6c-0.733,2.1-3,3.633-6.799,4.6c-3.399,0.867-6.849,1.084-10.349,0.65
	c-3.566-0.467-5.417-1.384-5.549-2.75c-0.2-1.667,2.267-3.55,7.399-5.65l2.45,0.351L33.097,375.15L33.097,375.15z"/>
</svg>
